<?xml version="1.0" encoding="UTF-8"?>
<!DOCTYPE svg PUBLIC "-//W3C//DTD SVG 1.1//EN" "http://www.w3.org/Graphics/SVG/1.1/DTD/svg11.dtd">
<svg xmlns="http://www.w3.org/2000/svg" xml:space="preserve" width="0.0503858in" height="0.0443858in" version="1.1" style="shape-rendering:geometricPrecision; text-rendering:geometricPrecision; image-rendering:optimizeQuality; fill-rule:evenodd; clip-rule:evenodd"
viewBox="0 0 10.76 9.48">
  <defs>
    <style type="text/css">
    <![CDATA[
      .fil0 {fill:white;fill-rule:nonzero}
    ]]>
    </style>
  </defs>
  <path class="fil0" d="M0.12 0l10.53 0c0.06,0 0.12,0.05 0.12,0.12l0 1.99c0,0.06 -0.05,0.12 -0.12,0.12l-10.53 0c-0.06,0 -0.12,-0.05 -0.12,-0.12l0 -1.99c0,-0.06 0.05,-0.12 0.12,-0.12z"/>
  <path class="fil0" d="M0.12 3.67l10.53 0c0.06,0 0.12,0.05 0.12,0.12l0 1.99c0,0.06 -0.05,0.12 -0.12,0.12l-10.53 0c-0.06,0 -0.12,-0.05 -0.12,-0.12l0 -1.99c0,-0.06 0.05,-0.12 0.12,-0.12z"/>
  <path class="fil0" d="M0.12 7.25l10.53 0c0.06,0 0.12,0.05 0.12,0.12l0 1.99c0,0.06 -0.05,0.12 -0.12,0.12l-10.53 0c-0.06,0 -0.12,-0.05 -0.12,-0.12l0 -1.99c0,-0.06 0.05,-0.12 0.12,-0.12z"/>
</svg>
