<?xml version="1.0" encoding="UTF-8"?>
<!DOCTYPE svg PUBLIC "-//W3C//DTD SVG 1.1//EN" "http://www.w3.org/Graphics/SVG/1.1/DTD/svg11.dtd">

<svg xmlns="http://www.w3.org/2000/svg" xml:space="preserve" width="0.843591in" height="0.75074in" version="1.1" style="shape-rendering:geometricPrecision; text-rendering:geometricPrecision; image-rendering:optimizeQuality; fill-rule:evenodd; clip-rule:evenodd"
viewBox="0 0 45.8 40.76">
 <defs>
  <style type="text/css">
   <![CDATA[
    .fil1 {fill:white;fill-rule:nonzero}
    .fil0 {fill:#E0AD12;fill-rule:nonzero}
   ]]>
  </style>
 </defs>
 <g id="Layer_x0020_1">

  <g id="_105553241788896">
   <path class="fil0" d="M45.34 35.03l-19.1 -33.1c-0.48,-0.85 -1.15,-1.42 -2.03,-1.71 -0.88,-0.29 -1.75,-0.29 -2.62,0 -0.88,0.29 -1.55,0.86 -2.03,1.71l-19.1 33.1c-0.42,0.85 -0.56,1.71 -0.39,2.59 0.16,0.88 0.58,1.62 1.27,2.23 0.69,0.61 1.51,0.92 2.46,0.92l38.19 0c0.96,0 1.78,-0.31 2.47,-0.92 0.69,-0.61 1.11,-1.35 1.27,-2.23 0.16,-0.88 0.03,-1.74 -0.39,-2.59z"/>
   <path class="fil1" d="M19.27 15.67c0,-0.33 0.1,-0.59 0.29,-0.78 0.2,-0.2 0.43,-0.29 0.7,-0.29l5.25 0c0.27,0 0.5,0.09 0.7,0.29 0.19,0.19 0.29,0.45 0.29,0.78l-0.66 11.15c0,0.22 -0.1,0.42 -0.29,0.61 -0.19,0.2 -0.43,0.29 -0.7,0.29l-3.93 0c-0.27,0 -0.51,-0.1 -0.7,-0.29 -0.19,-0.19 -0.29,-0.39 -0.29,-0.61l-0.66 -11.15z"/>
   <path class="fil1" d="M22.88 29.19c1.04,0 1.92,0.37 2.67,1.11 0.73,0.73 1.11,1.62 1.11,2.67 0,1.03 -0.37,1.92 -1.11,2.66 -0.74,0.74 -1.63,1.11 -2.67,1.11 -1.03,0 -1.92,-0.37 -2.67,-1.11 -0.73,-0.73 -1.11,-1.62 -1.11,-2.66 0,-1.04 0.37,-1.93 1.11,-2.67 0.74,-0.74 1.63,-1.11 2.67,-1.11z"/>
  </g>
 </g>
</svg>
