<?xml version="1.0" encoding="UTF-8"?>
<!DOCTYPE svg PUBLIC "-//W3C//DTD SVG 1.1//EN" "http://www.w3.org/Graphics/SVG/1.1/DTD/svg11.dtd">
<svg xmlns="http://www.w3.org/2000/svg" xml:space="preserve" width="0.404854in" height="0.315043in" version="1.1" style="shape-rendering:geometricPrecision; text-rendering:geometricPrecision; image-rendering:optimizeQuality; fill-rule:evenodd; clip-rule:evenodd"
viewBox="0 0 13.3 10.35" fill="currentColor">
<path class="fil0" d="M13.3 8.31c0,0.11 -0.03,0.2 -0.08,0.29 -0.05,0.08 -0.13,0.15 -0.22,0.2l-2.95 1.48c-0.19,0.09 -0.37,0.08 -0.54,-0.02 -0.18,-0.11 -0.27,-0.26 -0.27,-0.46l0 -7.76c0,-0.11 0.03,-0.2 0.08,-0.29 0.05,-0.08 0.13,-0.15 0.22,-0.2l2.95 -1.48c0.19,-0.09 0.36,-0.08 0.54,0.02 0.18,0.11 0.27,0.26 0.27,0.46l0 7.76zm-4.76 -6.79c0.09,0.05 0.17,0.12 0.23,0.21 0.06,0.09 0.09,0.19 0.09,0.3l0 7.76c0,0.2 -0.08,0.35 -0.25,0.46 -0.17,0.11 -0.35,0.12 -0.53,0.05l-3.33 -1.48c-0.09,-0.05 -0.17,-0.12 -0.23,-0.21 -0.06,-0.09 -0.09,-0.19 -0.09,-0.3l0 -7.76c0,-0.2 0.08,-0.35 0.25,-0.46 0.17,-0.11 0.35,-0.12 0.53,-0.05l3.33 1.48zm-5.29 -1.45c0.19,-0.09 0.37,-0.08 0.54,0.02 0.18,0.11 0.26,0.26 0.26,0.46l0 7.76c0,0.11 -0.03,0.2 -0.08,0.29 -0.05,0.08 -0.13,0.15 -0.22,0.2l-2.95 1.48c-0.19,0.09 -0.36,0.08 -0.54,-0.02 -0.18,-0.11 -0.27,-0.26 -0.27,-0.46l0 -7.76c0,-0.11 0.03,-0.2 0.08,-0.29 0.05,-0.08 0.13,-0.15 0.22,-0.2l2.95 -1.48z"/>
</svg>
