<?xml version="1.0" encoding="UTF-8"?>
<!DOCTYPE svg PUBLIC "-//W3C//DTD SVG 1.1//EN" "http://www.w3.org/Graphics/SVG/1.1/DTD/svg11.dtd">

<svg xmlns="http://www.w3.org/2000/svg" xml:space="preserve" width="0.404854in" height="0.269902in" version="1.1" style="shape-rendering:geometricPrecision; text-rendering:geometricPrecision; image-rendering:optimizeQuality; fill-rule:evenodd; clip-rule:evenodd"
viewBox="0 0 16.91 11.27">
 <defs>
  <style type="text/css">
   <![CDATA[
    .fil0 {fill:#58822E;fill-rule:nonzero}
   ]]>
  </style>
 </defs>
 <g id="Layer_x0020_1">

  <path class="fil0" d="M16.91 5.64c0,-1.02 -0.26,-1.96 -0.76,-2.82 -0.51,-0.86 -1.19,-1.55 -2.05,-2.05 -0.86,-0.51 -1.8,-0.76 -2.82,-0.76l-5.64 0c-1.02,0 -1.96,0.26 -2.82,0.76 -0.86,0.51 -1.55,1.19 -2.05,2.05 -0.51,0.86 -0.76,1.8 -0.76,2.82 0,1.02 0.26,1.96 0.76,2.82 0.51,0.86 1.19,1.55 2.05,2.05 0.86,0.51 1.8,0.76 2.82,0.76l5.64 0c1.02,0 1.96,-0.26 2.82,-0.76 0.86,-0.51 1.55,-1.19 2.05,-2.05 0.51,-0.86 0.76,-1.8 0.76,-2.82zm-5.64 -3.76c0.68,0 1.31,0.17 1.89,0.5 0.58,0.33 1.03,0.79 1.36,1.37 0.33,0.58 0.5,1.21 0.5,1.89 0,0.68 -0.17,1.31 -0.5,1.89 -0.33,0.58 -0.79,1.03 -1.36,1.36 -0.58,0.33 -1.21,0.5 -1.89,0.5 -0.68,0 -1.31,-0.17 -1.89,-0.5 -0.58,-0.33 -1.03,-0.79 -1.37,-1.36 -0.33,-0.58 -0.5,-1.21 -0.5,-1.89 0,-0.68 0.17,-1.31 0.5,-1.89 0.33,-0.58 0.79,-1.03 1.37,-1.37 0.58,-0.33 1.21,-0.5 1.89,-0.5z"/>
 </g>
</svg>
