<?xml version="1.0" encoding="UTF-8"?>
<!DOCTYPE svg PUBLIC "-//W3C//DTD SVG 1.1//EN" "http://www.w3.org/Graphics/SVG/1.1/DTD/svg11.dtd">

<svg xmlns="http://www.w3.org/2000/svg" xml:space="preserve" width="0.483823in" height="0.358811in" version="1.1" style="shape-rendering:geometricPrecision; text-rendering:geometricPrecision; image-rendering:optimizeQuality; fill-rule:evenodd; clip-rule:evenodd"
viewBox="6 3 16 12" fill="currentColor">

  <path class="fil1" d="M18.05 13.3c0.11,0.11 0.16,0.24 0.16,0.39 0,0.15 -0.05,0.28 -0.16,0.39l-0.64 0.64c-0.11,0.11 -0.24,0.16 -0.39,0.16 -0.15,0 -0.28,-0.05 -0.39,-0.16l-2.28 -2.28c-0.11,-0.11 -0.16,-0.24 -0.16,-0.39l0 -0.37c-0.85,0.67 -1.82,1 -2.91,1 -0.86,0 -1.66,-0.21 -2.38,-0.64 -0.72,-0.43 -1.29,-1 -1.72,-1.72 -0.43,-0.72 -0.64,-1.51 -0.64,-2.38 0,-0.87 0.21,-1.66 0.64,-2.38 0.43,-0.72 1,-1.29 1.72,-1.72 0.72,-0.43 1.51,-0.64 2.38,-0.64 0.87,0 1.66,0.21 2.38,0.64 0.72,0.43 1.29,1 1.72,1.72 0.43,0.72 0.64,1.51 0.64,2.38 0,1.09 -0.33,2.06 -1,2.91l0.37 0c0.15,0 0.28,0.05 0.39,0.16l2.28 2.28zm-6.76 -2.43c0.53,0 1.02,-0.13 1.47,-0.39 0.45,-0.26 0.8,-0.61 1.06,-1.06 0.26,-0.45 0.39,-0.94 0.39,-1.47 0,-0.53 -0.13,-1.02 -0.39,-1.47 -0.26,-0.45 -0.61,-0.8 -1.06,-1.06 -0.45,-0.26 -0.94,-0.39 -1.47,-0.39 -0.53,0 -1.02,0.13 -1.47,0.39 -0.45,0.26 -0.8,0.61 -1.06,1.06 -0.26,0.45 -0.39,0.94 -0.39,1.47 0,0.53 0.13,1.02 0.39,1.47 0.26,0.45 0.61,0.8 1.06,1.06 0.45,0.26 0.94,0.39 1.47,0.39z"/>

</svg>
