<?xml version="1.0" encoding="UTF-8"?>
<!DOCTYPE svg PUBLIC "-//W3C//DTD SVG 1.1//EN" "http://www.w3.org/Graphics/SVG/1.1/DTD/svg11.dtd">

<svg xmlns="http://www.w3.org/2000/svg" xml:space="preserve" width="0.210579in" height="0.210579in" version="1.1" style="shape-rendering:geometricPrecision; text-rendering:geometricPrecision; image-rendering:optimizeQuality; fill-rule:evenodd; clip-rule:evenodd"
viewBox="0 0 4.64 4.64"
fill="currentColor">
  <path d="M-0 2.28c0,0.12 0.04,0.22 0.13,0.31l1.92 1.92c0.08,0.08 0.19,0.13 0.31,0.13 0.12,0 0.22,-0.04 0.31,-0.13l1.85 -1.85c0.08,-0.08 0.13,-0.19 0.13,-0.31 0,-0.12 -0.04,-0.22 -0.13,-0.31l-1.92 -1.92c-0.08,-0.08 -0.19,-0.13 -0.31,-0.13l-1.85 0c-0.12,0 -0.22,0.04 -0.31,0.13 -0.08,0.08 -0.13,0.19 -0.13,0.31l0 1.85zm1.01 -1.7c0.12,0 0.22,0.04 0.31,0.13 0.08,0.08 0.13,0.19 0.13,0.31 0,0.12 -0.04,0.22 -0.13,0.31 -0.08,0.08 -0.19,0.13 -0.31,0.13 -0.12,0 -0.22,-0.04 -0.31,-0.13 -0.08,-0.08 -0.13,-0.19 -0.13,-0.31 0,-0.12 0.04,-0.22 0.13,-0.31 0.08,-0.08 0.19,-0.13 0.31,-0.13z"/>
</svg>
