<?xml version="1.0" encoding="UTF-8"?>
<!DOCTYPE svg PUBLIC "-//W3C//DTD SVG 1.1//EN" "http://www.w3.org/Graphics/SVG/1.1/DTD/svg11.dtd">
<svg xmlns="http://www.w3.org/2000/svg" xml:space="preserve" width="0.173976in" height="0.106087in" version="1.1" style="shape-rendering:geometricPrecision; text-rendering:geometricPrecision; image-rendering:optimizeQuality; fill-rule:evenodd; clip-rule:evenodd"
viewBox="0 0 3.41 2.08" fill="currentColor">
 <g id="Layer_x0020_1">
  <path d="M1.84 0.06c-0.04,-0.04 -0.08,-0.06 -0.13,-0.06 -0.06,0 -0.1,0.02 -0.14,0.06l-1.52 1.52c-0.04,0.04 -0.05,0.08 -0.05,0.13 0,0.05 0.02,0.1 0.05,0.13l0.17 0.17c0.04,0.04 0.08,0.06 0.14,0.06 0.05,0 0.1,-0.02 0.13,-0.05l1.21 -1.21 1.21 1.21c0.04,0.04 0.08,0.05 0.13,0.05 0.05,-0 0.1,-0.02 0.14,-0.06l0.17 -0.17c0.04,-0.04 0.05,-0.08 0.05,-0.13 0,-0.05 -0.02,-0.1 -0.05,-0.13l-1.52 -1.52z"/>
 </g>
</svg>
