<?xml version="1.0" encoding="UTF-8"?>
<!DOCTYPE svg PUBLIC "-//W3C//DTD SVG 1.1//EN" "http://www.w3.org/Graphics/SVG/1.1/DTD/svg11.dtd">

<svg xmlns="http://www.w3.org/2000/svg" xml:space="preserve" width="0.240862in" height="0.179685in" version="1.1" style="shape-rendering:geometricPrecision; text-rendering:geometricPrecision; image-rendering:optimizeQuality; fill-rule:evenodd; clip-rule:evenodd"
viewBox="0 0 35.82 26.72">
 <defs>
  <style type="text/css">
   <![CDATA[
    .fil0 {fill:white;fill-rule:nonzero}
   ]]>
  </style>
 </defs>
 <g id="Layer_x0020_1">

  <path class="fil0" d="M12.18 26.15c0.32,0.39 0.75,0.57 1.25,0.57 0.5,0 0.93,-0.18 1.25,-0.57l20.63 -20.56c0.32,-0.32 0.5,-0.75 0.5,-1.25 0,-0.5 -0.18,-0.93 -0.5,-1.25l-2.58 -2.51c-0.32,-0.39 -0.72,-0.57 -1.22,-0.57 -0.5,0 -0.93,0.18 -1.29,0.57l-16.8 16.76 -7.84 -7.81c-0.36,-0.39 -0.79,-0.57 -1.29,-0.57 -0.5,0 -0.9,0.18 -1.22,0.57l-2.58 2.51c-0.32,0.32 -0.5,0.75 -0.5,1.25 0,0.5 0.18,0.93 0.5,1.25l11.68 11.61z"/>
 </g>
</svg>
