<?xml version="1.0" encoding="UTF-8"?>
<!DOCTYPE svg PUBLIC "-//W3C//DTD SVG 1.1//EN" "http://www.w3.org/Graphics/SVG/1.1/DTD/svg11.dtd">
<svg xmlns="http://www.w3.org/2000/svg" xml:space="preserve" width="0.35987in" height="0.314886in" version="1.1" style="shape-rendering:geometricPrecision; text-rendering:geometricPrecision; image-rendering:optimizeQuality; fill-rule:evenodd; clip-rule:evenodd"
viewBox="0 0 10.56 9.24" fill="currentColor">
  <path d="M9.57 9.24c0.27,0 0.51,-0.09 0.71,-0.29 0.19,-0.19 0.29,-0.42 0.29,-0.7l0 -7.27c0,-0.27 -0.1,-0.51 -0.29,-0.7 -0.2,-0.19 -0.43,-0.29 -0.71,-0.29l-8.58 0c-0.27,0 -0.51,0.09 -0.71,0.29 -0.19,0.19 -0.29,0.42 -0.29,0.7l0 7.27c0,0.27 0.1,0.51 0.29,0.7 0.2,0.19 0.43,0.29 0.71,0.29l8.58 0zm-6.93 -7.42c0.23,0 0.43,0.08 0.59,0.24 0.16,0.16 0.23,0.35 0.23,0.59 0,0.23 -0.07,0.42 -0.23,0.58 -0.16,0.16 -0.36,0.24 -0.59,0.24 -0.23,0 -0.43,-0.08 -0.59,-0.24 -0.16,-0.16 -0.23,-0.35 -0.23,-0.58 0,-0.24 0.07,-0.43 0.23,-0.59 0.16,-0.16 0.36,-0.24 0.59,-0.24zm0 1.99c0.23,0 0.43,0.07 0.59,0.23 0.16,0.16 0.23,0.36 0.23,0.59 0,0.23 -0.07,0.43 -0.23,0.59 -0.16,0.16 -0.36,0.23 -0.59,0.23 -0.23,0 -0.43,-0.07 -0.59,-0.23 -0.16,-0.16 -0.23,-0.36 -0.23,-0.59 0,-0.23 0.07,-0.43 0.23,-0.59 0.16,-0.16 0.36,-0.23 0.59,-0.23zm0 1.97c0.23,0 0.43,0.08 0.59,0.24 0.16,0.16 0.23,0.35 0.23,0.59 0,0.23 -0.07,0.42 -0.23,0.58 -0.16,0.16 -0.36,0.24 -0.59,0.24 -0.23,0 -0.43,-0.08 -0.59,-0.24 -0.16,-0.16 -0.23,-0.35 -0.23,-0.58 0,-0.24 0.07,-0.43 0.23,-0.59 0.16,-0.16 0.36,-0.24 0.59,-0.24zm5.94 -2.8c0,0.06 -0.02,0.13 -0.06,0.17 -0.05,0.05 -0.11,0.07 -0.18,0.07l-4.13 0c-0.06,0 -0.13,-0.02 -0.17,-0.07 -0.05,-0.04 -0.07,-0.11 -0.07,-0.17l0 -0.67c0,-0.06 0.02,-0.13 0.07,-0.17 0.04,-0.05 0.11,-0.07 0.17,-0.07l4.13 0c0.07,0 0.13,0.02 0.18,0.07 0.04,0.04 0.06,0.11 0.06,0.17l0 0.67zm0 1.97c0,0.07 -0.02,0.13 -0.06,0.18 -0.05,0.04 -0.11,0.07 -0.18,0.07l-4.13 0c-0.06,0 -0.13,-0.03 -0.17,-0.07 -0.05,-0.05 -0.07,-0.11 -0.07,-0.18l0 -0.65c0,-0.07 0.02,-0.13 0.07,-0.18 0.04,-0.04 0.11,-0.07 0.17,-0.07l4.13 0c0.07,0 0.13,0.03 0.18,0.07 0.04,0.05 0.06,0.11 0.06,0.18l0 0.65zm0 1.99c0,0.06 -0.02,0.13 -0.06,0.17 -0.05,0.05 -0.11,0.07 -0.18,0.07l-4.13 0c-0.06,0 -0.13,-0.02 -0.17,-0.07 -0.05,-0.04 -0.07,-0.11 -0.07,-0.17l0 -0.67c0,-0.06 0.02,-0.13 0.07,-0.17 0.04,-0.05 0.11,-0.07 0.17,-0.07l4.13 0c0.07,0 0.13,0.02 0.18,0.07 0.04,0.04 0.06,0.11 0.06,0.17l0 0.67z"/>
</svg>
