<?xml version="1.0" encoding="UTF-8"?>
<!DOCTYPE svg PUBLIC "-//W3C//DTD SVG 1.1//EN" "http://www.w3.org/Graphics/SVG/1.1/DTD/svg11.dtd">
<svg xmlns="http://www.w3.org/2000/svg" xml:space="preserve" width="54px" height="40px" version="1.1" style="shape-rendering:geometricPrecision; text-rendering:geometricPrecision; image-rendering:optimizeQuality; fill-rule:evenodd; clip-rule:evenodd"
viewBox="0 0 78.993 59.245" fill="currentColor">
<path class="fil0" d="M77.453 19.59c0.303,-0.303 0.645,-0.356 1,-0.145 0.356,0.198 0.54,0.514 0.54,0.922l0 31.479c0,2.054 -0.724,3.805 -2.158,5.24 -1.436,1.435 -3.187,2.159 -5.254,2.159l-64.182 0c-2.054,0 -3.805,-0.724 -5.24,-2.159 -1.435,-1.435 -2.159,-3.186 -2.159,-5.24l0 -31.479c0,-0.408 0.184,-0.698 0.54,-0.856 0.355,-0.144 0.698,-0.118 1,0.079 3.397,2.581 11.323,8.387 23.764,17.444l1.54 1.383c2.475,1.856 4.424,3.186 5.859,4.016 2.476,1.329 4.74,2 6.794,2 2.053,0 4.318,-0.724 6.794,-2.158 1.54,-0.83 3.488,-2.16 5.858,-4.016l1.54 -1.225c12.139,-8.755 20.065,-14.561 23.764,-17.444zm-37.956 19.906c-1.343,0 -2.989,-0.619 -4.937,-1.856 -1.133,-0.606 -2.726,-1.738 -4.78,-3.383l-1.54 -1.08c-12.652,-9.268 -21.249,-15.641 -25.778,-19.142l-1.079 -0.764c-0.922,-0.725 -1.383,-1.699 -1.383,-2.936l0 -2.923c0,-2.067 0.724,-3.818 2.159,-5.253 1.435,-1.435 3.186,-2.159 5.24,-2.159l64.182 0c2.067,0 3.818,0.724 5.254,2.159 1.434,1.435 2.158,3.186 2.158,5.253l0 2.923c0,1.237 -0.46,2.211 -1.382,2.936l-0.776 0.618c-4.424,3.489 -13.114,9.927 -26.082,19.288l-1.54 1.08c-2.054,1.645 -3.647,2.777 -4.78,3.383 -1.948,1.237 -3.594,1.856 -4.936,1.856z"/>
</svg>
