<?xml version="1.0" encoding="UTF-8"?>
<!DOCTYPE svg PUBLIC "-//W3C//DTD SVG 1.1//EN" "http://www.w3.org/Graphics/SVG/1.1/DTD/svg11.dtd">

<svg xmlns="http://www.w3.org/2000/svg" xml:space="preserve" width="0.221449in" height="0.221453in" version="1.1" style="shape-rendering:geometricPrecision; text-rendering:geometricPrecision; image-rendering:optimizeQuality; fill-rule:evenodd; clip-rule:evenodd"
viewBox="0 0 4.6 4.6">
 <defs>
  <style type="text/css">
   <![CDATA[
    .fil0 {fill:#990000;fill-rule:nonzero}
   ]]>
  </style>
 </defs>
 <g id="Layer_x0020_1">

  <path class="fil0" d="M2.3 0c0.41,0 0.8,0.1 1.15,0.31 0.35,0.21 0.63,0.49 0.84,0.84 0.21,0.35 0.31,0.74 0.31,1.15 0,0.41 -0.1,0.8 -0.31,1.15 -0.21,0.35 -0.49,0.63 -0.84,0.84 -0.35,0.21 -0.74,0.31 -1.15,0.31 -0.41,0 -0.8,-0.1 -1.15,-0.31 -0.35,-0.21 -0.63,-0.49 -0.84,-0.84 -0.21,-0.35 -0.31,-0.74 -0.31,-1.15 0,-0.41 0.1,-0.8 0.31,-1.15 0.21,-0.35 0.49,-0.63 0.84,-0.84 0.35,-0.21 0.74,-0.31 1.15,-0.31zm1.13 2.9l-0.61 -0.6 0.61 -0.6c0.02,-0.02 0.03,-0.05 0.03,-0.08 0,-0.02 -0.01,-0.05 -0.03,-0.08l-0.37 -0.37c-0.02,-0.02 -0.04,-0.03 -0.07,-0.03 -0.03,0 -0.06,0.01 -0.09,0.03l-0.6 0.61 -0.6 -0.61c-0.02,-0.02 -0.05,-0.03 -0.08,-0.03 -0.02,0 -0.05,0.01 -0.08,0.03l-0.37 0.37c-0.02,0.02 -0.03,0.04 -0.03,0.07 0,0.03 0.01,0.06 0.03,0.09l0.61 0.6 -0.61 0.6c-0.02,0.02 -0.03,0.05 -0.03,0.08 0,0.02 0.01,0.05 0.03,0.08l0.37 0.37c0.02,0.02 0.04,0.03 0.07,0.03 0.03,0 0.06,-0.01 0.09,-0.03l0.6 -0.61 0.6 0.61c0.02,0.02 0.05,0.03 0.08,0.03 0.02,0 0.05,-0.01 0.08,-0.03l0.37 -0.37c0.02,-0.02 0.03,-0.04 0.03,-0.07 0,-0.03 -0.01,-0.06 -0.03,-0.09z"/>
 </g>
</svg>
