<?xml version="1.0" encoding="UTF-8"?>
<!DOCTYPE svg PUBLIC "-//W3C//DTD SVG 1.1//EN" "http://www.w3.org/Graphics/SVG/1.1/DTD/svg11.dtd">

<svg xmlns="http://www.w3.org/2000/svg" xml:space="preserve" width="0.234303in" height="0.234307in" version="1.1" style="shape-rendering:geometricPrecision; text-rendering:geometricPrecision; image-rendering:optimizeQuality; fill-rule:evenodd; clip-rule:evenodd"
viewBox="0 0 5.15 5.15">
 <defs>
  <style type="text/css">
   <![CDATA[
    .fil0 {fill:#58822E;fill-rule:nonzero}
   ]]>
  </style>
 </defs>
 <g id="Layer_x0020_1">

  <path class="fil0" d="M5.15 2.57c0,-0.46 -0.11,-0.89 -0.35,-1.29 -0.23,-0.39 -0.55,-0.71 -0.94,-0.94 -0.39,-0.23 -0.82,-0.35 -1.29,-0.35 -0.46,0 -0.89,0.11 -1.29,0.35 -0.39,0.23 -0.71,0.55 -0.94,0.94 -0.23,0.39 -0.35,0.82 -0.35,1.29 0,0.46 0.11,0.89 0.35,1.29 0.23,0.39 0.55,0.71 0.94,0.94 0.39,0.23 0.82,0.35 1.29,0.35 0.46,0 0.89,-0.11 1.29,-0.35 0.39,-0.23 0.71,-0.55 0.94,-0.94 0.23,-0.39 0.35,-0.82 0.35,-1.29zm-2.88 1.36c-0.03,0.03 -0.06,0.05 -0.11,0.05 -0.05,0 -0.09,-0.02 -0.12,-0.05l-1.08 -1.08c-0.03,-0.03 -0.05,-0.07 -0.05,-0.12 0,-0.05 0.02,-0.09 0.05,-0.11l0.23 -0.24c0.04,-0.04 0.07,-0.05 0.12,-0.05 0.04,0 0.09,0.02 0.12,0.05l0.73 0.73 1.56 -1.56c0.03,-0.04 0.07,-0.05 0.12,-0.05 0.05,0 0.09,0.02 0.12,0.05l0.23 0.24c0.03,0.03 0.05,0.06 0.05,0.11 0,0.05 -0.02,0.09 -0.05,0.11l-1.91 1.91z"/>
 </g>
</svg>
