<?xml version="1.0" encoding="UTF-8"?>
<!DOCTYPE svg PUBLIC "-//W3C//DTD SVG 1.1//EN" "http://www.w3.org/Graphics/SVG/1.1/DTD/svg11.dtd">
<svg xmlns="http://www.w3.org/2000/svg" xml:space="preserve" width="11.6929in" height="8.26772in" version="1.1" style="shape-rendering:geometricPrecision; text-rendering:geometricPrecision; image-rendering:optimizeQuality; fill-rule:evenodd; clip-rule:evenodd"
viewBox="0 0 11692.91 8267.72" fill="currentColor">
  <path class="fil0" d="M8400.46 3379.42l20.56 -20.41 -61.53 -61.53 -112.39 -112.39 -61.53 -61.53 -20.41 20.56 -40.97 40.97 -360.82 360.82c-18.86,18.86 -32.62,42.2 -40.19,67.71l-64.16 218.13c-4.64,15.31 -0.46,31.69 10.98,42.98 11.44,11.29 27.83,15.46 42.98,10.98l217.98 -64c25.51,-7.73 48.85,-21.49 67.71,-40.35l360.82 -360.82 40.97 -41.12zm-453.43 305.02l-16.54 41.12c-7.27,5.72 -15.31,9.89 -23.96,12.52l-141.76 41.74 41.74 -141.46c2.47,-8.96 6.8,-17.16 12.37,-24.11l41.28 -16.54 0 57.97c0,15.93 12.99,29.06 28.91,29.06l57.97 0 0 -0.31zm367.16 -689.64l-25.97 26.28 -40.96 40.97 -20.72 20.41 61.37 61.53 112.54 112.39 61.37 61.53 20.56 -20.56 40.97 -40.97 26.28 -26.28c45.3,-45.3 45.3,-118.57 0,-163.87l-71.27 -71.42c-45.3,-45.3 -118.57,-45.3 -163.87,0l-0.31 0zm-85.8 304.39l-260.95 260.8c-11.13,11.29 -29.69,11.29 -40.81,0 -11.28,-11.13 -11.28,-29.68 0,-40.81l260.8 -260.96c11.29,-11.28 29.68,-11.28 40.97,0 11.28,11.29 11.28,29.68 0,40.97z"/>
</svg>
