<?xml version="1.0" encoding="UTF-8"?>
<!DOCTYPE svg PUBLIC "-//W3C//DTD SVG 1.1//EN" "http://www.w3.org/Graphics/SVG/1.1/DTD/svg11.dtd">

<svg xmlns="http://www.w3.org/2000/svg" xml:space="preserve" width="0.297087in" height="0.263756in" version="1.1" style="shape-rendering:geometricPrecision; text-rendering:geometricPrecision; image-rendering:optimizeQuality; fill-rule:evenodd; clip-rule:evenodd"
viewBox="0 0 18.94 16.82">
 <defs>
  <style type="text/css">
   <![CDATA[
    .str0 {stroke:#2B2B2A;stroke-width:0.43;stroke-miterlimit:2.61313}
    .fil0 {fill:white}
    .fil1 {fill:black;fill-rule:nonzero}
   ]]>
  </style>
 </defs>
 <g id="Layer_x0020_1">

  <rect class="fil0 str0" x="7.14" y="5.26" width="4.57" height="10"/>
  <path class="fil1" d="M18.71 14.45l-7.85 -13.63c-0.2,-0.35 -0.49,-0.59 -0.84,-0.7 -0.37,-0.12 -0.72,-0.12 -1.09,0 -0.35,0.12 -0.64,0.35 -0.84,0.7l-7.85 13.63c-0.18,0.35 -0.23,0.7 -0.17,1.07 0.07,0.35 0.23,0.67 0.52,0.92 0.29,0.25 0.62,0.37 1.02,0.37l15.72 0c0.4,0 0.74,-0.12 1.02,-0.37 0.29,-0.25 0.45,-0.57 0.52,-0.92 0.07,-0.37 0.02,-0.72 -0.17,-1.07zm-9.25 -2.82c0.42,0 0.77,0.15 1.07,0.45 0.3,0.29 0.44,0.65 0.44,1.06 0,0.42 -0.13,0.77 -0.44,1.07 -0.3,0.29 -0.65,0.44 -1.07,0.44 -0.4,0 -0.76,-0.15 -1.06,-0.44 -0.3,-0.3 -0.44,-0.65 -0.44,-1.07 0,-0.4 0.13,-0.77 0.44,-1.06 0.3,-0.3 0.65,-0.45 1.06,-0.45zm-1.43 -5.4c0,-0.13 0.03,-0.23 0.1,-0.3 0.08,-0.08 0.17,-0.12 0.29,-0.12l2.1 0c0.12,0 0.2,0.03 0.29,0.12 0.07,0.07 0.1,0.17 0.1,0.3l-0.25 4.46c0,0.08 -0.03,0.17 -0.12,0.23 -0.08,0.08 -0.17,0.12 -0.29,0.12l-1.56 0c-0.12,0 -0.2,-0.03 -0.29,-0.12 -0.08,-0.07 -0.12,-0.15 -0.12,-0.23l-0.25 -4.46z"/>
 </g>
</svg>
