<?xml version="1.0" encoding="UTF-8"?>
<!DOCTYPE svg PUBLIC "-//W3C//DTD SVG 1.1//EN" "http://www.w3.org/Graphics/SVG/1.1/DTD/svg11.dtd">
<svg xmlns="http://www.w3.org/2000/svg" xml:space="preserve" width="50px" height="50px" version="1.1" style="shape-rendering:geometricPrecision; text-rendering:geometricPrecision; image-rendering:optimizeQuality; fill-rule:evenodd; clip-rule:evenodd"
viewBox="0 0 273.366 273.353" fill="currentColor">
  <path class="fil0" d="M145.247 273.353l0 -140.966c27.793,-19.408 60.917,-29.888 94.86,-29.888l16.173 0c9.431,0 17.086,7.655 17.086,17.086l0 108.392c0,8.746 -6.651,16.127 -15.352,16.993l-51.26 5.104c-12.391,1.23 -24.509,4.737 -35.674,10.297l-25.833 12.982z"/>
  <path class="fil0" d="M128.164 132.387l0 140.966 -25.878 -12.937c-11.165,-5.515 -23.192,-9.066 -35.629,-10.297l-51.256 -5.104c-8.75,-0.911 -15.401,-8.246 -15.401,-17.038l0 -108.392c0,-9.431 7.655,-17.086 17.086,-17.086l16.173 0c33.944,0 67.067,10.48 94.905,29.888z"/>
  <path class="fil0" d="M85.426 51.243c0,-18.313 9.75,-35.216 25.652,-44.376 15.856,-9.156 35.354,-9.156 51.256,0 15.856,9.16 25.607,26.063 25.607,44.376 0,18.317 -9.751,35.219 -25.607,44.379 -15.902,9.157 -35.4,9.157 -51.256,0 -15.902,-9.16 -25.652,-26.062 -25.652,-44.379z"/>
</svg>
