<?xml version="1.0" encoding="UTF-8"?>
<!DOCTYPE svg PUBLIC "-//W3C//DTD SVG 1.1//EN" "http://www.w3.org/Graphics/SVG/1.1/DTD/svg11.dtd">

<svg xmlns="http://www.w3.org/2000/svg" xml:space="preserve" width="0.348594in" height="0.348594in" version="1.1" style="shape-rendering:geometricPrecision; text-rendering:geometricPrecision; image-rendering:optimizeQuality; fill-rule:evenodd; clip-rule:evenodd"
viewBox="0 0 156.87 156.87" fill="currentColor">

 <g id="Layer_x0020_1">
  <path class="fil0" d="M78.43 0c14.14,0 27.21,3.54 39.22,10.58 12.04,7.07 21.57,16.63 28.64,28.64 7.07,12.01 10.58,25.1 10.58,39.22 0,14.12 -3.51,27.21 -10.58,39.22 -7.07,12.01 -16.6,21.56 -28.64,28.64 -12.01,7.04 -25.07,10.58 -39.22,10.58 -14.11,0 -27.21,-3.54 -39.22,-10.58 -12.01,-7.07 -21.57,-16.63 -28.61,-28.64 -7.07,-12.01 -10.61,-25.1 -10.61,-39.22 0,-14.11 3.54,-27.21 10.61,-39.22 7.04,-12.01 16.6,-21.57 28.61,-28.64 12.01,-7.04 25.1,-10.58 39.22,-10.58zm0 30.36c-7.58,0 -14.11,2.72 -19.59,8.2 -5.48,5.51 -8.23,12.04 -8.23,19.62 0,7.58 2.75,14.12 8.23,19.62 5.48,5.48 12.01,8.2 19.59,8.2 7.58,0 14.14,-2.72 19.62,-8.2 5.48,-5.51 8.2,-12.04 8.2,-19.62 0,-7.58 -2.72,-14.11 -8.2,-19.62 -5.48,-5.48 -12.04,-8.2 -19.62,-8.2zm0 108.8c9.07,0 17.68,-1.89 25.78,-5.69 8.12,-3.81 15.03,-9.07 20.73,-15.82 -3.16,-5.69 -7.48,-10.28 -12.98,-13.76 -5.48,-3.48 -11.58,-5.21 -18.33,-5.21 -0.65,0 -1.37,0.11 -2.21,0.32 -4.43,1.46 -8.77,2.21 -12.98,2.21 -4.21,0 -8.53,-0.75 -12.95,-2.21 -0.84,-0.22 -1.59,-0.32 -2.21,-0.32 -6.75,0 -12.87,1.73 -18.35,5.21 -5.48,3.48 -9.8,8.07 -12.95,13.76 5.69,6.75 12.58,12.01 20.7,15.82 8.12,3.81 16.71,5.69 25.77,5.69z"/>
 </g>
</svg>
