<?xml version="1.0" encoding="UTF-8"?>
<!DOCTYPE svg PUBLIC "-//W3C//DTD SVG 1.1//EN" "http://www.w3.org/Graphics/SVG/1.1/DTD/svg11.dtd">

<svg xmlns="http://www.w3.org/2000/svg" xml:space="preserve" width="0.314886in" height="0.35987in" version="1.1" style="shape-rendering:geometricPrecision; text-rendering:geometricPrecision; image-rendering:optimizeQuality; fill-rule:evenodd; clip-rule:evenodd"
viewBox="0 0 6.4 7.31"
  fill="currentColor">
 <defs>
  <style type="text/css">
   <![CDATA[
    .fil0 {fill:white;fill-rule:nonzero}
   ]]>
  </style>
 </defs>
 <g id="Layer_x0020_1">

  <path class="fil0" d="M5.71 3.66c0.19,0 0.35,0.07 0.49,0.2 0.13,0.14 0.2,0.3 0.2,0.49l0 2.28c0,0.19 -0.07,0.35 -0.2,0.49 -0.14,0.13 -0.3,0.2 -0.49,0.2l-5.02 0c-0.19,0 -0.35,-0.07 -0.49,-0.2 -0.13,-0.14 -0.2,-0.3 -0.2,-0.49l0 -2.28c0,-0.19 0.07,-0.35 0.2,-0.49 0.14,-0.13 0.3,-0.2 0.49,-0.2l0.34 0 0 -1.47c0,-0.39 0.1,-0.75 0.29,-1.09 0.19,-0.33 0.45,-0.6 0.78,-0.8 0.33,-0.2 0.69,-0.3 1.09,-0.3 0.39,0 0.75,0.1 1.09,0.29 0.34,0.2 0.6,0.46 0.79,0.79 0.2,0.34 0.29,0.69 0.29,1.09l0 0.23c0,0.1 -0.03,0.18 -0.1,0.24 -0.07,0.07 -0.15,0.1 -0.25,0.1l-0.45 0c-0.1,0 -0.18,-0.04 -0.24,-0.1 -0.07,-0.07 -0.1,-0.15 -0.1,-0.24l0 -0.23c0,-0.29 -0.1,-0.53 -0.31,-0.73 -0.2,-0.2 -0.45,-0.3 -0.72,-0.3 -0.29,0 -0.53,0.1 -0.72,0.31 -0.2,0.2 -0.3,0.45 -0.3,0.74l0 1.47 3.54 0zm-1.94 2.17l0 -0.69c0,-0.16 -0.06,-0.3 -0.17,-0.41 -0.11,-0.11 -0.24,-0.16 -0.41,-0.16 -0.16,0 -0.29,0.05 -0.4,0.16 -0.11,0.11 -0.17,0.25 -0.17,0.41l0 0.69c0,0.16 0.06,0.3 0.17,0.41 0.11,0.11 0.24,0.16 0.4,0.16 0.17,0 0.3,-0.05 0.41,-0.16 0.11,-0.11 0.17,-0.25 0.17,-0.41z"/>
 </g>
</svg>
