<?xml version="1.0" encoding="UTF-8" standalone="no"?>
<svg
  xmlns:svg="http://www.w3.org/2000/svg"
  xmlns="http://www.w3.org/2000/svg"
  version="1.1"
  width="94"
  height="128"
  viewBox="0 0 94 128"
  fill="currentColor">

  <mask id="hole">
    <!-- Everything under a white pixel will be visible -->
    <rect x="0" y="0" width="94" height="128" fill="white" />

    <!-- Everything under a black pixel will be invisible -->
    <path
      fill="black"
      d="m 57.079416,104.60778 a 34.203297,36.623341 0 1 1 0.852443,0.18252"
      transform="matrix(0.64629924,0,0,0.61681122,5.1261236,4.9013803)" />
  </mask>

  <g mask="url(#hole)">
    <path
      class="fil0"
      d="M 46.977003,126.64334 C 46.693972,125.95584 40.813862,120.20567 36.603071,114.98067 11.655836,81.858372 -16.158365,51.082905 16.319943,13.682837 30.700637,-0.21083367 48.43303,-1.0034227 66.662563,5.4726973 117.9922,35.174601 80.828906,83.627914 56.427079,115.48067 l -9.450076,11.16267 z M 62.417383,75.872046 C 96.654166,51.387445 70.185413,4.2391813 32.569429,19.913013 21.585178,25.769872 16.134954,35.960547 15.944071,47.980664 c -0.524495,11.693153 5.685418,21.471037 15.526227,27.460808 7.055481,3.840074 10.157178,4.533661 18.145697,4.057654 5.177622,-0.308516 8.161127,-1.153847 12.801388,-3.62708 z"
      id="path4127" />
    <path
      class="fil0"
      id="path4129"
      d="m 41.682107,89.891342 a 51.222816,41.754009 0 1 1 1.276617,0.208091"
      transform="matrix(0.87829487,0,0,1.0519028,0.55474126,-6.9952658)" />
  </g>
</svg>
