<?xml version="1.0" encoding="UTF-8"?>
<!DOCTYPE svg PUBLIC "-//W3C//DTD SVG 1.1//EN" "http://www.w3.org/Graphics/SVG/1.1/DTD/svg11.dtd">

<svg xmlns="http://www.w3.org/2000/svg" xml:space="preserve" width="0.297382in" height="0.297382in" version="1.1" style="shape-rendering:geometricPrecision; text-rendering:geometricPrecision; image-rendering:optimizeQuality; fill-rule:evenodd; clip-rule:evenodd"
viewBox="0 0 360.42 360.42"
  fill="currentColor">
 <defs>
  <style type="text/css">
   <![CDATA[
    .fil0 {fill:white;fill-rule:nonzero}
   ]]>
  </style>
 </defs>
 <g id="Layer_x0020_1">

  <path class="fil0" d="M360.42 180.21c0,-32.43 -8.13,-62.51 -24.31,-90.1 -16.24,-27.6 -38.2,-49.55 -65.79,-65.79 -27.59,-16.19 -57.67,-24.31 -90.1,-24.31 -32.43,0 -62.51,8.13 -90.11,24.31 -27.6,16.24 -49.55,38.2 -65.79,65.79 -16.19,27.59 -24.31,57.67 -24.31,90.1 0,32.43 8.13,62.51 24.31,90.11 16.24,27.59 38.2,49.55 65.79,65.79 27.59,16.19 57.67,24.31 90.11,24.31 32.43,0 62.51,-8.13 90.1,-24.31 27.6,-16.25 49.55,-38.2 65.79,-65.79 16.19,-27.59 24.31,-57.67 24.31,-90.11zm-201.29 95.19c-1.92,2.41 -4.59,3.66 -8,3.66 -3.35,0 -6.02,-1.24 -8.01,-3.66l-75.53 -75.6c-2.41,-1.92 -3.66,-4.59 -3.66,-7.94 0,-3.41 1.25,-6.07 3.66,-8l15.94 -16.74c2.42,-2.41 5.21,-3.66 8.37,-3.66 3.16,0 5.95,1.25 8.37,3.66l50.86 50.85 109.02 -108.96c2.42,-2.41 5.21,-3.66 8.37,-3.66 3.16,0 5.95,1.25 8.37,3.66l15.94 16.68c2.41,1.93 3.66,4.59 3.66,8 0,3.41 -1.25,6.07 -3.66,8l-133.7 133.7z"/>
 </g>
</svg>
