<?xml version="1.0" encoding="UTF-8"?>
<!DOCTYPE svg PUBLIC "-//W3C//DTD SVG 1.1//EN" "http://www.w3.org/Graphics/SVG/1.1/DTD/svg11.dtd">

<svg xmlns="http://www.w3.org/2000/svg" xml:space="preserve" width="0.234933in" height="0.234933in" version="1.1" style="shape-rendering:geometricPrecision; text-rendering:geometricPrecision; image-rendering:optimizeQuality; fill-rule:evenodd; clip-rule:evenodd"
viewBox="0 0 3.65 3.65">
 <defs>
  <style type="text/css">
   <![CDATA[
    .str0 {stroke:#ffcc00;stroke-width:0.1;stroke-miterlimit:2.61313}
    .fil0 {fill:#00162b}
    .fil1 {fill:#ffcc00;fill-rule:nonzero}
   ]]>
  </style>
 </defs>
 <g id="Layer_x0020_1">

  <ellipse class="fil0 str0" cx="1.83" cy="1.87" rx="1.15" ry="1.42"/>
  <path class="fil1" d="M3.65 1.83c0,-0.33 -0.08,-0.63 -0.25,-0.91 -0.16,-0.28 -0.39,-0.5 -0.67,-0.67 -0.28,-0.16 -0.58,-0.25 -0.91,-0.25 -0.33,0 -0.63,0.08 -0.91,0.25 -0.28,0.16 -0.5,0.39 -0.67,0.67 -0.16,0.28 -0.25,0.58 -0.25,0.91 0,0.33 0.08,0.63 0.25,0.91 0.16,0.28 0.39,0.5 0.67,0.67 0.28,0.16 0.58,0.25 0.91,0.25 0.33,0 0.63,-0.08 0.91,-0.25 0.28,-0.16 0.5,-0.39 0.67,-0.67 0.16,-0.28 0.25,-0.58 0.25,-0.91zm-1.78 -1.22c0.14,0 0.27,0.03 0.41,0.1 0.13,0.07 0.24,0.16 0.32,0.27 0.08,0.12 0.13,0.24 0.13,0.38 0,0.16 -0.05,0.29 -0.14,0.39 -0.05,0.06 -0.15,0.13 -0.27,0.21 -0.07,0.04 -0.12,0.07 -0.14,0.09 -0.04,0.03 -0.06,0.06 -0.06,0.1l0 0.01c0,0.02 -0.01,0.05 -0.03,0.06 -0.02,0.02 -0.04,0.03 -0.06,0.03l-0.41 0c-0.02,0 -0.05,-0.01 -0.06,-0.03 -0.02,-0.02 -0.03,-0.04 -0.03,-0.06l0 -0.03c0,-0.13 0.04,-0.24 0.13,-0.33 0.05,-0.05 0.14,-0.12 0.26,-0.18l0.02 -0.01c0.08,-0.05 0.14,-0.09 0.17,-0.11 0.04,-0.04 0.07,-0.09 0.07,-0.14 0,-0.07 -0.04,-0.13 -0.11,-0.17 -0.07,-0.05 -0.15,-0.07 -0.23,-0.07 -0.09,0 -0.17,0.02 -0.24,0.07 -0.04,0.03 -0.11,0.1 -0.18,0.19 -0.02,0.02 -0.03,0.03 -0.06,0.03 -0.02,0 -0.04,-0 -0.06,-0.02l-0.26 -0.19c-0.02,-0.01 -0.03,-0.03 -0.04,-0.06 -0,-0.02 0,-0.04 0.02,-0.06 0.1,-0.16 0.22,-0.27 0.35,-0.35 0.14,-0.08 0.31,-0.13 0.51,-0.13zm-0.05 1.83c0.09,0 0.17,0.03 0.24,0.1 0.07,0.07 0.1,0.15 0.1,0.24 0,0.09 -0.03,0.17 -0.1,0.24 -0.07,0.07 -0.15,0.1 -0.24,0.1 -0.09,0 -0.17,-0.03 -0.24,-0.1 -0.07,-0.07 -0.1,-0.15 -0.1,-0.24 0,-0.09 0.03,-0.17 0.1,-0.24 0.07,-0.07 0.15,-0.1 0.24,-0.1z"/>
 </g>
</svg>
