<?xml version="1.0" encoding="UTF-8"?>
<!DOCTYPE svg PUBLIC "-//W3C//DTD SVG 1.1//EN" "http://www.w3.org/Graphics/SVG/1.1/DTD/svg11.dtd">

<svg xmlns="http://www.w3.org/2000/svg" xml:space="preserve" width="0.252984in" height="0.252984in" version="1.1" style="shape-rendering:geometricPrecision; text-rendering:geometricPrecision; image-rendering:optimizeQuality; fill-rule:evenodd; clip-rule:evenodd"
viewBox="0 0 13.19 13.19" fill="currentColor">

  <path class="fil0" d="M6.6 0c1.19,0 2.29,0.3 3.3,0.89 1.01,0.59 1.81,1.4 2.41,2.41 0.59,1.01 0.89,2.11 0.89,3.3 0,1.19 -0.3,2.29 -0.89,3.3 -0.59,1.01 -1.4,1.81 -2.41,2.41 -1.01,0.59 -2.11,0.89 -3.3,0.89 -1.19,0 -2.29,-0.3 -3.3,-0.89 -1.01,-0.59 -1.81,-1.4 -2.41,-2.41 -0.59,-1.01 -0.89,-2.11 -0.89,-3.3 0,-1.19 0.3,-2.29 0.89,-3.3 0.59,-1.01 1.4,-1.81 2.41,-2.41 1.01,-0.59 2.11,-0.89 3.3,-0.89zm1.52 9.31c0.07,0.05 0.15,0.07 0.24,0.05 0.09,-0.02 0.16,-0.06 0.21,-0.13l0.74 -1.01c0.05,-0.07 0.08,-0.15 0.07,-0.24 -0.01,-0.09 -0.05,-0.16 -0.12,-0.21l-1.7 -1.22 0 -3.67c0,-0.09 -0.03,-0.16 -0.09,-0.22 -0.06,-0.06 -0.14,-0.09 -0.23,-0.09l-1.28 0c-0.09,0 -0.17,0.03 -0.23,0.09 -0.06,0.06 -0.09,0.14 -0.09,0.22l0 4.47c0,0.11 0.05,0.2 0.13,0.27l2.34 1.7z"/>

</svg>
