<?xml version="1.0" encoding="UTF-8"?>
<!DOCTYPE svg PUBLIC "-//W3C//DTD SVG 1.1//EN" "http://www.w3.org/Graphics/SVG/1.1/DTD/svg11.dtd">
<svg xmlns="http://www.w3.org/2000/svg" xml:space="preserve" width="0.372744in" height="0.289917in" version="1.1" style="shape-rendering:geometricPrecision; text-rendering:geometricPrecision; image-rendering:optimizeQuality; fill-rule:evenodd; clip-rule:evenodd"
viewBox="0 0 11.29 8.78" fill="currentColor">
  <path d="M10.62 0c0.18,-0.01 0.34,0.04 0.47,0.16 0.13,0.12 0.2,0.27 0.2,0.45l0 6.62c0,0.16 -0.06,0.29 -0.17,0.41 -0.11,0.12 -0.25,0.18 -0.42,0.18 -0.7,0.04 -1.37,0.12 -2,0.23 -0.93,0.16 -1.69,0.39 -2.29,0.69 -0.1,0.05 -0.21,0.05 -0.3,-0.01 -0.1,-0.06 -0.15,-0.14 -0.15,-0.25l0 -7.13c0,-0.12 0.05,-0.2 0.14,-0.26 0.59,-0.35 1.37,-0.63 2.35,-0.82 0.68,-0.14 1.4,-0.24 2.18,-0.27zm-5.43 1.1c0.09,0.05 0.14,0.14 0.14,0.26l0 7.13c0,0.11 -0.05,0.19 -0.15,0.25 -0.1,0.06 -0.2,0.06 -0.3,0.01 -0.6,-0.3 -1.36,-0.53 -2.29,-0.69 -0.63,-0.12 -1.29,-0.2 -2,-0.23 -0.17,0 -0.31,-0.06 -0.42,-0.18 -0.11,-0.12 -0.17,-0.26 -0.17,-0.43l0 -6.6c0,-0.18 0.07,-0.33 0.2,-0.45 0.13,-0.12 0.29,-0.17 0.47,-0.16 0.77,0.04 1.5,0.13 2.18,0.27 0.98,0.18 1.76,0.46 2.35,0.82z"/>
</svg>
