<?xml version="1.0" encoding="UTF-8"?>
<!DOCTYPE svg PUBLIC "-//W3C//DTD SVG 1.1//EN" "http://www.w3.org/Graphics/SVG/1.1/DTD/svg11.dtd">

<svg xmlns="http://www.w3.org/2000/svg" xml:space="preserve" width="0.645748in" height="0.645748in" version="1.1" style="shape-rendering:geometricPrecision; text-rendering:geometricPrecision; image-rendering:optimizeQuality; fill-rule:evenodd; clip-rule:evenodd"
viewBox="0 0 43.54 43.54" fill="currentColor">
 <g id="Layer_x0020_1">

  <path d="M21.26 25.87c-1.26,0 -2.34,-0.44 -3.22,-1.33 -0.89,-0.89 -1.33,-1.96 -1.33,-3.22l0 -7.58c0,-1.26 0.44,-2.34 1.33,-3.22 0.88,-0.89 1.96,-1.33 3.22,-1.33 1.27,0 2.34,0.44 3.22,1.33 0.89,0.89 1.33,1.96 1.33,3.22l0 7.58c0,1.27 -0.44,2.34 -1.33,3.22 -0.88,0.89 -1.96,1.33 -3.22,1.33zm7.58 -7.58c0.22,0 0.4,0.07 0.55,0.21 0.14,0.14 0.21,0.32 0.21,0.55l0 2.27c0,1.39 -0.32,2.68 -0.95,3.86 -0.63,1.18 -1.5,2.16 -2.61,2.94 -1.1,0.77 -2.32,1.25 -3.65,1.44l0 1.61 2.65 0c0.22,0 0.4,0.07 0.55,0.21 0.14,0.14 0.21,0.32 0.21,0.55l0 0.76c0,0.22 -0.07,0.4 -0.21,0.55 -0.14,0.14 -0.32,0.21 -0.55,0.21l-7.58 0c-0.22,0 -0.4,-0.07 -0.55,-0.21 -0.14,-0.14 -0.21,-0.32 -0.21,-0.55l0 -0.76c0,-0.22 0.07,-0.4 0.21,-0.55 0.14,-0.14 0.32,-0.21 0.55,-0.21l2.65 0 0 -1.61c-1.36,-0.19 -2.59,-0.7 -3.7,-1.52 -1.1,-0.82 -1.97,-1.86 -2.58,-3.11 -0.62,-1.25 -0.93,-2.58 -0.93,-4l0 -1.89c0,-0.22 0.07,-0.4 0.21,-0.55 0.14,-0.14 0.32,-0.21 0.54,-0.21l0.76 0c0.22,0 0.4,0.07 0.55,0.21 0.14,0.14 0.21,0.32 0.21,0.55l0 1.99c0,1.04 0.24,2.03 0.71,2.96 0.47,0.93 1.13,1.7 1.97,2.3 0.84,0.6 1.76,0.95 2.77,1.04 1.2,0.13 2.31,-0.07 3.32,-0.59 1.01,-0.52 1.83,-1.27 2.44,-2.23 0.61,-0.96 0.92,-2.03 0.92,-3.2l0 -2.27c0,-0.22 0.07,-0.4 0.21,-0.55 0.14,-0.14 0.32,-0.21 0.55,-0.21l0.76 0z"/>
 </g>
</svg>
