<?xml version="1.0" encoding="UTF-8"?>
<!DOCTYPE svg PUBLIC "-//W3C//DTD SVG 1.1//EN" "http://www.w3.org/Graphics/SVG/1.1/DTD/svg11.dtd">

<svg xmlns="http://www.w3.org/2000/svg" xml:space="preserve" width="0.239547in" height="0.243394in" version="1.1" style="shape-rendering:geometricPrecision; text-rendering:geometricPrecision; image-rendering:optimizeQuality; fill-rule:evenodd; clip-rule:evenodd"
viewBox="0 0 5.95 6.05">
 <defs>
  <style type="text/css">
   <![CDATA[
    .fil0 {fill:#E0AD12;fill-rule:nonzero}
   ]]>
  </style>
 </defs>
 <g id="Layer_x0020_1">

  <path class="fil0" d="M1.91 1.17c-0.38,0 -0.84,-0.13 -1.38,-0.38 -0.12,-0.06 -0.24,-0.05 -0.35,0.02 -0.12,0.07 -0.18,0.18 -0.18,0.32l0 2.87c0,0.13 0.06,0.24 0.17,0.31 0.46,0.32 0.95,0.49 1.44,0.49 0.19,0 0.39,-0.02 0.59,-0.07 0.12,-0.02 0.29,-0.08 0.51,-0.15 0.19,-0.06 0.33,-0.11 0.42,-0.13 0.16,-0.04 0.3,-0.06 0.44,-0.06 0.49,0 0.94,0.09 1.35,0.27l0 1.11c0,0.08 0.03,0.15 0.08,0.2 0.06,0.06 0.12,0.08 0.2,0.08l0.19 0c0.08,0 0.15,-0.03 0.2,-0.08 0.06,-0.06 0.08,-0.12 0.08,-0.2l0 -4.56c0.09,-0.06 0.16,-0.14 0.21,-0.24 0.05,-0.09 0.08,-0.2 0.08,-0.31 0,-0.19 -0.07,-0.35 -0.2,-0.48 -0.13,-0.13 -0.3,-0.19 -0.48,-0.18 -0.17,0.01 -0.32,0.07 -0.44,0.19 -0.12,0.12 -0.19,0.26 -0.19,0.42 -0.01,0.1 0.01,0.2 0.05,0.28 -0.26,-0.09 -0.53,-0.14 -0.8,-0.14 -0.19,0 -0.39,0.02 -0.59,0.07 -0.12,0.03 -0.29,0.08 -0.51,0.15 -0.19,0.06 -0.33,0.11 -0.43,0.13 -0.16,0.04 -0.3,0.06 -0.44,0.06z"/>
 </g>
</svg>
