<?xml version="1.0" encoding="UTF-8"?>
<svg id="Layer_1" data-name="Layer 1" xmlns="http://www.w3.org/2000/svg" viewBox="0 0 549.82 128">
  <defs>
    <style>
      .cls-1 {
        fill: #ffcf06;
      }

      .cls-2 {
        fill: #fff;
      }
    </style>
  </defs>
  <g>
    <path class="cls-2" d="M22.42,93.6h39.49v17.45h-62.18V16.94h22.69v76.66Z"/>
    <path class="cls-1" d="M89.56,101.3c0-3.19,1.15-5.81,3.46-7.85,2.3-2.05,5.18-3.07,8.63-3.07s6.32,1.02,8.63,3.07c2.3,2.05,3.46,4.67,3.46,7.85s-1.15,5.81-3.46,7.85c-2.31,2.05-5.18,3.07-8.63,3.07s-6.33-1.02-8.63-3.07c-2.31-2.05-3.46-4.66-3.46-7.85ZM110.64,81.26h-17.65l-2.78-64.31h23.2l-2.78,64.31Z"/>
    <path class="cls-2" d="M193.61,86.04c0-3.32-1.18-5.9-3.52-7.76-2.35-1.85-6.48-3.77-12.38-5.75-5.91-1.98-10.73-3.9-14.48-5.75-12.2-5.99-18.29-14.22-18.29-24.69,0-5.21,1.52-9.81,4.56-13.8,3.04-3.99,7.34-7.09,12.9-9.31,5.56-2.22,11.81-3.33,18.74-3.33s12.83,1.21,18.2,3.62c5.36,2.41,9.53,5.85,12.51,10.31,2.97,4.46,4.46,9.56,4.46,15.29h-22.62c0-3.83-1.18-6.81-3.52-8.92-2.35-2.11-5.53-3.17-9.53-3.17s-7.25.89-9.6,2.68c-2.35,1.79-3.52,4.06-3.52,6.82,0,2.41,1.29,4.6,3.88,6.56,2.59,1.96,7.13,3.99,13.64,6.08,6.51,2.09,11.85,4.34,16.03,6.75,10.17,5.86,15.25,13.94,15.25,24.24,0,8.23-3.1,14.7-9.31,19.39-6.21,4.7-14.72,7.05-25.53,7.05-7.63,0-14.53-1.37-20.72-4.1-6.18-2.74-10.84-6.48-13.96-11.25-3.13-4.76-4.69-10.24-4.69-16.45h22.75c0,5.04,1.3,8.76,3.91,11.15,2.61,2.39,6.84,3.59,12.7,3.59,3.75,0,6.71-.81,8.89-2.42,2.17-1.62,3.26-3.89,3.26-6.82Z"/>
    <path class="cls-2" d="M299.92,93.47h-31.09l-5.43,17.58h-24.24l34.52-94.11h21.33l34.77,94.11h-24.37l-5.49-17.58ZM274.26,75.96h20.23l-10.15-32.64-10.08,32.64Z"/>
  </g>
</svg>