<?xml version="1.0" encoding="UTF-8"?>
<!DOCTYPE svg PUBLIC "-//W3C//DTD SVG 1.1//EN" "http://www.w3.org/Graphics/SVG/1.1/DTD/svg11.dtd">
<svg xmlns="http://www.w3.org/2000/svg" xml:space="preserve" width="1.06052in" height="0.279114in" version="1.1" style="shape-rendering:geometricPrecision; text-rendering:geometricPrecision; image-rendering:optimizeQuality; fill-rule:evenodd; clip-rule:evenodd"
viewBox="0 0 1060.65 279.15">
 <defs>
  <style type="text/css">
   <![CDATA[
    .fil0 {fill:#DADADB;fill-rule:nonzero}
    .fil1 {fill:#E0AD12;fill-rule:nonzero}
    .fil2 {fill:#E0AD12;fill-rule:nonzero}
   ]]>
  </style>
 </defs>
 <g id="Layer_x0020_1">
  <path class="fil0" d="M759.02 274.57l78.57 0 19.29 -48.17 103.97 0 19.71 48.17 80.09 0 -114.8 -271.52 -72.04 0 -114.8 271.52 0.01 0zm119.79 -106.33l30.4 -76.62 29.98 76.62 -60.52 0 0.14 0z"/>
  <path class="fil0" d="M583.84 279.15c65.52,0 108.97,-32.76 108.97,-87.87l0 -0.83c0,-50.39 -38.45,-70.52 -100.5,-83.98 -37.34,-8.47 -46.64,-13.88 -46.64,-26.24l0 -0.83c0,-9.58 8.88,-17.35 26.93,-17.35 23.88,0 50.81,9.3 75.51,26.51l37.34 -52.75c-29.29,-23.46 -65.1,-35.81 -110.91,-35.81 -64.69,0 -104.39,36.23 -104.39,86.34l0 0.83c0,55.52 44.28,71.63 101.75,84.68 36.65,8.47 45.39,14.58 45.39,25.82l0 0.83c0,11.52 -10.83,18.46 -30.82,18.46 -31.23,0 -60.8,-11.1 -87.45,-32.34l-41.64 49.7c33.18,29.7 78.57,44.7 126.32,44.7l0.13 0.13z"/>
  <polygon class="fil1" points="296.09,189.06 371.18,189.06 371.18,4.86 296.09,4.86 "/>
  <polygon class="fil0" points="-0,274.57 205.3,274.57 205.3,209.05 74.68,209.05 74.68,4.86 -0,4.86 "/>
  <polygon class="fil2" points="296.09,208.22 371.18,208.22 371.18,276.51 296.09,276.51 "/>
 </g>
</svg>
