<?xml version="1.0" encoding="UTF-8"?>
<!DOCTYPE svg PUBLIC "-//W3C//DTD SVG 1.1//EN" "http://www.w3.org/Graphics/SVG/1.1/DTD/svg11.dtd">

<svg xmlns="http://www.w3.org/2000/svg" xml:space="preserve" width="701px" height="151px" version="1.1" style="shape-rendering:geometricPrecision; text-rendering:geometricPrecision; image-rendering:optimizeQuality; fill-rule:evenodd; clip-rule:evenodd"
viewBox="0 0 701.002 151.39">
 <defs>
  <style type="text/css">
   <![CDATA[
    .fil2 {fill:white}
    .fil1 {fill:white;fill-rule:nonzero}
    .fil0 {fill:#E0AD12;fill-rule:nonzero}
   ]]>
  </style>
 </defs>
 <g id="Layer_x0020_1">

  <polygon class="fil0" points="52.885,79.018 167.888,98.714 199.022,124.129 190.762,140.649 139.296,112.693 49.708,85.371 "/>
  <polygon class="fil1" points="276.939,10.464 286.859,10.464 286.859,65.96 276.939,65.96 "/>
  <path class="fil2" d="M293.747 63.438l0 -7.989c4.793,3.195 9.668,4.793 14.378,4.793 4.371,0 8.66,-1.427 8.66,-5.38 0,-3.112 -2.691,-4.455 -5.718,-5.636 -3.111,-1.344 -5.717,-2.437 -7.568,-3.278 -4.79,-2.27 -9.501,-5.801 -9.501,-11.689 0,-6.052 4.711,-11.771 15.891,-11.771 4.962,0 9.924,1.177 13.791,3.953l0 7.735c-3.449,-2.86 -8.578,-4.793 -13.2,-4.793 -4.036,0 -7.063,1.681 -7.063,4.457 0,2.437 2.691,4.372 6.98,6.221l7.232 3.28c4.036,1.852 8.66,4.12 8.66,10.93 0,7.401 -5.718,13.034 -17.827,13.034 -5.298,0 -10.93,-1.093 -14.714,-3.867l-0.001 0z"/>
  <polygon class="fil2" points="331.316,8.783 340.733,8.783 340.733,65.96 331.316,65.96 "/>
  <path class="fil2" d="M376.65 40.986c0,-6.808 -2.774,-11.519 -10.089,-11.519 -6.223,0 -10.848,3.363 -10.848,11.519l20.937 0zm-30.27 3.616c0,-13.115 5.802,-22.114 19.843,-22.114 11.52,0 18.92,6.223 18.92,19.676l0 5.298 -29.429 0c0,7.651 4.289,12.695 13.957,12.695 4.711,0 8.829,-1.177 14.379,-4.372l0 7.483c-3.784,2.438 -8.997,4.035 -15.806,4.035 -13.035,0 -21.864,-6.221 -21.864,-22.702l0 0.001z"/>
  <path class="fil2" d="M427.183 60.158c6.727,0 11.099,-4.877 11.099,-15.219 0,-8.578 -3.028,-15.221 -11.099,-15.221 -6.725,0 -11.099,4.878 -11.099,15.221 0,8.491 2.943,15.219 11.099,15.219zm-20.517 -15.219c0,-12.865 5.802,-22.45 20.518,-22.45 12.277,0 20.432,6.894 20.432,22.45 0,12.864 -5.717,22.365 -20.432,22.365 -12.275,0 -20.518,-6.811 -20.518,-22.365z"/>
  <path class="fil2" d="M480.458 9.708l0 7.566c-1.683,-1.01 -5.214,-2.69 -8.323,-2.69 -6.725,0 -6.725,6.56 -6.725,8.829l0 4.036 12.107 0 0 7.735 -12.107 0 0 30.776 -9.42 0 0 -30.776 -5.632 0 0 -7.735 5.632 0 0 -4.036c0,-4.708 0.086,-15.975 14.631,-15.975 4.036,0 7.904,0.925 9.839,2.27l-0.002 0z"/>
  <path class="fil2" d="M496.013 10.464l10.174 0c3.028,14.631 5.802,29.599 8.409,44.818l0.421 0c2.858,-14.462 6.39,-29.512 10.006,-44.818l9.753 0c3.445,14.714 7.063,29.764 9.922,44.818l0.504 0c2.523,-14.545 5.214,-29.512 8.41,-44.818l10.174 0 -11.521 55.496 -12.782 0c-3.614,-16.058 -6.642,-29.177 -9.416,-43.387l-0.335 0c-2.69,13.79 -5.633,26.823 -9.417,43.387l-12.781 0 -11.519 -55.496 -0.002 0z"/>
  <path class="fil2" d="M573.158 24.17c1.511,0 3.111,-0.169 4.707,-0.335l0 42.125 -9.416 0 0 -42.125c1.346,0.167 2.858,0.335 4.711,0.335l-0.002 0zm0 -13.621c3.784,0 5.548,1.514 5.548,4.54 0,2.858 -1.595,4.457 -5.548,4.457 -3.531,0 -5.466,-1.262 -5.466,-4.457 0,-2.69 1.344,-4.54 5.466,-4.54z"/>
  <path class="fil2" d="M603.393 59.654c8.241,0 11.688,-6.642 11.688,-15.05 0,-10.092 -5.213,-14.883 -11.605,-14.883 -7.82,0 -10.845,7.147 -10.845,15.555 0,5.887 1.595,14.378 10.761,14.378l0.001 0zm-16.566 18.751l0 -7.904c4.626,2.185 8.747,4.12 15.474,4.12 8.408,0 13.367,-4.457 13.367,-13.621l0 -2.27 -0.335 0c-2.943,4.626 -8.41,8.24 -15.134,8.24 -9.251,0 -16.816,-6.053 -16.816,-21.611 0,-14.208 6.472,-22.87 17.489,-22.87 5.633,0 10.595,2.27 14.295,7.903l0.421 0 0 -6.473 8.912 0 0 35.651c0,8.491 -2.185,22.114 -21.946,22.114 -6.39,0 -11.436,-1.427 -15.723,-3.28l-0.004 0.001z"/>
  <path class="fil2" d="M632.124 8.783l9.417 0 0 22.45 0.335 0c3.112,-5.213 7.653,-8.743 14.38,-8.743 7.818,0 13.202,4.707 13.202,16.647l0 26.823 -9.417 0 0 -23.46c0,-7.062 -2.189,-11.688 -7.988,-11.688 -4.373,0 -10.512,2.774 -10.512,13.958l0 21.19 -9.417 0 0 -57.177z"/>
  <path class="fil2" d="M679.646 47.797l0 -16.227 -6.98 0 0 -3.784c5.211,-3.11 8.829,-7.232 11.603,-14.21l4.793 0 0 10.34 11.94 0 0 7.653 -11.94 0 0 15.641c0,7.231 0,12.948 5.888,12.948 1.933,0 4.034,-0.673 5.886,-1.85l0 7.4c-1.262,0.673 -4.288,1.596 -8.158,1.596 -13.033,0 -13.033,-10.09 -13.033,-19.507l0.001 0z"/>
  <path class="fil2" d="M274.165 122.212c0,-17.407 7.147,-29.01 24.805,-29.01 6.39,0 12.78,1.515 18.245,5.297l0 9.333c-5.466,-3.698 -11.182,-5.801 -17.068,-5.801 -9.42,0 -15.808,5.634 -15.808,20.097 0,12.278 4.539,20.431 16.31,20.431 5.298,0 11.185,-1.428 17.322,-5.883l0 8.997c-3.994,3.077 -10.541,5.664 -18.743,5.717l-0.395 0c-14.475,-0.052 -24.669,-8.14 -24.669,-29.177l0.001 -0.001z"/>
  <path class="fil2" d="M342.129 144.242c6.725,0 11.099,-4.878 11.099,-15.22 0,-8.577 -3.028,-15.221 -11.099,-15.221 -6.727,0 -11.099,4.878 -11.099,15.221 0,8.491 2.941,15.22 11.099,15.22zm-20.517 -15.219c0,-12.865 5.8,-22.452 20.518,-22.452 12.275,0 20.43,6.894 20.43,22.452 0,12.865 -5.717,22.366 -20.43,22.366 -12.278,0 -20.518,-6.812 -20.518,-22.366z"/>
  <path class="fil2" d="M367.932 135.665l0 -27.665 9.42 0 0 24.553c0,3.7 0.333,11.52 7.229,11.52 5.632,0 9.25,-5.211 10.678,-9.67l0 -26.403 9.417 0 0 42.044 -9.08 0 0 -7.571 -0.338 0c-2.69,5.047 -7.483,8.915 -14.629,8.915 -11.269,0 -12.7,-10.09 -12.7,-15.723l0.003 0z"/>
  <path class="fil2" d="M412.378 108l9.249 0 0 7.316 0.421 0c3.028,-5.215 7.652,-8.743 14.379,-8.743 7.904,0 13.286,4.707 13.286,16.647l0 26.822 -9.417 0 0 -23.458c0,-7.063 -2.188,-11.687 -7.988,-11.687 -4.373,0 -10.512,2.772 -10.512,13.957l0 21.188 -9.417 0 0 -42.041 -0.001 -0.001z"/>
  <path class="fil2" d="M455.049 129.106c0,-13.708 6.474,-22.535 20.348,-22.535 4.961,0 10.006,1.179 14.548,4.036l0 8.156c-3.784,-2.607 -8.491,-4.542 -13.202,-4.542 -6.977,0 -12.275,4.122 -12.275,14.714 0,8.912 3.784,14.883 12.864,14.883 4.289,0 8.915,-1.514 13.453,-4.54l0 7.989c-3.447,2.354 -8.322,4.12 -14.798,4.12 -12.194,0 -20.938,-6.39 -20.938,-22.283l0 0.002z"/>
  <path class="fil2" d="M500.613 108.252c1.512,0 3.11,-0.169 4.707,-0.335l0 42.125 -9.417 0 0 -42.125c1.347,0.167 2.859,0.335 4.709,0.335l0.001 0zm0 -13.621c3.784,0 5.548,1.514 5.548,4.54 0,2.858 -1.595,4.457 -5.548,4.457 -3.532,0 -5.467,-1.262 -5.467,-4.457 0,-2.69 1.345,-4.54 5.467,-4.54z"/>
  <polygon class="fil2" points="512.97,92.867 522.388,92.867 522.388,150.044 512.97,150.044 "/>
  <path class="fil2" d="M13.823 82.683c0.03,-4.501 -0.648,-8.077 -1.29,-10.434 -0.432,-1.585 -2.393,-2.117 -3.565,-0.97 -3.424,3.355 -6.408,7.362 -8.676,11.232 -0.844,1.444 0.249,3.262 1.918,3.198 2.303,-0.086 6.19,-0.144 8.8,-0.177 1.56,-0.018 2.803,-1.29 2.813,-2.85l0 0.001z"/>
  <path class="fil2" d="M29.386 67.28c-4.147,4.274 -7.656,9.357 -10.088,14.049 -1.017,1.958 0.348,4.322 2.552,4.407 3.447,0.134 6.879,0.327 10.298,0.577 1.65,0.123 3.072,-1.093 3.24,-2.739 0.641,-6.349 -0.057,-11.479 -0.861,-14.903 -0.552,-2.345 -3.464,-3.121 -5.141,-1.393l0 0.002z"/>
  <path class="fil2" d="M194.38 125.796c-1.3,2.388 -2.529,4.81 -3.688,7.261 -0.812,1.724 -2.966,2.301 -4.558,1.247 -38.283,-25.38 -81.482,-42.519 -127.624,-49.228 -0.937,-0.136 -0.803,-1.527 0.142,-1.476 47.433,2.525 94.855,15.916 134.5,37.987 1.489,0.827 2.042,2.714 1.228,4.208l0 0.001zm56.01 -50.76c-17.682,-31.049 -46.922,-57.094 -83.389,-74.721 -2.31,-1.116 -4.906,0.905 -4.392,3.419 3.531,17.303 5.969,35.068 7.212,53.207 -4.289,-17.35 -9.704,-34.179 -16.138,-50.395 -1.741,-4.385 -6.678,-6.536 -11.107,-4.91 -45.119,16.571 -81.67,45.248 -102.966,80.757 -1.292,2.154 0.066,4.943 2.562,5.243 52.024,6.249 100.416,26.012 142.282,56.074 4.544,3.264 10.93,1.585 13.286,-3.488 4.794,-10.307 10.874,-20.056 18.301,-29.058 9.353,-11.336 20.27,-20.809 32.372,-28.441 2.599,-1.64 3.497,-5.017 1.976,-7.688l0.001 0.001z"/>
 </g>
</svg>
