<?xml version="1.0" encoding="UTF-8"?>
<!DOCTYPE svg PUBLIC "-//W3C//DTD SVG 1.1//EN" "http://www.w3.org/Graphics/SVG/1.1/DTD/svg11.dtd">
<svg xmlns="http://www.w3.org/2000/svg" xml:space="preserve" width="1.31233in" height="0.436531in" version="1.1" style="shape-rendering:geometricPrecision; text-rendering:geometricPrecision; image-rendering:optimizeQuality; fill-rule:evenodd; clip-rule:evenodd"
viewBox="0 0 110.18 36.65">
 <defs>
  <style type="text/css">
   <![CDATA[
    .fil0 {fill:#FEFEFD}
    .fil1 {fill:white;fill-rule:nonzero}
   ]]>
  </style>
 </defs>
 <path class="fil0" d="M30.44 36.02l-26.58 0.01c3.89,-1.8 8.34,-2.98 13.27,-2.97 3.4,0 10.96,1.16 13.32,2.96zm-29.81 -32.1c0.61,0.16 5.42,1.96 5.9,2.25l0.01 24.75 -5.93 2.24 0.02 -29.24zm26.89 2.36c2.66,-0.81 4.32,-1.8 5.99,-2.37l-0.01 29.24c-0.72,-0.18 -3.69,-1.68 -6.01,-2.36l0.03 -24.51zm-17.23 0.88c0.84,0.02 2.18,0.32 3.15,0.42 4.64,0.47 6.02,-0.03 10.31,-0.39l-0.01 22.68c-2.39,-0.15 -4.33,-0.58 -6.92,-0.56 -2.42,0.02 -4.41,0.49 -6.56,0.59l0.02 -22.74zm20.08 -6.03c-1.08,0.74 -4.51,1.75 -6.06,2.07 -12.77,2.66 -19.1,-2.09 -20.52,-2.1 1.61,-0.24 26.37,-0.06 26.58,0.04zm-30.35 35.5l34.1 -0.01 -0.06 -36.19 -34.07 0 0.03 36.2z"/>
 <polygon class="fil1" points="46.82,10.48 43.55,2.54 43.51,2.54 43.51,10.48 42.31,10.48 42.31,0.25 43.87,0.25 47.09,8.2 47.13,8.2 47.13,0.25 48.33,0.25 48.33,10.48 "/>
 <path id="_1" class="fil1" d="M55.03 10.48l-0.58 -2.4 -2.96 0 -0.59 2.4 -1.32 0 2.57 -10.23 1.72 0 2.52 10.23 -1.36 0zm-2.01 -9.02l-0.06 0 -1.3 5.59 2.62 0 -1.26 -5.59z"/>
 <polygon id="_2" class="fil1" points="59.48,1.36 59.48,10.48 58.19,10.48 58.19,1.36 56.24,1.36 56.24,0.25 61.43,0.25 61.43,1.36 "/>
 <polygon id="_3" class="fil1" points="62.56,10.48 62.56,0.25 63.86,0.25 63.86,10.48 "/>
 <path id="_4" class="fil1" d="M72.68 5.35c0,0.8 -0.07,1.53 -0.23,2.18 -0.16,0.67 -0.39,1.23 -0.69,1.71 -0.3,0.48 -0.68,0.84 -1.1,1.1 -0.43,0.26 -0.93,0.39 -1.47,0.39 -0.55,0 -1.04,-0.13 -1.47,-0.39 -0.43,-0.26 -0.79,-0.62 -1.1,-1.1 -0.3,-0.48 -0.53,-1.04 -0.69,-1.71 -0.16,-0.65 -0.25,-1.39 -0.25,-2.18 0,-0.79 0.07,-1.53 0.23,-2.2 0.16,-0.65 0.38,-1.21 0.68,-1.69 0.3,-0.46 0.67,-0.82 1.11,-1.08 0.43,-0.25 0.93,-0.38 1.49,-0.38 0.55,0 1.04,0.13 1.47,0.38 0.42,0.26 0.8,0.62 1.1,1.08 0.3,0.48 0.53,1.04 0.69,1.69 0.16,0.67 0.23,1.4 0.23,2.2zm-1.37 0c0,-0.58 -0.04,-1.13 -0.13,-1.63 -0.1,-0.51 -0.23,-0.95 -0.4,-1.33 -0.19,-0.38 -0.4,-0.68 -0.67,-0.9 -0.27,-0.22 -0.58,-0.32 -0.93,-0.32 -0.36,0 -0.67,0.1 -0.94,0.32 -0.27,0.22 -0.49,0.52 -0.66,0.9 -0.19,0.38 -0.32,0.82 -0.4,1.33 -0.09,0.51 -0.13,1.06 -0.13,1.63 0,0.58 0.04,1.13 0.13,1.63 0.09,0.51 0.22,0.95 0.4,1.33 0.17,0.38 0.39,0.67 0.66,0.88 0.27,0.22 0.58,0.33 0.94,0.33 0.35,0 0.65,-0.12 0.93,-0.33 0.26,-0.22 0.48,-0.51 0.67,-0.88 0.17,-0.38 0.3,-0.82 0.4,-1.33 0.09,-0.51 0.13,-1.06 0.13,-1.63z"/>
 <polygon id="_5" class="fil1" points="79,10.48 75.73,2.54 75.69,2.54 75.69,10.48 74.49,10.48 74.49,0.25 76.05,0.25 79.27,8.2 79.31,8.2 79.31,0.25 80.51,0.25 80.51,10.48 "/>
 <path id="_6" class="fil1" d="M87.21 10.48l-0.58 -2.4 -2.96 0 -0.59 2.4 -1.32 0 2.57 -10.23 1.72 0 2.52 10.23 -1.36 0zm-2.01 -9.02l-0.06 0 -1.3 5.59 2.62 0 -1.26 -5.59z"/>
 <polygon id="_7" class="fil1" points="89.81,10.48 89.81,0.25 91.11,0.25 91.11,9.27 94,9.27 94,10.48 "/>
 <path id="_8" class="fil1" d="M48.49 20.85c0,1.66 -0.33,2.92 -1.01,3.79 -0.68,0.88 -1.62,1.32 -2.83,1.32l-2.34 0 0 -10.23 2.36 0c1.21,0 2.15,0.43 2.83,1.32 0.67,0.88 1,2.15 1,3.82zm-1.3 0c0,-0.68 -0.06,-1.26 -0.19,-1.76 -0.13,-0.51 -0.32,-0.91 -0.53,-1.24 -0.23,-0.33 -0.51,-0.58 -0.81,-0.74 -0.32,-0.16 -0.65,-0.25 -1.01,-0.25l-1.06 0 0 7.95 1.06 0c0.36,0 0.69,-0.09 1.01,-0.25 0.3,-0.16 0.58,-0.4 0.81,-0.74 0.22,-0.33 0.4,-0.74 0.53,-1.24 0.13,-0.49 0.19,-1.07 0.19,-1.73z"/>
 <polygon id="_9" class="fil1" points="50.3,25.95 50.3,15.72 51.6,15.72 51.6,25.95 "/>
 <path id="_10" class="fil1" d="M57.02 15.47c0.55,0 1.04,0.1 1.46,0.3 0.42,0.2 0.78,0.51 1.06,0.93l-0.81 0.88c-0.22,-0.3 -0.46,-0.53 -0.74,-0.69 -0.27,-0.16 -0.58,-0.23 -0.91,-0.23 -0.39,0 -0.74,0.12 -1.01,0.33 -0.29,0.22 -0.53,0.52 -0.72,0.9 -0.19,0.39 -0.33,0.82 -0.42,1.33 -0.1,0.51 -0.14,1.04 -0.14,1.6 0,0.59 0.06,1.13 0.16,1.63 0.1,0.51 0.25,0.95 0.45,1.32 0.19,0.38 0.43,0.67 0.74,0.88 0.3,0.22 0.65,0.32 1.06,0.32 0.54,0 0.95,-0.12 1.23,-0.35l0 -3.17 -1.34 0 0 -1.13 2.6 0 0 4.99c-0.3,0.25 -0.65,0.45 -1.04,0.59 -0.4,0.16 -0.9,0.23 -1.47,0.23 -0.59,0 -1.11,-0.13 -1.58,-0.39 -0.46,-0.25 -0.85,-0.61 -1.17,-1.07 -0.33,-0.46 -0.58,-1.03 -0.74,-1.68 -0.17,-0.65 -0.26,-1.39 -0.26,-2.18 0,-0.77 0.09,-1.49 0.25,-2.14 0.16,-0.65 0.4,-1.21 0.71,-1.69 0.3,-0.48 0.69,-0.84 1.14,-1.11 0.45,-0.27 0.95,-0.4 1.52,-0.4z"/>
 <polygon id="_11" class="fil1" points="61.68,25.95 61.68,15.72 62.98,15.72 62.98,25.95 "/>
 <polygon id="_12" class="fil1" points="67.34,16.83 67.34,25.95 66.06,25.95 66.06,16.83 64.11,16.83 64.11,15.72 69.3,15.72 69.3,16.83 "/>
 <path id="_13" class="fil1" d="M74.6 25.95l-0.58 -2.4 -2.96 0 -0.59 2.4 -1.32 0 2.57 -10.23 1.72 0 2.52 10.23 -1.36 0zm-2.01 -9.02l-0.06 0 -1.3 5.59 2.62 0 -1.26 -5.59z"/>
 <polygon id="_14" class="fil1" points="77.2,25.95 77.2,15.72 78.5,15.72 78.5,24.74 81.4,24.74 81.4,25.95 "/>
 <polygon id="_15" class="fil1" points="86.76,16.83 86.76,25.95 85.47,25.95 85.47,16.83 83.52,16.83 83.52,15.72 88.71,15.72 88.71,16.83 "/>
 <polygon id="_16" class="fil1" points="97.31,25.95 95.65,25.95 94.12,17.67 94.09,17.67 92.56,25.95 90.89,25.95 88.93,15.72 90.26,15.72 91.76,24.25 91.8,24.25 93.38,15.72 94.9,15.72 96.5,24.25 96.53,24.25 98.02,15.72 99.29,15.72 "/>
 <polygon id="_17" class="fil1" points="100.59,25.95 100.59,15.72 101.89,15.72 101.89,25.95 "/>
 <polygon id="_18" class="fil1" points="108.66,25.95 105.39,18.02 105.35,18.02 105.35,25.95 104.15,25.95 104.15,15.72 105.71,15.72 108.93,23.67 108.98,23.67 108.98,15.72 110.18,15.72 110.18,25.95 "/>
 <path id="_19" class="fil1" d="M44.6 32.21c0,0.26 -0.04,0.49 -0.12,0.69 -0.08,0.2 -0.18,0.36 -0.31,0.49 -0.13,0.13 -0.28,0.23 -0.45,0.3 -0.17,0.07 -0.35,0.1 -0.53,0.1l-0.74 0 0 2.33 -0.68 0 0 -5.44 1.38 0c0.16,0 0.33,0.02 0.51,0.07 0.17,0.05 0.32,0.14 0.46,0.25 0.14,0.12 0.25,0.28 0.35,0.47 0.08,0.2 0.13,0.45 0.13,0.74zm-0.68 0.01c0,-0.33 -0.08,-0.57 -0.23,-0.72 -0.15,-0.15 -0.35,-0.22 -0.6,-0.22l-0.62 0 0 1.94 0.62 0c0.25,0 0.45,-0.08 0.6,-0.25 0.15,-0.16 0.23,-0.42 0.23,-0.75z"/>
 <path id="_20" class="fil1" d="M47.66 36.12l-0.92 -2.43 -0.63 0 0 2.43 -0.68 0 0 -5.44 1.41 0c0.2,0 0.39,0.02 0.57,0.08 0.18,0.05 0.33,0.15 0.46,0.26 0.13,0.12 0.24,0.27 0.31,0.46 0.08,0.19 0.12,0.42 0.12,0.68 0,0.22 -0.03,0.41 -0.08,0.58 -0.05,0.16 -0.13,0.3 -0.22,0.41 -0.09,0.12 -0.19,0.21 -0.3,0.28 -0.11,0.07 -0.22,0.11 -0.31,0.13l1.01 2.56 -0.74 0zm-0.05 -3.93c0,-0.18 -0.02,-0.34 -0.08,-0.45 -0.05,-0.12 -0.12,-0.22 -0.2,-0.28 -0.08,-0.07 -0.18,-0.12 -0.28,-0.15 -0.11,-0.02 -0.22,-0.04 -0.32,-0.04l-0.62 0 0 1.89 0.64 0c0.26,0 0.47,-0.08 0.63,-0.25 0.16,-0.16 0.24,-0.4 0.24,-0.71z"/>
 <path id="_21" class="fil1" d="M52.7 33.39c0,0.42 -0.04,0.81 -0.12,1.16 -0.08,0.35 -0.21,0.65 -0.37,0.91 -0.16,0.25 -0.36,0.45 -0.58,0.58 -0.23,0.14 -0.49,0.21 -0.78,0.21 -0.29,0 -0.55,-0.07 -0.78,-0.21 -0.23,-0.14 -0.42,-0.33 -0.58,-0.58 -0.16,-0.25 -0.28,-0.55 -0.37,-0.91 -0.08,-0.35 -0.13,-0.74 -0.13,-1.16 0,-0.42 0.04,-0.81 0.12,-1.17 0.08,-0.35 0.2,-0.65 0.36,-0.9 0.16,-0.25 0.35,-0.44 0.59,-0.58 0.23,-0.13 0.49,-0.2 0.79,-0.2 0.29,0 0.55,0.07 0.78,0.2 0.22,0.14 0.42,0.33 0.58,0.58 0.16,0.25 0.28,0.55 0.37,0.9 0.08,0.35 0.12,0.75 0.12,1.17zm-0.73 0c0,-0.31 -0.02,-0.6 -0.07,-0.87 -0.05,-0.27 -0.12,-0.51 -0.22,-0.71 -0.1,-0.2 -0.22,-0.36 -0.35,-0.48 -0.15,-0.12 -0.31,-0.17 -0.49,-0.17 -0.19,0 -0.35,0.05 -0.5,0.17 -0.15,0.12 -0.26,0.28 -0.35,0.48 -0.1,0.2 -0.17,0.44 -0.22,0.71 -0.05,0.27 -0.07,0.56 -0.07,0.87 0,0.31 0.02,0.6 0.07,0.87 0.05,0.27 0.12,0.51 0.22,0.71 0.09,0.2 0.21,0.35 0.35,0.47 0.15,0.12 0.31,0.18 0.5,0.18 0.18,0 0.35,-0.06 0.49,-0.18 0.14,-0.12 0.25,-0.27 0.35,-0.47 0.09,-0.2 0.16,-0.44 0.22,-0.71 0.05,-0.27 0.07,-0.56 0.07,-0.87z"/>
 <path id="_22" class="fil1" d="M55.34 30.55c0.29,0 0.55,0.05 0.78,0.16 0.22,0.11 0.41,0.27 0.56,0.49l-0.43 0.47c-0.12,-0.16 -0.25,-0.28 -0.39,-0.37 -0.15,-0.08 -0.31,-0.12 -0.48,-0.12 -0.21,0 -0.39,0.06 -0.54,0.18 -0.15,0.12 -0.28,0.28 -0.38,0.48 -0.1,0.21 -0.18,0.44 -0.22,0.71 -0.05,0.27 -0.08,0.55 -0.08,0.85 0,0.32 0.03,0.6 0.08,0.87 0.05,0.27 0.13,0.51 0.24,0.7 0.1,0.2 0.23,0.35 0.39,0.47 0.16,0.12 0.35,0.17 0.56,0.17 0.28,0 0.51,-0.06 0.65,-0.18l0 -1.68 -0.71 0 0 -0.6 1.38 0 0 2.65c-0.16,0.13 -0.35,0.24 -0.55,0.31 -0.22,0.08 -0.48,0.12 -0.78,0.12 -0.31,0 -0.59,-0.07 -0.84,-0.21 -0.25,-0.13 -0.45,-0.32 -0.62,-0.57 -0.18,-0.25 -0.31,-0.55 -0.39,-0.89 -0.09,-0.35 -0.14,-0.74 -0.14,-1.16 0,-0.41 0.05,-0.79 0.13,-1.14 0.08,-0.35 0.22,-0.65 0.38,-0.9 0.16,-0.25 0.37,-0.45 0.61,-0.59 0.24,-0.15 0.51,-0.22 0.81,-0.22z"/>
 <path id="_23" class="fil1" d="M60.05 36.12l-0.92 -2.43 -0.63 0 0 2.43 -0.68 0 0 -5.44 1.41 0c0.2,0 0.39,0.02 0.57,0.08 0.18,0.05 0.33,0.15 0.46,0.26 0.13,0.12 0.24,0.27 0.31,0.46 0.08,0.19 0.12,0.42 0.12,0.68 0,0.22 -0.03,0.41 -0.08,0.58 -0.05,0.16 -0.13,0.3 -0.22,0.41 -0.09,0.12 -0.19,0.21 -0.3,0.28 -0.11,0.07 -0.22,0.11 -0.31,0.13l1.01 2.56 -0.74 0zm-0.05 -3.93c0,-0.18 -0.02,-0.34 -0.08,-0.45 -0.05,-0.12 -0.12,-0.22 -0.2,-0.28 -0.08,-0.07 -0.18,-0.12 -0.28,-0.15 -0.11,-0.02 -0.22,-0.04 -0.32,-0.04l-0.62 0 0 1.89 0.64 0c0.26,0 0.47,-0.08 0.63,-0.25 0.16,-0.16 0.24,-0.4 0.24,-0.71z"/>
 <path id="_24" class="fil1" d="M63.96 36.12l-0.31 -1.28 -1.58 0 -0.31 1.28 -0.7 0 1.37 -5.44 0.91 0 1.34 5.44 -0.72 0zm-1.07 -4.8l-0.03 0 -0.69 2.97 1.39 0 -0.67 -2.97z"/>
 <polygon id="_25" class="fil1" points="69.06,36.12 69.06,31.62 69.04,31.62 67.83,36.12 67.2,36.12 66,31.62 65.98,31.62 65.98,36.12 65.34,36.12 65.34,30.68 66.36,30.68 67.52,35 67.55,35 68.69,30.68 69.75,30.68 69.75,36.12 "/>
 <polygon id="_26" class="fil1" points="74.67,36.12 74.67,31.62 74.64,31.62 73.43,36.12 72.81,36.12 71.61,31.62 71.58,31.62 71.58,36.12 70.95,36.12 70.95,30.68 71.96,30.68 73.12,35 73.15,35 74.29,30.68 75.35,30.68 75.35,36.12 "/>
 <polygon id="_27" class="fil1" points="76.55,36.12 76.55,30.68 78.84,30.68 78.84,31.29 77.22,31.29 77.22,33.01 78.73,33.01 78.73,33.58 77.22,33.58 77.22,35.5 78.92,35.5 78.92,36.12 "/>
</svg>
