<?xml version="1.0" encoding="UTF-8"?>
<!DOCTYPE svg PUBLIC "-//W3C//DTD SVG 1.1//EN" "http://www.w3.org/Graphics/SVG/1.1/DTD/svg11.dtd">
<svg xmlns="http://www.w3.org/2000/svg" xml:space="preserve" width="6.67023in" height="3.87295in" version="1.1" style="shape-rendering:geometricPrecision; text-rendering:geometricPrecision; image-rendering:optimizeQuality; fill-rule:evenodd; clip-rule:evenodd"
viewBox="0 0 6648.13 3860.12">
 <defs>
  <style type="text/css">
   <![CDATA[
    .fil1 {fill:none}
    .fil2 {fill:#004D95}
    .fil3 {fill:red}
    .fil0 {fill:white}
    .fil4 {fill:#E0AD12}
   ]]>
  </style>
 </defs>
 <g id="Layer_x0020_1">
  <g id="_105553302924832">
   <path class="fil0" d="M1778.52 1369.14c166.01,347.87 164.42,241.54 181.87,648.35 0,8.26 -6.69,14.95 -14.95,14.95 -8.26,0 -14.95,-6.69 -14.95,-14.95 -16.99,-398.79 -15.77,-293.65 -179.65,-637.04 -3.12,-7.64 0.54,-16.37 8.19,-19.49 7.64,-3.12 16.37,0.54 19.49,8.19z"/>
  </g>
  <path class="fil1" d="M1764.68 1374.8c128.74,315.09 180.76,213.42 180.76,642.7"/>
  <g id="_105553302918688">
   <path class="fil0" d="M1416.13 1458.64c-10.49,150.79 -20.99,582.74 207.81,560.67 44.58,-4.3 494.82,-34.5 458.18,-147.71 -25.4,-78.48 -116.51,-198.47 -157.36,-302.27 0,0 -34.02,-132.31 -52.55,-173.37 -24.26,-25.4 -323.9,99.45 -456.08,62.69zm-28.64 -12.31c-55.07,-35.08 -50.99,-124.53 81.87,-317.42 115.4,-167.53 237.69,256.04 468.7,173.52 193.88,-69.25 621.41,-359.59 748.36,-338.7 134.6,22.15 413.16,386.37 396.16,442.65 -55.11,182.45 -850.51,538.04 -1076.89,585.9 -3.64,0 -6.97,-1.3 -9.57,-3.46 -130.46,45.08 -327.23,56.19 -368.44,60.16 -270.03,26.01 -253.33,-432.97 -240.19,-602.64zm701.99 492.13c285.23,-94.01 919.11,-393.17 964.27,-540 8.02,-26.07 -244.18,-384.15 -372.18,-405.22 -108.46,-17.85 -552.75,272.84 -732.2,336.87 -211.75,75.56 -317.93,-186.73 -411.34,-208.66 -43.8,-10.28 -315.21,357.54 -10.55,311.72 459.7,-69.13 307.32,-174.04 424.97,124.86 41.34,105.01 132.01,222.85 158.58,305.94 9.35,29.25 0.06,53.81 -21.55,74.49z"/>
  </g>
  <path class="fil1" d="M1403.17 1435.06c-30.28,114.84 -19.94,629.74 222.65,599.08 802.78,-101.46 365.56,-128.5 261.1,-640.98 -19.98,-98.04 -797.73,329.51 -405.13,-255.93 99.14,-147.84 231.95,273.01 461.94,179.04 750.83,-306.77 662.99,-605.64 1121.27,60.25 79.99,116.23 -886.74,600.81 -1059.3,600.81"/>
  <g id="_105553302926784">
   <path class="fil0" d="M1399.02 1139.51c255.78,-82.21 438.15,-121.76 592.28,-342.75 64.25,-92.13 330.7,44.44 419.09,77 0,0 439.31,153.77 343.45,181 -88.1,25.02 -375.25,-87.18 -492.86,-157.51 -1.55,4.94 -5.63,8.94 -11.06,10.13 -8.06,1.77 -16.04,-3.32 -17.81,-11.39 -0.96,-5.21 -2.41,-14.52 -4.39,-21.05 -23.68,-18.71 -25.58,-31.01 6.54,-30.96 11.07,0.02 17.26,8.69 21.02,18.98 106,61.46 338.39,165.44 463.41,165.2 -51.31,-29.62 -33.6,-19.03 -155.78,-66.26 -55.3,-21.39 -496.49,-220.75 -546.98,-148.16 -158.63,228.02 -345.72,270 -608.6,354.5 -7.93,2.29 -16.22,-2.28 -18.51,-10.21 -2.29,-7.93 2.28,-16.22 10.21,-18.51z"/>
  </g>
  <path class="fil1" d="M1403.17 1153.87c1025.19,-296.13 187.69,-564.87 1164.89,-206.01 504.62,185.32 -159.63,65.27 -339.71,-83.78 11.68,-19.47 16.9,22.02 18.36,28.7"/>
  <g id="_105553302917088">
   <path class="fil0" d="M2418.4 1728.12c-83.82,-74.18 -209.87,-280.72 -82.34,-337.85 106.74,-47.81 240.61,145.16 284.3,196.73 4.81,6.71 3.28,16.05 -3.43,20.86 -6.71,4.81 -16.05,3.28 -20.86,-3.43 -27.52,-32.52 -163.11,-224.77 -247.78,-186.88 -98.55,44.09 22.11,228.27 88.23,286.77 6.57,5 7.84,14.39 2.83,20.95 -5,6.57 -14.39,7.84 -20.95,2.83z"/>
  </g>
  <path class="fil1" d="M2427.46 1716.23c-238.84,-181.97 -123.13,-543.69 180.76,-120.5"/>
  <g id="_105553302919200">
   <path class="fil0" d="M250.27 2627.54c942.87,-600.37 1892.57,-1000.57 2924.59,-1413.58 110.44,-44.2 661.3,-362.75 644.15,-256.58 -1.63,10.06 -8.55,17.58 -14.38,25.37 -5.32,6.31 -14.75,7.12 -21.07,1.8 -5.72,-4.82 -6.92,-13 -3.15,-19.2 -92.58,25.66 -471.71,227.24 -594.45,276.36 -1030.04,412.22 -1978.45,811.74 -2919.5,1410.96 -6.94,4.47 -16.19,2.47 -20.67,-4.47 -4.47,-6.94 -2.47,-16.19 4.47,-20.67z"/>
  </g>
  <path class="fil1" d="M258.37 2640.11c957.05,-616.8 1979.21,-1035.85 3019.52,-1451.23 48,-19.16 612.36,-331 515.31,-215.76"/>
  <g id="_105553302922656">
   <path class="fil0" d="M807.72 2647.03c460.1,261.17 942.45,630.21 1361.25,957.95 109.7,85.85 108.57,65.95 126.98,107.69l35.28 20.95c-11.08,-1.82 -20.34,-3.25 -28.22,-4.45 3.49,8.24 7.68,18.12 12.95,30.16l-36.72 -21.8c-4.94,-2.93 -7.57,-8.27 -7.3,-13.64 -29.39,-6.76 -22.02,-17.58 -121.38,-95.34 -417.2,-326.49 -898.71,-695.02 -1357,-955.18 -7.27,-3.91 -9.99,-12.98 -6.08,-20.25 3.91,-7.27 12.98,-9.99 20.25,-6.08z"/>
  </g>
  <path class="fil1" d="M800.64 2660.19c507.84,273.14 1529.4,1090.1 1522.96,1086.27l-36.72 -21.8"/>
  <g id="_105553302914592">
   <path class="fil0" d="M335.62 2907.06c516.22,238.01 1031.76,632.31 1526.69,923.97 7.8,2.7 11.94,11.21 9.24,19.02 -2.7,7.8 -11.21,11.94 -19.02,9.24 -498.95,-289.54 -1005.51,-683.01 -1526.11,-923.78 -7.86,-2.54 -12.16,-10.97 -9.63,-18.82 2.54,-7.86 10.97,-12.16 18.82,-9.63z"/>
  </g>
  <path class="fil1" d="M331.02 2921.29c243.59,78.73 1468.47,903.82 1526.4,923.87"/>
  <g id="_105553302923808">
   <path class="fil2" d="M2593.28 1876.45c18.09,-83.92 627.88,-525.72 528.76,-375.21 -24.09,36.59 -148.32,140.91 -272.5,242.86 280.11,-195.31 660.39,-450.06 548,-308.15 -73.62,92.94 -274.78,235.61 -361.66,328.73 76.6,-42.58 206.27,-123.56 303.06,-193.56 -18.16,9.67 -34.27,17.48 -47.34,22.79 -1.13,1.04 -2.24,2.09 -3.33,3.14 0.42,-0.74 0.79,-1.48 1.09,-2.22 -29.85,11.78 -42.56,9.48 -25.04,-15.7 19.17,-27.56 112.92,-80.19 144.74,-98.55 5.03,-0.86 9.9,0.9 13.22,4.29l1.61 -1.03c-17.05,-40.81 270.29,-237.09 249.31,-148.51 -4.71,19.88 -104.79,94.04 -205.67,159.07 -84.81,89.04 -402.32,304.93 -467.7,320.74 -112.31,27.15 199.71,-243.66 329.21,-359.14 -205.77,123.73 -720.49,519.04 -752.83,509.55 -10.96,-3.22 -9.66,-13.48 0.76,-28.93l-0.18 0.05 0.26 -0.16c49.1,-72.62 300.03,-260.12 439.79,-378.14 -138.16,95.42 -369.28,273.04 -393.75,320.08 -0.79,7.73 -7.44,13.65 -15.33,13.4 -8.25,-0.26 -14.74,-7.15 -14.48,-15.4zm870.68 -418.34c50.37,-32.66 100,-65.99 134.68,-91.48 -50.34,25.62 -116.06,67.1 -135.56,91.68l0.88 -0.2z"/>
  </g>
  <path class="fil1" d="M2608.22 1876.91c2.25,-69.67 1077.67,-833.7 85.5,-25.25 -596.84,486.32 1389.9,-1012.32 441.85,-195.68 -502.16,432.56 495.05,-251.9 312.74,-177.32 -65.79,-46.43 467.91,-296.98 47.05,-23.53 -422.38,274.44 -110.44,44.74 -83.78,40.17"/>
  <g id="_105553302927168">
   <path class="fil0" d="M3177.69 1964.68c-0.96,-1.86 -21.37,-42.74 -32.9,-63.6 -2.25,7.92 -10.49,12.54 -18.42,10.31 -7.95,-2.23 -12.58,-10.48 -10.35,-18.43 28.57,-89.18 73.83,30.21 87.62,56.86 4.1,7.17 1.62,16.3 -5.54,20.4 -7.17,4.1 -16.3,1.62 -20.4,-5.54z"/>
  </g>
  <path class="fil1" d="M3190.66 1957.24c-32.71,-57.1 -45.53,-112.59 -60.25,-60.25"/>
  <g id="_105553302913472">
   <path class="fil2" d="M3449.81 1469.96c-159.31,-41.61 -385.7,-228.36 -443.82,-373.82 -162.12,-192.62 -311.88,-405.84 -216.74,-353.27 114.34,63.19 511.2,557.9 591.4,577.18 0.05,-0.33 0.12,-0.64 0.16,-0.97 -54.02,-94.77 -167.21,-369.86 -226.24,-513.78 -9.67,-21.56 -17.67,-40.8 -23.37,-56.9 -6.11,-14.8 -10.49,-25.29 -12.67,-30.16l3.82 -1.73c-2.5,-16.28 1.73,-23.47 15.03,-18.47 2.29,0.86 5.09,3.6 8.33,7.9l0.05 -0.02 0.11 0.23c15.58,20.86 41.42,78.75 71.29,151.44 8.59,17.68 26.26,54.46 61.8,129.1 57.71,121.18 93.61,207.06 112.28,265 -10.98,-149.81 -46.66,-459.43 -35.56,-568.86 -0.62,-14.64 -0.91,-23.11 -0.92,-23.28l4.87 -0.22c4.13,-15.23 10.59,-20.31 20.06,-11.77 1.11,1 2.18,4.72 3.23,10.74l1.71 -0.07 0.67 17.77c11.3,101.82 22.46,443.42 62.52,507.49 39.33,-54.43 59.76,-378.62 76.8,-467.55l0.85 -10.02 -0 0.1 1.16 0.53c1.07,-4.44 2.13,-7.89 3.18,-10.12l25.48 11.72c-9.9,113.19 -46.44,507.41 -30.26,612.38 47.96,-87.24 130.35,-535.61 166.03,-456.84 3.82,8.44 2.1,40.07 -2.7,83.14 15.1,-60.31 32.3,-117.68 54.06,-167.96 1.22,10.1 1.89,21.98 2.05,35.19 1.41,-1.99 2.86,-3.97 4.35,-5.98 -0.13,4 -1.77,14.72 -4.58,30.42 -1.07,37.65 -5.34,82.51 -12.1,127.21 14,-24.57 30.33,-51.89 49.41,-82.3 5.18,-6.43 14.6,-7.44 21.02,-2.25 6.43,5.18 7.44,14.6 2.25,21.02 -29.79,47.51 -62.44,92.71 -87.27,141.78 -9.81,43.43 -21.82,81.98 -35.25,107.47 -2.2,4.18 -5.09,7.66 -8.14,10.05 -15.95,65.06 -31.55,122.52 -43.43,154.69 -1.15,6.64 -1.9,11.02 -2.13,12.57l-0.82 -4.92c-4.16,10.3 -7.79,16.96 -10.67,18.96l-17.29 -9.05c-0.01,-0.05 0.72,-5.27 2.01,-14.48 -0.58,0.69 -1.09,1.6 -1.73,3.02l2.43 -7.99c6.25,-44.47 22.31,-157.68 37.2,-257.79 -132.08,470.54 -152.72,322.92 -143.83,77.3 -8.24,33.05 -17.09,58.3 -26.41,70.39 -18.6,24.13 -34.35,16.65 -47.64,-10.65 3.91,88.02 1.77,156.82 -14.81,158.66 -1.68,0.18 -3.89,-1.21 -6.54,-3.91 -54.94,47.95 -429.34,-423.06 -589.47,-553.6 37.11,54.51 112.44,149.45 193.03,245.5 54.01,-3.56 317.18,276.6 299.32,327.02 53.23,34.85 106.09,61.54 150.32,73.13 8.19,1.08 13.95,8.59 12.87,16.77 -1.08,8.19 -8.59,13.95 -16.77,12.87zm-358.7 -328.04c14.53,16.65 28.85,32.86 42.75,48.42 -14.56,-16.94 -29.01,-33.38 -42.75,-48.42z"/>
  </g>
  <path class="fil1" d="M3451.76 1455.13c-321.53,-42.42 -720.91,-813 -160.67,-95.25 -34.72,46.28 -1080,-1246.22 -100.43,-191.09 415.12,447.15 97.55,-108.6 -58.53,-456.77 387.7,849.61 263.7,834.98 237.56,-53.37 89.99,1519.68 227.4,-752.77 145.76,376.44 -76.34,1055.86 315.42,-1025.24 98.7,289.21 -12.5,75.83 231.99,-992.07 83.78,-291.51 -52.82,249.69 -48.05,37.69 95.25,-140.01"/>
  <g id="_105553302914144">
   <path class="fil0" d="M1289.12 2151.93c52.97,-146.42 3.55,-403.46 -88.15,-526.62 -29.08,68.17 -204.76,121.28 -236,135.91 -203.56,95.34 -332.81,180.44 -387.45,282.46 15.63,29.08 23.89,52.8 20.69,67.15 -4.81,21.57 -21.1,15.8 -43.82,-6.71 -8.53,35.75 -9.15,73.84 -1.75,115.24 71.4,92.94 126.4,204.49 169.72,337.99l4.32 6.11 -2.22 0.35c1.55,4.83 3.09,9.7 4.61,14.6 -35.96,48.99 -124.86,-134.4 -127.85,-139.51 -46.06,-78.61 -71.99,-148.27 -81.32,-210.74 -103.27,-135.69 -237.5,-225.93 -456.77,-295.03 -4.59,-1.45 -18.34,-5.08 -25.39,-4.35 2.74,14.19 48.69,113.24 100.84,222.88 38.15,23.45 84.84,47.13 137.59,80.15 720.78,451.32 150.77,371.14 7.99,271.35 -27.76,-19.4 -114.85,-224.71 -163.16,-329.22 -99.59,-62.98 -146.02,-122.1 -107.46,-303.71 16.84,-79.29 71.32,-196.28 138.52,-244.91 41.24,-109.83 331.06,-330.2 446.08,-391.69 103.41,-55.3 128.26,-10.16 244.43,62.63 114.68,71.86 253.04,184.78 367.98,266.88 6.9,4.53 8.82,13.8 4.28,20.7 -2.73,4.16 -7.18,6.5 -11.8,6.72 78.66,96.88 198.78,337.62 113.34,573.68 -3.4,7.52 -12.26,10.86 -19.78,7.46 -7.52,-3.4 -10.86,-12.26 -7.46,-19.78zm-700.13 181.03c14.4,32.69 32.58,67.34 54.49,104.19 -17.71,-37.02 -35.72,-71.68 -54.49,-104.19zm-428.37 -135.04c65.14,136.19 131.86,272.74 132.01,272.96 35.97,48.84 698.94,244.18 -32.33,-213.7 -36.32,-22.74 -69.75,-41.7 -99.69,-59.26zm13.87 -585.95c2.74,-1.28 5.5,-2.46 8.28,-3.48l-20.37 -4.58 12.09 8.06zm11.35 -4.52c41.7,-13.86 86.41,2.07 129.03,69.67 7.89,12.51 29.49,48.96 57.42,95.49 61.79,69.31 142.57,167.86 189.11,243.28 71.59,-116.68 220.13,-201.75 391.54,-282.04 331.46,-155.26 206.49,-112.18 193,-166.05 -1.76,-7.02 -2.18,-12.25 -1.45,-15.8 -145.13,-107.29 -315.6,-244.49 -465.66,-312.92 -66.19,-30.18 -453.87,331.19 -492.97,368.38zm259.36 285.07c33.55,54.24 67.72,107.81 94.96,146.58 -25.77,-51.95 -58.11,-100.83 -94.96,-146.58zm-107.54 -114.58c-52.45,-48.68 -108.82,-92.63 -165.39,-131.7 -64.25,39.94 -116.29,168.01 -129.55,230.39 -1.62,7.64 -3.08,15.03 -4.38,22.2 8.64,-0.38 19.52,1.32 33.06,5.57 191.7,60.21 335.35,147.15 444.45,270.36 0.1,-34.21 5.57,-66.1 15.75,-96.03 -58.63,-71.28 -141.8,-210.36 -193.94,-300.8zm-129.91 -143.79l76.78 51.18c-25.73,-37.98 -51.76,-52.47 -76.78,-51.18zm-176.18 371.79c5.5,52.02 27.34,85.55 61.79,114.13 -13.9,-22.6 -42.12,-69.37 -61.79,-114.13z"/>
  </g>
  <path class="fil1" d="M1302.74 2158.09c101.73,-224.87 -90.23,-572.22 -142.31,-593.93 258.71,172.49 -1106.25,206.22 -445.3,1008.81 3.88,-9.92 -153.58,-440.99 -424.06,-560.64 -444.46,-196.61 -256.78,-126.92 -12.63,463.66 30.39,73.5 857.01,271.76 -184.2,-336.26 -208.27,-121.62 54.8,-716.18 207.73,-455.05 535.23,913.93 205.53,92.24 -145.75,-67.14 -6.09,-2.76 446.43,-431.69 529.08,-391.93 220.64,106.15 341.67,234.83 517.02,350.04"/>
  <g id="_105553303116352">
   <g>
    <path class="fil0" d="M839.07 2814.83c-187.58,-33.9 -158.28,285.7 -7.71,105.64 17.67,-21.13 27.9,-78.17 7.71,-105.64zm-57.53 -28.85c-0.2,-6.99 4.54,-13.38 11.61,-15 27.59,-3.32 47.81,3.69 61.79,16.72 2.44,0.55 4.87,1.07 7.36,1.72 7.86,2.52 12.19,10.94 9.67,18.8 -0.26,0.79 -0.57,1.54 -0.93,2.26 20.09,44.02 5.51,111.94 -27.23,139.61 -201.69,170.5 -224.13,-129.25 -62.26,-164.12z"/>
   </g>
   <path class="fil1" d="M857.73 2803.65c-200.49,-64.38 -239.94,311.35 -23.38,134.86 48.96,-39.9 41.12,-171.05 -37.86,-152.95"/>
   <g>
    <path class="fil0" d="M771 2911.78c-3.54,102.44 -0.57,56.49 -7.37,137.95 1,8.2 -4.84,15.65 -13.04,16.65 -8.2,1 -15.65,-4.84 -16.65,-13.04 6.3,-86.25 3.65,-39.87 7.24,-139.18 -0.66,-8.23 5.48,-15.44 13.71,-16.1 8.23,-0.66 15.44,5.48 16.1,13.71z"/>
   </g>
   <path class="fil1" d="M756.1 2912.97c4.02,50.23 -9.3,122.15 -7.31,138.57"/>
   <g>
    <path class="fil0" d="M928.53 2923.58c-12.78,13.54 -77.65,79.63 -103.58,112.31 27.97,-9.79 77.87,-34.15 109.09,-51.78 12.53,-11.67 25.39,-19.04 37.66,-18.42l11.02 12.82c-2.22,13.11 -15.35,23.19 -30.26,31.39 -30.7,27.38 -48.36,63.3 -65.61,101.06 -2.73,7.79 -11.27,11.89 -19.05,9.16 -7.79,-2.73 -11.89,-11.27 -9.16,-19.05 5.58,-12.22 17.52,-36.69 32.75,-61.51 -206.67,98.14 -57.64,-59.11 14.39,-135.36 5.36,-6.29 14.79,-7.04 21.08,-1.68 6.29,5.36 7.04,14.79 1.68,21.08z"/>
   </g>
   <path class="fil1" d="M917.15 2913.88c-56.09,65.86 -229.12,213.02 -6.86,99.76 129.17,-65.82 6.95,-34.55 -37.55,92.36"/>
   <g>
    <path class="fil0" d="M1054.44 3015.63c-116.18,101.27 -73.46,67.31 -138.34,117.79 17.38,10.4 44.88,20.69 70.59,35.72 0.83,-0.98 1.8,-1.88 2.9,-2.65 6.78,-4.72 16.1,-3.05 20.81,3.73 74.68,104.95 -107.78,-9.55 -120.25,-18.27 -44.4,-31.04 107.81,-126.7 143.43,-157.76 5.92,-5.76 15.39,-5.63 21.14,0.29 5.76,5.92 5.63,15.39 -0.29,21.14z"/>
   </g>
   <path class="fil1" d="M1044.02 3004.91c-188.28,183.21 -190.31,92.21 -47.8,189.24 28.81,19.62 10.48,-3.1 1.92,-15.39"/>
   <g>
    <path class="fil0" d="M1001.4 3000.46c0,0 62.34,35.13 98.7,62.49l9.01 2.11 -1.98 3.35c25.23,20.31 31.08,34.15 -24.09,21.26 -6.82,-1.59 -11.45,-7.62 -11.55,-14.31 -37.03,-22.89 -19.67,-12.39 -84.66,-48.79 -7.21,-4.03 -9.79,-13.13 -5.76,-20.34 4.03,-7.21 13.13,-9.79 20.34,-5.76z"/>
   </g>
   <path class="fil1" d="M994.11 3013.51c17.36,9.7 102.97,56.51 111.6,66.1l-19.28 -4.5"/>
   <g>
    <path class="fil0" d="M958.74 3093.92c38.7,9.66 158.1,21.21 101.14,64.89 -6.55,5.03 -15.94,3.79 -20.96,-2.76 -2.23,-2.91 -3.23,-6.38 -3.07,-9.78 -41.24,-13.61 -21.89,-7.79 -83.14,-23.07 -8.09,-1.67 -13.29,-9.57 -11.63,-17.66 1.67,-8.09 9.57,-13.29 17.66,-11.63z"/>
   </g>
   <path class="fil1" d="M955.73 3108.57c46.57,9.6 60.53,15.8 105.58,30.32l-10.52 8.07"/>
   <g>
    <path class="fil0" d="M1174.59 3124.65c-96.4,102.63 -146.93,113.63 -43.65,149.15 7.88,2.46 12.27,10.85 9.81,18.73 -2.46,7.88 -10.85,12.27 -18.73,9.81 -145.73,-50.16 -59.15,-102.42 29.82,-197.08 5.36,-6.29 14.79,-7.04 21.08,-1.68 6.29,5.36 7.04,14.79 1.68,21.08z"/>
   </g>
   <path class="fil1" d="M1163.21 3114.96c-85.54,100.42 -165.27,132.88 -36.74,173.11"/>
   <g>
    <path class="fil0" d="M1134.07 3116.38c0,0 219.86,39.33 125.43,65.57 -11.01,3.06 -30.22,3 -41.1,3.35 -8.26,0.09 -15.02,-6.53 -15.12,-14.79 -0.04,-3.92 1.42,-7.49 3.86,-10.19 -27.99,-6.29 -60.6,-11.48 -76.58,-14.25 -8.2,-0.97 -14.06,-8.4 -13.09,-16.6 0.97,-8.2 8.4,-14.06 16.6,-13.09z"/>
   </g>
   <path class="fil1" d="M1132.31 3131.23c24.39,2.88 210.54,37.71 85.92,39.12"/>
   <g>
    <path class="fil0" d="M1090.31 3189.11c35.21,6.4 103.95,14.4 131.46,41.65 5.1,6.49 3.97,15.89 -2.53,20.99 -6.49,5.1 -15.89,3.97 -20.99,-2.53 -15.98,-14.67 -93.92,-27.17 -113.5,-30.74 -8.11,-1.54 -13.44,-9.36 -11.91,-17.47 1.54,-8.11 9.36,-13.44 17.47,-11.91z"/>
   </g>
   <path class="fil1" d="M1087.53 3203.8c25.98,4.91 107.79,17.45 122.48,36.19"/>
   <g>
    <path class="fil0" d="M1280.83 3249.88c0,0 -8.48,9.26 -20.18,22.19 91.53,-59.61 -5.89,32.54 39.91,97.06 11.56,16.28 62.13,-35.26 92.35,-70.18 -0.31,-3.82 0.84,-7.75 3.52,-10.89 6.51,-7.33 16.43,-20.02 25.38,-25.69 28.89,-18.3 27.21,-0.64 10.56,27.65 1.02,-0.24 2.04,-0.58 3.08,-1.05 -5.16,6.11 -3.61,4.3 -8.33,9.56 -47.77,74.06 -177.15,197.5 -157.56,-5.74 -27.46,20.55 -66.35,59.4 -82.34,65.77 -29.2,11.63 -26.11,-3.93 -10.98,-27.79 -0.4,0.14 -0.8,0.3 -1.2,0.49l1.63 -1.15c25.14,-39.3 82.07,-100.38 82.07,-100.38 5.56,-6.1 15.02,-6.54 21.12,-0.98 6.1,5.56 6.54,15.02 0.98,21.12z"/>
   </g>
   <path class="fil1" d="M1269.79 3239.81c-215.13,236.14 23.67,-3.46 17.41,30.41 -55.43,299.89 219.09,-88.09 120.6,27.54"/>
   <g>
    <path class="fil0" d="M1538.24 3411.15c-6.27,11.92 -16.99,31.8 -29.55,52.99 59.75,-11.46 123.15,-58.76 131.95,-81.79 -31.91,2.95 -69.18,12.91 -102.4,28.79zm-66.28 108.9c-25.78,33.95 -49.53,50.97 -53.6,6.32 -5.84,-64.02 43.4,-112.77 100.48,-142.05 2.82,-3.5 7.06,-5.51 11.48,-5.56 99.98,-46.04 213.98,-33.22 98.98,60.17 -56.96,46.25 -100.05,62.76 -130.79,64.58 40.17,51.76 94.57,139.69 68.61,170.13 -5.88,5.8 -15.35,5.73 -21.15,-0.15 -5.53,-5.6 -5.73,-14.47 -0.64,-20.31 3.79,-19.62 -41.16,-90.22 -73.37,-133.13zm-15.3 -19.43c-1.82,-2.17 -3.54,-4.14 -5.11,-5.87 -1.65,5.32 -2.73,10.81 -3.24,16.43 2.68,-3.01 5.48,-6.56 8.35,-10.56zm10.28 -35.29c3.54,0.6 7.15,1 10.83,1.2 4.92,-8.83 9.72,-17.95 14.18,-26.71 -9.65,7.82 -18.12,16.34 -25,25.51z"/>
   </g>
   <path class="fil1" d="M1530.47 3393.72c-150.12,338.91 -139.39,-41.54 123.33,-27.08 25.12,40.82 -130.02,139.7 -200.87,110.69 -2.19,-15.69 131.33,158.33 103.69,185.66"/>
   <g>
    <path class="fil0" d="M1682.74 3507.43c-16.19,34.73 -44.11,93.23 -61.84,118.43 63.71,47.17 116.71,-44.62 77.62,-147.38 -4.08,7.31 -9.58,17.41 -15.79,28.95zm-85.49 94.74c29.21,-85.38 151.92,-307.04 141.39,-22.97 -3.79,102.28 -111.9,109.16 -166.58,39.11 -4.5,-6.92 -2.55,-16.18 4.37,-20.68 6.92,-4.5 16.18,-2.55 20.68,4.37l0.14 0.18z"/>
   </g>
   <path class="fil1" d="M1679.82 3478.35c-22.78,61.28 -142.49,264.05 -22.02,46.71 37.11,-66.95 48.99,-134.74 65.16,32.63 11.65,120.49 -104.51,104.4 -138.38,52.47"/>
  </g>
  <g id="_105553303118176">
   <path class="fil3" d="M2017.3 2507.29c254.85,-165.83 2377.77,-1437.9 2184.24,-1159.61 -79.21,113.91 -1102.7,653.3 -1342.3,795.61 -122.73,72.9 -415.81,246.37 -595.37,385.58 -65.57,61.59 -118.66,111.99 -131.99,119.07l-19.09 -15.02c1.02,-3.93 3.17,-8.38 6.2,-13.23 12.74,-48.2 406.82,-355.12 480.7,-403.58 5.96,-3.91 512.83,-368.66 459.01,-256.74 -5.57,11.59 -57.95,48.5 -59.97,50.05 -6.63,4.92 -15.99,3.54 -20.92,-3.09 -0.24,-0.32 -0.46,-0.65 -0.67,-0.98 -129.51,78.04 -374.17,244.28 -444.29,290.55 -26.39,17.41 -60.01,44.38 -96.55,75.82 172.13,-113.6 358.25,-224.76 407.71,-254.15 193.13,-114.72 1241.64,-671.93 1329.75,-782.31 -201.34,26.59 -1931.71,1061.49 -2139.51,1196.67 -6.8,4.68 -16.11,2.96 -20.79,-3.84 -4.68,-6.8 -2.96,-16.11 3.84,-20.79z"/>
  </g>
  <path class="fil1" d="M2025.78 2519.6c250.22,-172.2 2565.64,-1534 2108.85,-1123 -101.16,91.02 -1746.88,931.73 -2001.54,1230.3 -42.22,49.5 173.5,-188.63 358.07,-321.35 4.31,-3.1 761.84,-503.64 498.66,-308.15"/>
  <g id="_105553303102112">
   <path class="fil3" d="M2383.27 2685.96c76.26,-24.42 150.44,-51.33 222.86,-80.37 177.89,-148.27 380.74,-270 590.95,-365.81 93.14,-42.45 413.23,-235.74 740.55,-443.07 257.13,-188.71 515.94,-379.51 796.95,-550.03 55.53,-33.7 69.55,-21.72 38.9,11.63 0.42,-0.05 0.85,-0.11 1.28,-0.19l-2.18 1.15c-10.27,11 -25.27,24.24 -45.15,38.89 -254.86,187.85 -556.74,397.18 -862.39,588.59 -451.26,330.06 -903.9,645.53 -1473.71,828 -7.95,2.22 -16.2,-2.42 -18.42,-10.37 -2.22,-7.95 2.42,-16.2 10.37,-18.42zm320.36 -121.18c303.93,-132.61 577.49,-302.36 842.05,-485.94 -141.41,81.27 -280.36,155.67 -412.44,219.16 -116.73,56.11 -297.08,172.56 -429.61,266.79z"/>
  </g>
  <path class="fil1" d="M2387.29 2700.36c812.12,-227.06 1631.53,-1002.28 2355.03,-1440.9 261.91,-158.79 -1287.77,920.06 -1613.63,1024.3 -35.38,11.32 -511.08,303.6 -520.47,336.26"/>
  <g id="_105553303109312">
   <g>
    <path class="fil0" d="M3008.49 2907.67c11.34,43.69 38.4,175.92 55.15,225.44 12.09,-63.57 55.04,-301.57 76.54,-215.02 13.16,52.97 -2.26,143.98 13.8,222.96 4.38,2.61 7.32,7.39 7.32,12.86 -0.06,5.32 0.99,19.71 -1.29,23.89 -10.94,20 -19.41,14.35 -25.97,-5.36l-1.87 0.78c-0.54,-6.74 -0.77,-8.58 -0.85,-10.17 -7.37,-28.84 -11.98,-76.29 -14.85,-121.06 -52.77,263.05 -77.15,108.81 -134.16,-119.86 -3.99,-7.23 -1.37,-16.32 5.86,-20.31 7.23,-3.99 16.32,-1.37 20.31,5.86z"/>
   </g>
   <path class="fil1" d="M2995.41 2914.9c32.64,59.08 58.94,483.39 118.43,63.43 26.69,-188.39 3.03,149.73 33.07,192.29 -0.99,-5.63 -0.54,-10.9 -0.54,-16.71"/>
   <g>
    <path class="fil0" d="M3205.34 2971.51c0,0 -0.2,17.33 -1.09,41.57 9.39,10.92 20.68,27.61 34.23,51.5 1.5,2.64 14.98,26.8 25.01,37.1 7.22,-29.1 -3.38,-124.95 -12.16,-178.25 -2.7,-0.35 -5.32,-1.44 -7.57,-3.3 -6.36,-5.27 -7.25,-14.69 -1.98,-21.05l3.18 -3.79c-0.98,-13 -1.42,-8.2 13.97,-21.21 6.49,3.48 11.54,9.38 15.51,16.8 0.05,-0.53 0.08,-1.11 0.08,-1.75l0.14 2.18c15.4,29.32 14.11,81.85 16.43,104.31 23.82,231.25 -51.8,124.04 -88.98,61.54 -1.69,26.96 -4.23,55.03 -8.06,75.65 0.2,0.87 0.4,1.66 0.61,2.37 -0.24,-0.48 -0.51,-0.93 -0.79,-1.37 -5.74,30.33 -14.33,43.81 -27.11,12.11 -0.36,-0.89 -18.58,-135.99 8.66,-148.84 0.07,-15.37 0.04,-25.57 0.04,-25.57 0,-8.26 6.69,-14.95 14.95,-14.95 8.26,0 14.95,6.69 14.95,14.95z"/>
   </g>
   <path class="fil1" d="M3190.39 2971.5c0,407.5 -41.39,-55.96 12.58,56.61 132.54,276.44 55.71,-159.3 56.61,-138.38 0.53,12.41 2.33,8.46 -6.29,18.87"/>
   <g>
    <path class="fil0" d="M3327.44 2940.89c5.77,57.59 16.47,158.69 18.58,209.11l-29.78 2.15c-3.13,-26.46 -22.01,-152.04 -18.74,-209.36 -0.91,-9.5 -1.75,-18.42 -2.49,-26.54 -0.75,-8.22 5.31,-15.49 13.53,-16.24 7.03,-0.64 13.37,3.7 15.52,10.12 106.98,-11.93 158.27,234.37 34.86,233.51 -8.22,-0.71 -14.32,-7.96 -13.61,-16.18 0.71,-8.22 7.96,-14.32 16.18,-13.61 68.97,0.6 41.34,-175.81 -34.07,-172.96z"/>
   </g>
   <path class="fil1" d="M3309.9 2914.9c47.32,520.58 0.47,15.41 1.08,13.66 103.85,-35.96 147.43,208.61 49.24,200.2"/>
   <g>
    <path class="fil0" d="M3456.6 2905.44c12.43,70.93 22.74,110.79 21.4,173.12 20.97,-11.34 45.18,-19.56 69.49,-24.24 2.72,-7.28 10.64,-11.32 18.21,-9.1 9,1.87 17.03,3.64 25.38,4.59 7.35,-0.07 14.53,0.23 21.42,0.93l-0.96 29.34c-3.64,0.39 -7.37,0.51 -11.17,0.41 -80.31,3.68 -131.34,42.88 -141.69,39.77 -18.28,-5.5 -26.77,-182.64 -31.3,-208.49 -1.75,-8.07 3.38,-16.03 11.45,-17.78 8.07,-1.75 16.03,3.38 17.78,11.45z"/>
   </g>
   <path class="fil1" d="M3441.99 2908.61c67.37,311.35 -67.66,162.3 165.16,156.71 10.07,-0.24 -19.76,1.83 -45.65,-5.75"/>
   <g>
    <path class="fil0" d="M3425.72 2900.41c20.49,-6.24 84.36,-32.75 103.25,-13.94 5.28,6.35 4.41,15.78 -1.95,21.06 -4.78,3.97 -11.29,4.46 -16.48,1.76 -14.82,0.09 -64.69,16.24 -77.45,20.1 -8,2.04 -16.14,-2.8 -18.18,-10.8 -2.04,-8 2.8,-16.14 10.8,-18.18z"/>
   </g>
   <path class="fil1" d="M3429.41 2914.9c10.97,-2.8 81.19,-27.1 88.06,-18.87"/>
   <g>
    <path class="fil0" d="M3458.36 3003.44c363.04,-237.13 36.86,363.67 146.29,-104.65 35.38,-151.41 86.7,-0.71 53.57,92.07 1.59,0.47 196.99,66.84 73.1,71.07 -8.26,0 -14.95,-6.69 -14.95,-14.95 0,-8.26 6.69,-14.95 14.95,-14.95 12.27,-0.4 7.13,0.13 15.46,-1.01 -7.73,3.23 -9.25,13.1 -3.86,20.02 -33.22,-12.96 -59.05,-21.39 -93.77,-31.68 -11.82,-52.82 -12.28,-142.79 -19.4,-158.96 3.83,5.88 12.53,6.57 17.82,1.81 -20.93,36.49 -35.84,149.69 -37.54,192.75 -2.33,-5.76 -11.74,-8 -16.81,-3.9 2.51,-3.25 3.29,-5.05 5.4,-10.34 48.87,-122.53 -88.34,-35.54 -122.69,-13.09 -6.68,4.85 -16.03,3.37 -20.88,-3.31 -4.85,-6.68 -3.37,-16.03 3.31,-20.88z"/>
   </g>
   <path class="fil1" d="M3467.15 3015.53c296.55,-215.46 54.29,289.95 152.03,-113.21 38.86,-160.28 30.88,101.64 34.5,102.79 22.09,7.03 153.33,41.87 77.64,41.87"/>
   <g>
    <path class="fil0" d="M3821.72 2828.67c-59.06,-11.07 -16.37,116.05 2.24,132.73 9.34,-13.69 11.5,-57.28 12.49,-67.39l23.88 -11.08c15.16,16.5 50.05,125.01 55.3,141.46 2.06,8 -2.76,16.15 -10.76,18.2 -8,2.06 -16.15,-2.76 -18.2,-10.76 -8.25,-25.77 -18.09,-55.5 -28.92,-83.76 -42.59,165.69 -174.68,-175.16 -28.13,-148.24 7.97,2.18 12.65,10.4 10.48,18.36 -2.18,7.97 -10.4,12.65 -18.36,10.48z"/>
   </g>
   <path class="fil1" d="M3825.67 2814.26c-115.07,-31.51 12.69,316.84 25.7,80.69 0.11,-2.09 39.82,94.43 49.78,133.17"/>
   <g>
    <path class="fil0" d="M3933.98 2808.9c0.64,1.95 3.88,13.12 8.09,29.22 8.04,-19.49 12.2,-42.84 -3.34,-72.78 -7.66,6.71 -12.69,18.96 -15.63,34.29 4.79,1.02 8.99,4.36 10.87,9.27zm27.26 116.91c9.34,56.94 8.84,105.96 -31.72,69.49 -95.04,-85.46 -6.61,-335.69 33.47,-247.95 15.21,33.29 3,107.91 -2.61,146.88 36.85,10.23 252.73,71.48 98.02,73.35 -8.26,0 -14.95,-6.69 -14.95,-14.95l0.01 -0.55c-37.12,-9.48 -63.67,-18.09 -82.22,-26.28zm-27.17 -15.83c-4.67,-3.97 -7.75,-7.91 -9.61,-11.89 4.08,26.38 10.45,50.11 17.58,64.2 0.4,-13.44 -3.04,-32.46 -7.97,-52.31zm-11.59 -26.4c0.37,-2.62 1.08,-5.29 2.02,-8.01 -1.31,-4.32 -2.63,-8.53 -3.92,-12.6 0.46,6.88 1.09,13.78 1.9,20.61z"/>
   </g>
   <path class="fil1" d="M3920.01 2814.26c93.45,243.43 -24.08,224.18 -13.12,-19.41 1.02,-22.65 76.17,-138.83 37.2,108.01 29.19,31.96 225.49,49.78 114.3,49.78"/>
   <g>
    <path class="fil0" d="M4104.2 2774.37c-0.71,2.81 -2.35,8.88 -4.45,17.05 44.4,25.17 78.94,94.28 17.44,151.48 -74.44,69.24 -62.8,-56.97 -50.69,-130.51 -5.7,0.46 -11.87,1.9 -18.51,4.48 -3.04,6.27 -0.05,42.59 0.19,47.7 0,8.26 -6.69,14.95 -14.95,14.95 -8.26,0 -14.95,-6.69 -14.95,-14.95 -3.17,-64.07 23.54,-85.9 53.76,-82.61 1.6,-7.99 2.86,-13.63 3.44,-15.89 2.29,-7.93 10.58,-12.51 18.51,-10.21 7.93,2.29 12.51,10.58 10.21,18.51zm-11.1 44.22c-9.57,41.34 -19.75,97.34 -7.06,109.09 41.69,-0.48 45.15,-84.96 7.06,-109.09z"/>
   </g>
   <path class="fil1" d="M4089.84 2770.23c-105,363.52 179.02,40.72 -37.74,31.45 -28.89,-1.24 -18.87,32.55 -18.87,62.9"/>
   <g>
    <path class="fil0" d="M4177.68 2755.54c22.97,47.61 25.36,70.92 29.1,94.35 12.94,-57.08 37.02,-149.37 58.02,-103.93 0.86,1.84 0.62,158.14 3.06,184.08 2.06,8 -2.76,16.15 -10.76,18.2 -8,2.06 -16.15,-2.76 -18.2,-10.76 -3.4,-34.73 -3.97,-60.17 -3.65,-83.01 -44.91,141.86 -28.44,30.62 -82.3,-82.13 -4.64,-6.83 -2.87,-16.13 3.96,-20.77 6.83,-4.64 16.13,-2.87 20.77,3.96z"/>
   </g>
   <path class="fil1" d="M4165.32 2763.94c50.4,74.15 19.86,264.48 80.69,5.21 16.5,-70.34 -9.99,97.11 7.37,164.62"/>
   <g>
    <path class="fil0" d="M4335.8 2769.32c13.26,58.86 44.62,212.36 -5.94,143.48 -39.24,-53.46 -74.57,-256.69 27.96,-166.72 20.79,18.24 40.59,37.03 60.33,55.88 -9.5,-23.79 -15.5,-43.63 -18.95,-59.84 -2.2,-2.6 -3.52,-5.96 -3.52,-9.63l0 -13.79c-0.43,-5.79 -0.39,-10.79 0,-15.04l0 -1 0.1 0c2.75,-25.18 18.65,-22.54 26.04,1.5l3.67 0.21c-1.28,48.66 8.28,74.56 31.31,118.03 70.69,133.49 -68.6,-5.32 -120.98,-53.08z"/>
   </g>
   <path class="fil1" d="M4316.28 2751.36c105.51,401.82 -95.49,-110.4 31.45,5.75 225.01,205.87 48.36,71.58 62.9,-54.45 0,9.94 0,19.89 0,29.83"/>
   <g>
    <path class="fil0" d="M4479.92 2655.05c-14.12,-50.91 -0.98,-79.54 98.95,-29.34 195.72,98.31 88.87,211.75 -7.98,220.14 -2.26,2.32 -5.02,2.32 -8.16,0.45 -12.68,0.32 -25.03,-1.24 -36.34,-4.99 -8,-2.06 -12.81,-10.21 -10.75,-18.21 2.06,-8 10.21,-12.81 18.21,-10.75 1.73,0.57 3.6,1.27 5.55,2.01 -27.95,-51.85 -61.07,-145.97 -61.07,-145.97 -1.68,-4.62 -0.93,-9.53 1.59,-13.34zm95.68 160.78c189.14,-42.3 3.22,-190.68 -72.66,-184.19 11,34.15 65.42,134.22 72.66,184.19z"/>
   </g>
   <path class="fil1" d="M4492.39 2663.3c119.7,330.2 59.72,87.92 -2.15,-25.16 -46.48,-84.93 372.33,106.33 79.25,193.91 -19.13,5.71 -23.65,-1.17 -39.36,-5.21"/>
   <g>
    <path class="fil0" d="M3132.46 3328.12c24.71,66.88 61.07,183.88 5.51,155.17 -31.25,-16.15 -41.46,-85.95 -36.81,-150.95 -7.71,-0.6 -13.78,-7.04 -13.78,-14.9 0,-4.48 1.97,-8.5 5.09,-11.24 -1.13,-2.33 -2.2,-4.53 -3.17,-6.58 -4.05,-7.2 -1.5,-16.31 5.69,-20.36 4.39,-2.47 9.5,-2.49 13.73,-0.49 13.66,-61.73 42.45,-98.4 78.72,-37.19 30.52,51.51 -10.59,76.89 -54.99,86.54zm3.32 -29.51c17.45,-3.91 33.22,-12.23 29.94,-31.15 -7.71,-44.46 -22.24,-16.56 -29.94,31.15zm-2.45 104.91c1.29,9.18 3.08,17.88 5.47,25.8 -1.08,-8.28 -2.99,-16.96 -5.47,-25.8z"/>
   </g>
   <path class="fil1" d="M3102.33 3292.29c111.95,198.83 6.8,275.26 18.33,-5.21 5.82,-141.48 144.08,30.37 -18.33,30.37"/>
   <g>
    <path class="fil0" d="M3279.11 3248.9c-4.1,9.2 -7.44,17.85 -10.18,26.03 135.09,128 -36.05,183.22 -41.24,63.74 -8.05,-0.23 -14.51,-6.84 -14.51,-14.94 0.07,-12.26 1.49,-83.33 31.27,-68.9 2.43,-6.38 5.12,-12.96 8.17,-19.8 3.83,-7.31 12.86,-10.14 20.18,-6.31 7.31,3.83 10.14,12.86 6.31,20.18z"/>
   </g>
   <path class="fil1" d="M3265.87 3241.97c-105.7,201.95 154.23,182.17 -23.54,29.3 -15.2,-13.07 -14.2,44.59 -14.2,52.47"/>
   <g>
    <path class="fil0" d="M3340.76 3233.04c4.54,7.08 24.2,43.17 41.1,81.61 12.45,-21.66 33.88,-28.79 64.55,6.28 -0.9,-40.15 -6.45,-86.26 5.55,-112.16l-0.03 -0.47 0.1 0.33c3.88,-8.31 9.57,-14.53 17.83,-17.78 15.19,12.78 12.09,10.87 12.25,32.25 0,3.57 -1.25,6.85 -3.34,9.42 -17.36,249.07 -12.48,119.26 -68.99,96.89 -2.74,10.25 -6.23,23.94 -8.28,36.58 10.6,34.8 10.49,60.01 -17.8,49.61 -13.58,-4.99 -17.96,-38 -12.82,-67.99 -14.28,-37.52 -43.47,-80.14 -54.1,-96.71 -4.93,-6.62 -3.56,-15.99 3.06,-20.92 6.62,-4.93 15.99,-3.56 20.92,3.06z"/>
   </g>
   <path class="fil1" d="M3328.77 3241.97c123.6,166.03 22.35,224.1 70.26,69.73 65.07,0 61.82,129.28 61.82,-27.31 0,-3.99 6.29,-122.91 6.29,-61.28"/>
   <g>
    <path class="fil0" d="M3538.71 3223.1c-3.41,117.6 -25.51,126.16 77.49,94.35 -0.1,-1.82 -0.36,-3.76 -0.47,-6.29 0,-8.26 6.69,-14.95 14.95,-14.95 8.26,0 14.95,6.69 14.95,14.95 0.48,11.35 2.04,26.77 -11.14,31.92 -150.19,58.72 -128.78,-14 -125.69,-119.98 0,-8.26 6.69,-14.95 14.95,-14.95 8.26,0 14.95,6.69 14.95,14.95z"/>
   </g>
   <path class="fil1" d="M3523.75 3223.09c0,108.96 -31.79,153.49 105.85,105.85 2.88,-8.33 1.08,-8.29 1.08,-17.79"/>
   <g>
    <path class="fil0" d="M3513.31 3177.29c57.72,-18.99 28.86,-8.7 86.55,-30.92 7.64,-3.12 16.37,0.54 19.49,8.18 3.12,7.64 -0.54,16.37 -8.18,19.49 -59.46,22.91 -29.6,12.26 -89.56,31.98 -7.93,2.29 -16.22,-2.28 -18.51,-10.21 -2.29,-7.93 2.28,-16.22 10.21,-18.51z"/>
   </g>
   <path class="fil1" d="M3517.47 3191.65c27.31,-7.89 60.22,-20.07 88.06,-31.45"/>
   <g>
    <path class="fil0" d="M3527.36 3274.04c36.52,-26.64 106.37,-75.98 150.95,-75.15 11.68,-97.09 67.76,-180.85 97.14,-85.64 21.51,69.7 -14.23,78.55 -38.25,111.18 19.38,16.44 97.53,40.57 110.62,46.94 2.33,0.18 4.56,0.48 6.51,0.95l10.08 18.65c-12.57,10.23 -13.29,12.62 -22.74,10.1 -3.33,-0.09 -6.74,-0.07 -9.72,-0.1 -5.33,0 -10.01,-2.79 -12.65,-6.99 -54.94,-17.98 -85.22,-31.11 -100.19,-42.47 0.4,12.84 -0.91,28.38 -4.29,47.08l-4.38 10.57c-14.09,5.84 -7.05,5.84 -21.14,0 -1.42,-3.44 -2.71,-6.97 -3.89,-10.57l-0.49 0 -0.07 -1.78c-6.33,-20.22 -8.92,-42.79 -8.68,-65.63 -12.8,-25.46 -44.78,3.96 -130.87,66.79 -6.6,4.96 -15.97,3.61 -20.93,-2.99 -4.96,-6.6 -3.61,-15.97 2.99,-20.93zm182.51 -59.16c0.61,0.93 1.19,1.92 1.74,2.94 13.62,-22.3 48.85,-50.72 28.76,-110.54 -25.51,8.88 -30.94,59.91 -30.5,107.6z"/>
   </g>
   <path class="fil1" d="M3536.33 3286c138.49,-103.87 163.54,-106.09 163.54,12.58 0,-29.09 -26.06,-214.11 50.32,-207.57 77.49,154.97 -162.42,102.34 88.06,193.37 10.91,3.96 22.62,1.62 -6.29,1.62"/>
   <g>
    <path class="fil0" d="M3927.5 3066.32c16.3,45.18 34.93,86.11 39.39,132.23 92.82,-68.46 221.91,-48.56 105.75,-0.56 -5.76,3.63 -13.06,2.84 -17.91,-1.48 -48.33,20.05 -100.77,50.34 -108.55,46.51 -6.03,-2.97 -39.57,-146.6 -46.24,-165.08 -3.21,-7.61 0.35,-16.38 7.96,-19.59 7.61,-3.21 16.38,0.35 19.59,7.96z"/>
   </g>
   <path class="fil1" d="M3913.73 3072.14c102.14,241.92 -57.82,146.78 182.41,94.89 25.56,-5.52 -30.31,17.61 -31.45,18.33"/>
   <g>
    <path class="fil0" d="M4101.68 3018.99c16.52,27.42 90.22,145.65 29.6,168.27 -8,2.04 -16.14,-2.78 -18.19,-10.78 -2.03,-7.94 2.72,-16.03 10.61,-18.14 11.71,-22.11 -35.31,-103.67 -45.71,-121.1 -5.04,-6.54 -3.82,-15.93 2.72,-20.97 6.54,-5.04 15.93,-3.82 20.97,2.72z"/>
   </g>
   <path class="fil1" d="M4089.84 3028.11c18.87,24.49 74.08,135.32 37.74,144.66"/>
   <g>
    <path class="fil0" d="M4210.08 3081.87c2.01,10.49 3.85,21.39 5.1,31.46 1.2,4.49 2.61,8.83 4.24,12.98 -0.85,-1.77 -1.99,-3.23 -3.31,-4.39 2.52,27.64 -1.11,44.96 -21.61,20.58 -0.15,-0.17 -15.72,-46.46 -19.39,-82.89l-5.37 -21.41c-2.1,-7.99 2.68,-16.16 10.66,-18.26 0.4,-0.11 0.79,-0.19 1.19,-0.26 10.73,-9.64 35.04,0.79 83.69,53.31 -4.89,-24.93 -14.99,-53.76 -19.09,-76.14 -0.94,-1.96 -1.47,-4.16 -1.47,-6.47l-0.04 -4.32c-0.2,-2.3 -0.3,-4.5 -0.27,-6.56l14.95 -14.55c13.77,10.92 15.17,9.29 15.26,17.2 43.99,248.34 -9.48,104.69 -64.48,67.75 -0.77,10.34 -0.84,21.21 -0.06,31.97z"/>
   </g>
   <path class="fil1" d="M4184.19 3034.4c51.83,197.34 -4.81,47.62 13.66,-5.75 41.72,0 124.55,198.57 63.44,-37.2 -3.01,-11.63 -1.62,-18.31 -1.62,-1.08"/>
   <g>
    <path class="fil0" d="M4333.46 2967.55c62.19,75.89 32.96,94.48 48.62,129.11 11.86,0.69 47.22,-14.44 71.2,-25.43 -1.09,-2.81 -1.34,-5.98 -0.53,-9.12 2.06,-7.99 10.22,-12.8 18.21,-10.74 26.2,5.68 37.21,25.95 18.46,35.9 -191.32,101.53 -98.67,-2.81 -177.76,-99.25 -5.65,-6.02 -5.36,-15.48 0.66,-21.13 6.02,-5.65 15.48,-5.36 21.13,0.66z"/>
   </g>
   <path class="fil1" d="M4322.57 2977.79c94.46,100.56 -29.79,185.82 160.48,95.96 1.13,-5.1 -12.14,-6.96 -15.81,-7.91"/>
   <g>
    <path class="fil0" d="M4308.13 2937.8c35.82,-5.99 67.65,-11.52 101.68,-19.25 9.9,-2.57 14.09,-4.39 20.46,-4.86l0.9 -0.22 -0.01 0.16c2.59,-0.14 5.57,-0.06 9.43,0.27l-1.47 28.39c-7.35,1.84 -14.55,3.56 -21.66,5.18l-3.25 0.81c-0.61,0.15 -1.22,0.26 -1.82,0.33 -33.45,7.47 -65.11,12.94 -100.54,18.85 -8.19,1.02 -15.66,-4.78 -16.69,-12.98 -1.02,-8.19 4.78,-15.66 12.98,-16.69z"/>
   </g>
   <path class="fil1" d="M4309.99 2952.63c65.06,-8.15 174.35,-37.1 100.64,-18.87"/>
   <g>
    <path class="fil0" d="M4348.48 3039.38c72.14,-30.38 34.68,-15.28 112.47,-45.09 8.26,0 14.95,6.69 14.95,14.95 0,8.26 -6.69,14.95 -14.95,14.95 -66.14,28.22 -32.35,13.89 -101.39,42.96 -7.67,3.06 -16.37,-0.67 -19.43,-8.35 -3.06,-7.67 0.67,-16.37 8.35,-19.43z"/>
   </g>
   <path class="fil1" d="M4354.02 3053.27c0.89,-0.36 103.71,-44.03 106.93,-44.03"/>
   <g>
    <path class="fil0" d="M4566.85 2935.17c-7.15,2.99 -30.33,11.32 -44.49,19.78 51.4,10.02 259.34,36.93 70.23,112.61 -22.14,8.86 -33.43,7.41 -56.18,6.95 -8.26,0 -14.95,-6.69 -14.95,-14.95 0,-8.26 6.69,-14.95 14.95,-14.95 32.34,0.64 79.94,-9.96 99.59,-34.12 -38.09,-16.68 -268.25,-24.29 -79.7,-103.3 7.73,-2.91 16.35,1 19.26,8.73 2.91,7.73 -1,16.35 -8.73,19.26z"/>
   </g>
   <path class="fil1" d="M4561.58 2921.18c-227.99,85.81 262.07,31.65 25.16,132.63 -19.51,8.31 -30.61,5.75 -50.32,5.75"/>
  </g>
  <g id="_105553302949472">
   <path class="fil4" d="M4914.62 2420.6c-2.35,-6.48 -5.16,-13.51 -8.1,-18.93 -4.29,15.25 -10.58,50.98 -18.17,95.34l-0.16 4.51c9.49,-29.52 18.54,-57.25 26.43,-80.93zm-92.09 377.06c-0.7,1.4 -1.4,2.72 -2.1,3.93l1.93 -0.06c6.66,-2.33 14.04,-4.7 22.06,-7.09 -3.34,-6.11 -1.31,-13.83 -1.36,-31.09 0,-3.33 1.09,-6.4 2.93,-8.88 0.42,-8.28 0.81,-16.62 1.18,-24.91 -12.32,40.49 -20.61,68.01 -21.17,69.64l-3.46 -1.54zm-19.05 11.21c-1.79,-1.99 -3.56,-4.92 -5.29,-9.01 -0.28,-0.67 0.59,-4.9 2.4,-11.94l-1.87 -0.83 31.45 -124.73c1,-5.05 10.91,-135.89 32.61,-222.46 11.62,-156.8 27,-167.09 83.31,-99.43 21.52,-22.68 49.71,38.38 68.62,87.66l7.86 10.02c99,125.83 190.03,222.68 188.03,289.08 9.92,14.56 15.5,25.11 14.44,29.94 -9.33,2.43 -18.69,4.74 -28.09,6.93 -24.8,30.68 -85.35,51.39 -197.47,61.83 -212.96,19.84 -245.82,4.98 -196,-17.06zm123.99 -426.13c1.73,-4.98 3.33,-9.51 4.81,-13.61 -7.69,-9.84 -15.54,-19.94 -23.48,-30.23 -2.9,7.44 -5.4,16.18 -7.57,26 7.98,-1.92 16.72,3.28 26.24,17.83zm143.76 159.69c24.51,35.82 53.78,73.38 80.19,107.01 -18.81,-29.3 -46.08,-64.51 -80.19,-107.01zm101.59 203.69c2.38,-3.21 4.23,-6.62 5.52,-10.24l-97.67 -117.71c-49.3,-69.83 -72.39,-129.38 -92.3,-178.33 -11.3,-14.07 -23,-28.72 -35.04,-43.95 -2.48,6.87 -5.2,14.6 -8.1,23.06 1.25,3.16 2.51,6.47 3.79,9.94 2.46,7.88 -1.94,16.26 -9.82,18.72 -1.28,0.4 -2.57,0.62 -3.85,0.67 -14.84,44.73 -32.67,101.19 -49.6,155.68 -1.43,73.12 -3.28,140.89 -12.78,176.8 0.03,1.95 0.08,3.88 0.15,5.76 81.92,-21.06 204.27,-40.87 299.69,-40.39zm-300.9 38.33c-0.26,0.88 -0.53,1.75 -0.81,2.59l1.65 -0.43c-0.23,-0.82 -0.51,-1.54 -0.84,-2.15z"/>
  </g>
  <path class="fil1" d="M4934.76 2433.33c-64.85,-207.99 -68.51,257.23 -122.79,360.7 262.14,-712.75 10.06,-442.25 399.07,-42.1 -0.78,2.08 -337.09,41.01 -406.75,65.12 620.71,0 380.25,-123.24 107.44,-498.84 -40.76,-56.12 -53.72,615.72 -53.72,445.11"/>
  <g id="_105553302958656">
   <path class="fil4" d="M4972.02 2522.34c-9.71,60.76 27.48,230.72 -31.55,123.27 -14.82,0.04 -31.36,-38.7 -34.7,-73.56l28.66 -6.56 0.58 1.28c0.13,-9.1 0.1,-16.23 0.16,-18.31 0,-4.72 2.19,-8.93 5.61,-11.67 0.8,-9.3 1.77,-17.43 2.79,-23.61 2.53,-7.86 10.96,-12.18 18.82,-9.65 7.86,2.53 12.18,10.96 9.65,18.82z"/>
  </g>
  <path class="fil1" d="M4957.78 2517.75c-25.84,80.19 51.04,247.09 -37.06,53.72 -0.93,-2.06 29.38,144.55 29.38,-23.03"/>
  <g id="_105553302958560">
   <path class="fil4" d="M4965.6 2738.64c-102.37,-11.85 53.94,-101.74 53.16,-37.17 -0.57,47.19 -29.95,48.54 -53.16,37.17z"/>
  </g>
  <path class="fil1" d="M4980.81 2717.29c-70.17,-18.55 19.63,43.32 23.03,-16.67 -37.57,-21.08 -95.18,27.02 -15.35,24.34"/>
  <g id="_105553302947104">
   <path class="fil4" d="M4899.3 2586.2c3.93,-6.13 6.98,-10.83 9.4,-14.55 1.46,-13.57 8.55,-28.1 24.47,-40.47 30.47,-23.68 24.97,-0.12 13.7,26.13 2.1,-0.62 4.08,-1.77 5.74,-3.54 -3.88,5.34 -9.46,15.08 -12.16,23.6 3.2,-1.99 6.59,-2.81 10.07,-2.63 0.06,-1.75 0.15,-3.4 0.26,-4.95l-0.33 -1.14 0.42 -0.07c2.45,-29.41 14.64,-21.99 25.37,-4.02l3.5 -0.55 0.22 7.33c17.33,34.09 26.58,89.48 -27.19,37.48 -10.21,12.95 -24.15,9.81 -33.66,-1.32 -4.75,2.69 -10.81,2.66 -15.67,-0.57 -6.87,-4.58 -8.73,-13.86 -4.14,-20.73z"/>
  </g>
  <path class="fil1" d="M4911.74 2594.5c80.01,-120.01 -27.03,7.02 29.38,7.02 15.44,-49.76 59.15,84.13 23.68,-37.05l0.66 22.36"/>
  <g id="_105553302948640">
   <path class="fil0" d="M3818.5 2601.53c-79.35,-146.87 -169.13,-287.81 -260.14,-427.7 -14.59,31.43 -22.15,69.28 -25.76,107.18 7.71,60.44 11.83,113.82 -18.2,126.06 -5.23,-3.39 -9.09,-10.32 -11.78,-19.81l-0.34 1.12 0.1 -1.97c-6.56,-24.16 -5.74,-64.32 -0.41,-105.83 -9.15,-179.72 -42.63,-290.82 243.45,-208.13 25.17,7.28 248.68,71.31 299.13,89.97 52.74,19.51 -61.52,68.32 -64.13,69.39 -7.44,3.58 -16.37,0.45 -19.95,-7 -3.58,-7.44 -0.45,-16.37 7,-19.95 10.27,-4.25 31.64,-12.45 46.51,-20.58 -133.3,-35.82 -332.21,-113.58 -433.27,-108.33 -52.77,2.74 -61.96,50.97 -58.73,109.95 7.28,-23.24 15.58,-41.68 24.02,-50.74 36.78,-39.49 276.78,413.1 302.23,463.18 0.88,8.21 -5.06,15.58 -13.27,16.46 -8.21,0.88 -15.58,-5.06 -16.46,-13.27z"/>
  </g>
  <path class="fil1" d="M3833.36 2599.94c-2.64,-24.7 -230.6,-390.18 -276.02,-455.05 -75.01,87.5 -22.93,514.98 -45.33,-8.61 -8.42,-196.91 443.82,51.56 527.36,40.17 11.96,13.46 -56.69,37.69 -65.42,41.9"/>
  <g id="_105553302951104">
   <path class="fil0" d="M3615.94 3412.67c7.3,12.14 58.52,102.86 84.06,124.8 15.37,-73.32 -58.42,-334.08 124.11,35.06 3.48,7.49 0.24,16.38 -7.24,19.86 -7.49,3.48 -16.38,0.24 -19.86,-7.24 -63.87,-129.24 -45.1,-100.99 -74.96,-147.38 3.66,84.44 32.66,263.67 -132.04,-10.23 -4.1,-7.17 -1.62,-16.3 5.54,-20.4 7.17,-4.1 16.3,-1.62 20.4,5.54z"/>
  </g>
  <path class="fil1" d="M3602.97 3420.1c246.61,430.46 -26.76,-344.63 207.59,158.74"/>
  <g id="_105553302956864">
   <path class="fil0" d="M3812.74 3391.64c104.64,415.57 -140.85,-39.94 118.33,96.8 83.95,44.29 9.32,6.99 46.15,25.27 -10.66,-1.13 -18.67,10.25 -14.34,19.07 -37.67,-60.55 -49.57,-43.1 -81.47,-133.99 -1.73,-8.08 3.42,-16.02 11.49,-17.75 8.08,-1.73 16.02,3.42 17.75,11.49 12.31,34.84 142.24,191.45 41.54,142.11 -161.94,-79.34 -99.23,-23.96 -113.2,6.78 -7.86,-7.3 -19.61,-4.56 -23.08,5.47 0.09,-34.59 -27.99,-131.43 -31.96,-147.21 -2.22,-7.95 2.42,-16.2 10.37,-18.42 7.95,-2.22 16.2,2.42 18.42,10.37z"/>
  </g>
  <path class="fil1" d="M3798.34 3395.67c97.3,348.07 -74.6,-9.85 125.25,105.71 125.32,72.46 -7.69,-12.85 -27.56,-105.71"/>
  <g id="_105553302956544">
   <path class="fil0" d="M4006.87 3327.53c0,0 46.71,85.37 64.48,135.86 1.16,1.4 2.3,2.74 3.43,4.01 103.16,-58.1 10.18,-146.45 -74.79,-146.35 2.83,1.31 5.29,3.51 6.88,6.47zm65.41 138.55l0.76 2.29 1.59 -0.88c-0.76,-0.56 -1.54,-1.03 -2.34,-1.41zm-24.92 14.29c-30.43,-38.68 -122.4,-166.89 -92.23,-181.71 109.72,-53.89 314.64,123.52 104.2,208.94 -7.86,2.52 -16.28,-1.82 -18.8,-9.68 -2.2,-6.86 0.82,-14.13 6.84,-17.55zm-61.54 -158.45c-0.67,0.08 -1.33,0.2 -2,0.29l0.46 0.8c0.48,-0.39 0.99,-0.76 1.53,-1.09z"/>
  </g>
  <path class="fil1" d="M3993.72 3334.62c180.12,334.01 -29.11,-11.48 -32.45,-22.33 110.53,-49.73 272.63,123.7 93.5,181.07"/>
  <g id="_105553302946592">
   <path class="fil0" d="M4166.82 3257.21c22.61,68.08 51.73,203.05 119.42,106.24 4.31,-7.04 13.52,-9.25 20.56,-4.94 7.04,4.31 9.25,13.52 4.94,20.56 -91.81,130.99 -142.8,-20.77 -173.64,-113.56 -2.29,-7.93 2.28,-16.22 10.21,-18.51 7.93,-2.29 16.22,2.28 18.51,10.21z"/>
  </g>
  <path class="fil1" d="M4152.46 3261.36c21.05,72.85 73.43,229.19 146.53,109.89"/>
  <g id="_105553302953440">
   <path class="fil0" d="M4099.59 3283.59c22.55,-8.39 156.57,-77.81 165.41,-36.13 0.93,8.21 -4.96,15.61 -13.17,16.54 -2.64,0.3 -5.21,-0.11 -7.49,-1.08 -24.44,4.22 -115.29,41.57 -136.7,49.47 -7.95,2.22 -16.2,-2.43 -18.42,-10.38 -2.22,-7.95 2.43,-16.2 10.38,-18.42z"/>
  </g>
  <path class="fil1" d="M4103.62 3297.99c20.79,-5.82 145.19,-60.01 146.53,-48.84"/>
  <g id="_105553302958624">
   <path class="fil0" d="M4175.04 3378.35c20.89,-53.26 16.78,-50.78 69.85,-69.93 7.73,-2.9 16.35,1.02 19.25,8.75 2.9,7.73 -1.02,16.35 -8.75,19.25 -43.42,15.66 -34.89,7.68 -52.26,52.18 -2.83,7.76 -11.41,11.76 -19.17,8.93 -7.76,-2.83 -11.76,-11.41 -8.93,-19.17z"/>
  </g>
  <path class="fil1" d="M4189.09 3383.46c18.98,-52.07 17.54,-44.74 61.05,-61.05"/>
  <g id="_105553302960864">
   <path class="fil0" d="M4348.78 3229.84c0,0 16.44,34.07 32.92,72.94 5.76,-57.45 58.41,-120.83 41.99,-128.05 -56.47,-24.8 -80.96,3.79 -82.61,48.28 3.19,1.24 5.96,3.58 7.71,6.83zm57.28 136.2c13.27,40.42 14.92,66.28 -19.5,34.01 -125.06,-117.29 -88.85,-314.18 49.18,-252.67 88.74,39.55 -170.71,233.12 115.27,221.3 38.14,-11.35 40.53,29.47 4.41,29.75l-1.3 -0c-4.7,2.09 -8.47,5.12 -13.59,8.77 -6.36,5.26 -15.79,4.38 -21.05,-1.99 -1.9,-2.3 -3,-4.99 -3.33,-7.74 -55.47,-3.32 -89.91,-15 -110.09,-31.42z"/>
  </g>
  <path class="fil1" d="M4335.62 3236.93c204.21,378.73 -123.45,-47.63 32.45,-75.36 224.75,-39.97 -174.51,221.89 187.35,221.89 23.18,0 3.25,-10.72 -24.42,12.21"/>
  <g id="_105553302961024">
   <path class="fil0" d="M4642.62 3133.83c0.05,0.14 1.44,4.27 3.69,11.25 17.79,-23.5 42.92,-43.59 75.25,-56.62 7.82,-2.66 16.31,1.53 18.96,9.34 2.66,7.82 -1.53,16.31 -9.34,18.96 -35.1,14.13 -59.55,38.35 -73.38,65.51 21.81,73.73 53.21,200.02 -6.37,144.66 -39.63,-36.82 -47.3,-96.75 -24.32,-149.2 -7.04,-19.51 -12.36,-33.08 -12.36,-33.08 -2.99,-7.69 0.82,-16.36 8.51,-19.35 7.69,-2.99 16.36,0.82 19.35,8.51zm1.95 95.47c-1.57,22.49 3.59,44.33 15.49,61.9 -2.3,-16.65 -8.44,-39.35 -15.49,-61.9z"/>
  </g>
  <path class="fil1" d="M4628.68 3139.25c151.46,389.48 -130.94,40.99 97.69,-36.63"/>
  <g id="_105553303134528">
   <path class="fil0" d="M4629 3240.09c15.19,-15.8 139.8,-139.15 136.7,-38.6 -0.65,8.23 -7.85,14.37 -16.08,13.72 -8.23,-0.65 -14.37,-7.85 -13.72,-16.08 0.09,-2.8 0.27,-4.17 -0.02,-6.24 -23.21,3.63 -69.91,51.74 -83.08,65.32 -5,6.57 -14.39,7.84 -20.95,2.83 -6.57,-5 -7.84,-14.39 -2.83,-20.95z"/>
  </g>
  <path class="fil1" d="M4640.89 3249.15c15.16,-19.89 115.03,-113.81 109.9,-48.85"/>
  <g id="_105553302966752">
   <path class="fil0" d="M4826.21 3098.46c3.96,13.6 38.87,143.58 55.12,172.39 36.84,-20.57 21.63,-31.16 89.26,-36.65 8.26,0 14.95,6.69 14.95,14.95 0,8.26 -6.69,14.95 -14.95,14.95 -113.54,9.13 -84.11,148.25 -173.1,-157.33 -2.29,-7.93 2.28,-16.22 10.21,-18.51 7.93,-2.29 16.22,2.28 18.51,10.21z"/>
  </g>
  <path class="fil1" d="M4811.84 3102.61c86.02,297.72 41.95,146.53 158.74,146.53"/>
  <g id="_105553302969792">
   <path class="fil0" d="M4936.69 3004.93c0.35,7 3.17,30.54 8.43,57.72 55.68,0.5 142.43,72.15 87.03,119.65 -54.09,46.38 -87.28,-7.11 -105.83,-68.83 -0.8,1.67 -1.68,3.68 -2.67,6.25 -2.7,7.8 -11.22,11.94 -19.02,9.23 -7.8,-2.7 -11.94,-11.22 -9.23,-19.02 1.75,-4.49 10.6,-19.81 10.65,-20 1.97,-7.55 5.45,-13.33 10.04,-17.61 -5.69,-27.96 -8.59,-53.39 -9.31,-67.39 0,-8.26 6.69,-14.95 14.95,-14.95 8.26,0 14.95,6.69 14.95,14.95zm17.22 96.2c13.13,48.68 33.69,90.33 61.57,55.6 22.33,-27.81 -26.29,-46.28 -61.57,-55.6z"/>
  </g>
  <path class="fil1" d="M4921.74 3004.93c0,325.27 252.9,103.25 2.09,74.32 -5.74,30.63 -6.74,13.73 -14.3,35.58"/>
  <g id="_105553302964192">
   <path class="fil0" d="M5094.13 3060.85c-76.98,94.69 118.1,84.62 50.75,30.72 -12.12,-9.7 -32.51,-21.19 -50.75,-30.72zm-27.59 -13.92c-3.54,-1.74 -6.38,-3.13 -8.28,-4.08 -0.28,4.07 -0.12,10.07 0.1,14.97 2.42,-3.52 5.18,-7.16 8.17,-10.88z"/>
  </g>
  <path class="fil1" d="M5117.12 3017.14c-225.25,165.7 266.35,162.15 -44.66,14.3 -36.58,-17.38 -28.61,15.41 -28.61,34.54"/>
  <g id="_105553302964352">
   <path class="fil0" d="M5153.66 2959.56c6.25,9.08 101.43,163.91 16.36,102.54 -152,-109.63 -104.91,-262.85 109.32,-128.4 98.76,61.98 118.78,181.72 1.27,231.93 -7.83,2.63 -16.3,-1.59 -18.93,-9.42 -2.63,-7.83 1.59,-16.3 9.42,-18.93 91.91,-39.26 69.86,-129.72 -7.53,-178.18 -166.07,-103.98 -186.89,-24.37 -112.51,48.96 -8.79,-12.99 -17.4,-24.85 -21.66,-31.04 -4.83,-6.7 -3.31,-16.04 3.39,-20.87 6.7,-4.83 16.04,-3.31 20.87,3.39z"/>
  </g>
  <path class="fil1" d="M5141.54 2968.3c188.68,261.9 -240.82,-162.88 73.27,-48.85 175.09,63.57 152.7,201.22 61.05,232.01"/>
  <g id="_105553302964800">
   <path class="fil0" d="M3466.63 2344.92c7.81,-3.03 32.16,-12.22 66.13,-25.45 -16.63,-6.26 -24.52,-16.77 -16.81,-32.12 21.32,-42.4 45.17,-70.99 69.07,-89.35 -5.45,-27.6 -8.86,-54.78 -8.63,-73.75l-1.04 -2.85c0.32,0.57 0.67,1.1 1.05,1.6 0.29,-13.88 2.62,-23.08 7.69,-24.31 18.2,-4.4 30.3,34.1 37.63,67.79 35.73,-77.42 294.41,-113.99 348.37,-88.17 71.04,33.99 -78.1,117.06 -230.51,186.36 -5.69,36.19 -81.31,58.95 -143.64,61.65 -68.8,28.04 -118.88,46.62 -118.88,46.62 -7.74,2.88 -16.34,-1.05 -19.23,-8.79 -2.88,-7.74 1.05,-16.34 8.79,-19.23zm174.87 -68.83c19.64,-8.05 39.91,-16.48 60.28,-25.14 -1.22,-1.71 -2.67,-3.5 -4.37,-5.37l-0.07 -0.07c-22.12,3.52 -39.1,3.68 -52.35,1.02 -0.94,11.77 -2.12,21.6 -3.5,29.57zm90.2 -38.01c113.69,-49.44 221.71,-103.19 227.43,-131.32 -47.18,-26.58 -267.32,20.22 -305.88,63.38 58.55,-4.62 99.71,40.03 74.72,63.23 1.36,1.59 2.6,3.15 3.72,4.71zm-84.69 -31.94l-0.06 2.62c18.05,-6.95 37.18,-7.31 56.35,3.88 -9.22,-22.83 -31.21,-20.31 -56.29,-6.5zm-35.51 81.07c-1.44,-2.96 -2.87,-6.19 -4.3,-9.71 -2.71,3.17 -5.26,6.29 -7.63,9.28 3.94,0.17 7.92,0.32 11.93,0.43zm-15.16 -41.99l-0.29 -1.01c-14.9,13.48 -28.6,27.66 -39.05,39.54 2.26,0.22 4.63,0.44 7.1,0.66 8.75,-12.17 19.72,-26.24 32.24,-39.19z"/>
  </g>
  <path class="fil1" d="M3471.85 2358.92c1031.67,-384.32 153.65,-287.81 160.67,-175.59 21.63,345.89 -98.3,-311.47 -16.64,33.28 207.87,71.96 59.66,-158.01 -87.22,78.62 318.2,76.36 166.82,-204.67 43.61,3.44"/>
  <g id="_105553302969184">
   <path class="fil0" d="M3879.28 1200.32c727.91,320.82 1207.63,760.11 2005.67,965.34 251,64.55 236.49,24.31 89.87,173.78 -25.89,26.39 -37.22,42.5 -37.81,78.46 0.7,8.22 -5.4,15.46 -13.62,16.17 -8.22,0.7 -15.46,-5.4 -16.17,-13.62 1.82,-109.5 121.69,-146.2 137.27,-187.22 -1002.63,-235.1 -1313.69,-624.95 -2176.72,-1005.31 -7.62,-3.18 -11.23,-11.93 -8.05,-19.55 3.18,-7.62 11.93,-11.23 19.55,-8.05z"/>
  </g>
  <path class="fil1" d="M3873.53 1214.12c767.91,319.99 1194.54,802.3 2187.46,1007.66 7.04,53.95 -147.09,101.52 -138.87,197.4"/>
  <g id="_105553302966720">
   <path class="fil0" d="M2864.94 3516.05c63.78,-30.41 57.78,-47.7 115.28,-49.85 8.26,0 14.95,6.69 14.95,14.95 0,8.26 -6.69,14.95 -14.95,14.95 -48.31,1.73 -37.25,15.57 -104.51,47.84 -7.7,2.97 -16.36,-0.86 -19.33,-8.56 -2.97,-7.7 0.86,-16.36 8.56,-19.33z"/>
  </g>
  <path class="fil1" d="M2870.32 3530c89.82,-34.67 49.14,-48.85 109.9,-48.85"/>
  <g id="_105553302977504">
   <path class="fil0" d="M4935.85 1424.68c-96.12,144.68 -160.34,207.35 -202.14,226.49 37.51,0.84 84.73,-0.97 98.92,-1.34 8.26,0 14.95,6.69 14.95,14.95 0,8.26 -6.69,14.95 -14.95,14.95 -87.87,2.32 -195.45,21.1 -157.56,-39.99 -9.97,-15.94 -12.64,-39.35 -11,-58.1 -0.86,-4.03 -1.69,-8.26 -2.45,-12.83l4.45 -0.23c4.36,-18.87 13.88,-26.36 23.33,-1.2l2.04 -0.11c0.22,2.98 0.48,5.82 0.78,8.55 0.68,2.28 1.35,4.76 2.02,7.44 3.16,12.62 6.15,20.76 15.03,16.54 44.77,-42.9 39.1,-4.99 18.92,19.54 2.04,-0.19 4.12,-0.82 6.17,-1.97 -2.8,2.26 -6.29,5.63 -10.11,9.56 56.52,-1.88 166.1,-187.07 183.6,-212.78 2.91,-7.73 11.53,-11.64 19.25,-8.73 7.73,2.91 11.64,11.53 8.73,19.25z"/>
  </g>
  <path class="fil1" d="M4921.86 1419.41c-2.34,6.23 -245.37,381.02 -245.37,147.85 12.51,120.93 106.83,-36.89 0.95,90.18 8.94,13.9 136.46,7.33 155.19,7.33"/>
  <g id="_105553302978240">
   <path class="fil0" d="M5027.5 1422.25c-190.96,82.87 131.9,73.71 42.82,149.57 -17.66,15.04 -57.76,23.74 -78.05,29.42 -8.03,1.93 -16.1,-3.01 -18.03,-11.03 -1.93,-8.03 3.01,-16.1 11.03,-18.03 12.76,-3.57 50.97,-11.78 65.58,-23.21 -33.1,-35.68 -232.08,-68.5 -33.88,-154.7 7.73,-2.91 16.35,1 19.26,8.73 2.91,7.73 -1,16.35 -8.73,19.26z"/>
  </g>
  <path class="fil1" d="M5022.24 1408.26c-249.11,93.75 222.08,116.9 -33.46,178.45"/>
  <g id="_105553302964480">
   <path class="fil0" d="M5140.06 1433.55c-104.52,-30.6 -8.55,162.51 70.93,66.18 4.92,-6.63 14.29,-8.01 20.91,-3.09 6.63,4.92 8.01,14.29 3.09,20.91 -125.56,152.03 -259.24,-163.08 -85.22,-112.28 7.81,2.68 11.96,11.19 9.28,19 -2.68,7.81 -11.19,11.96 -19,9.28z"/>
  </g>
  <path class="fil1" d="M5144.92 1419.41c-141.21,-48.58 -18.75,219.58 78.07,89.22"/>
  <g id="_105553302975296">
   <path class="fil0" d="M5214.55 1380.38c31.19,70.76 38.93,71.28 45.69,150.57 0,8.26 -6.69,14.95 -14.95,14.95 -8.26,0 -14.95,-6.69 -14.95,-14.95 -5.99,-71.33 -14.89,-74.4 -43.54,-139.41 -3.08,-7.66 0.63,-16.37 8.29,-19.45 7.66,-3.08 16.37,0.63 19.45,8.29z"/>
  </g>
  <path class="fil1" d="M5200.68 1385.95c24.69,61.37 44.62,80.36 44.62,144.99"/>
  <g id="_105553303002432">
   <path class="fil0" d="M5180.83 1507.63c26.4,-22.65 98.79,-77.05 118.97,-128.11 -5.66,-32.15 -2.5,-55.24 20.17,-51.26 27.26,4.78 24.98,27.02 9.17,55.14 9.43,49.21 45.37,124.57 52.26,140.94 3.64,7.41 0.58,16.37 -6.83,20.01 -7.41,3.64 -16.37,0.58 -20.01,-6.83 -0.4,-0.95 -29.88,-65.59 -46.35,-122.85 -42.08,55.62 -109.97,117.26 -109.98,117.26 -6.71,4.8 -16.05,3.26 -20.86,-3.46 -4.8,-6.71 -3.26,-16.05 3.46,-20.86z"/>
  </g>
  <path class="fil1" d="M5189.53 1519.79c254.08,-181.84 31.15,-288.86 178.45,11.15"/>
  <g id="_105553302997792">
   <path class="fil0" d="M5421.38 1353.44c-8.38,7.02 -15.41,13.83 -21.32,20.42 16.26,6.95 30.93,18.37 36.13,26.83 76.66,124.67 -123.88,108.45 -94.26,8.81l-0.01 -0.07c0.08,-25.5 9.56,-37.18 22.55,-40.61 9.78,-12.4 22.66,-25.6 39.33,-39.58 6.68,-4.85 16.03,-3.37 20.88,3.31 4.85,6.68 3.37,16.03 -3.31,20.88zm-39.35 45.75c-36.78,70.37 61.52,99.27 27.36,14.73l-0.02 0.97c-5.24,-3.82 -17.37,-12.15 -27.34,-15.69z"/>
  </g>
  <path class="fil1" d="M5412.59 1341.34c-162.18,117.77 78.53,203.74 10.19,65.96 -3.05,-6.15 -70.2,-52.77 -65.96,0.96"/>
  <g id="_105553303006144">
   <path class="fil0" d="M5514.81 1348.73c-94.72,197.2 180.96,55.05 -3.72,-33.82l-46.16 -17.92c-25.29,22.03 -28.72,28.57 -26.33,65.03 0.89,8.21 -5.04,15.59 -13.25,16.48 -8.21,0.89 -15.59,-5.04 -16.48,-13.25 -2.59,-40.04 20.9,-110.28 57.68,-99.65 380.3,109.84 -122.17,369.85 22.26,68.34 4.08,-7.18 13.21,-9.69 20.38,-5.61 7.18,4.08 9.69,13.21 5.61,20.38z"/>
  </g>
  <path class="fil1" d="M5501.81 1341.34c-138.7,243.93 303.6,48.89 -39.83,-61.5 -31.38,23.53 -42.83,41.71 -38.24,83.8"/>
  <g id="_105553302996640">
   <path class="fil0" d="M5593.6 1246.18c0.03,0.08 38.07,101.64 48.56,125.27 28.4,-25.11 55.37,-49.92 84.4,-75.14 6.4,-5.22 15.81,-4.27 21.04,2.12 5.22,6.4 4.27,15.81 -2.12,21.04 -139.05,120.84 -104.21,124.92 -179.32,-61.4 -3.28,-7.58 0.2,-16.38 7.78,-19.66 7.58,-3.28 16.38,0.2 19.66,7.78z"/>
  </g>
  <path class="fil1" d="M5579.89 1252.12c78.47,181.25 22.3,165.1 156.14,55.76"/>
  <g id="_105553302997856">
   <path class="fil0" d="M5312.11 1632.4c0,0 5.33,5.99 13.45,15.46 -0.35,-46.39 23.98,-84.08 85.25,-65.46 43.2,13.13 53.83,87.97 -42.12,116.87 8.28,11.71 19,24.82 32.69,39.52 -2.28,-1.4 -4.65,-2.19 -6.95,-2.45 16.38,25.53 20.79,42.04 -8.33,28.08 -21.12,-10.12 -38.09,-32.66 -48.63,-58.7 -23.4,-26.77 -47.45,-53.17 -47.45,-53.17 -5.56,-6.1 -5.13,-15.55 0.97,-21.12 6.1,-5.56 15.55,-5.13 21.12,0.97zm40.68 40.29c0.34,-0.09 0.69,-0.18 1.04,-0.26 168.37,-42.78 -51.13,-106.08 -1.04,0.26z"/>
  </g>
  <path class="fil1" d="M5301.06 1642.48c244.45,268.1 -98.28,-44.1 100.37,-46.53 26.62,-0.33 56.04,70.55 -44.61,91.14"/>
  <g id="_105553303005280">
   <path class="fil0" d="M5494.42 1529.84c29.76,257.51 38.34,128.93 127.55,97.9 8.14,-1.4 15.86,4.07 17.26,12.21 1.4,8.14 -4.07,15.86 -12.21,17.26 -67.86,25.16 -126.9,181.34 -162.42,-125.17 -0.61,-8.24 5.58,-15.4 13.81,-16.01 8.24,-0.61 15.4,5.58 16.01,13.81z"/>
  </g>
  <path class="fil1" d="M5479.51 1530.95c21.88,296.58 94.65,120.16 144.99,111.53"/>
  <g id="_105553303009056">
   <path class="fil0" d="M5661.69 1518.37c0,0 7.89,181.27 -31.95,113.11 -50.76,-86.83 8.89,-298.33 190.7,-59.59 10.53,13.83 9.81,21.31 8.56,38.4 -0.7,8.22 -7.95,14.32 -16.17,13.62 -8.22,-0.7 -14.32,-7.95 -13.62,-16.17 0.64,-8.47 2.35,-11.33 -2.44,-17.58 -78.46,-102.38 -124.22,-110.63 -144.13,-84.15 4.89,2.07 8.51,6.69 9.05,12.35z"/>
  </g>
  <path class="fil1" d="M5646.8 1519.79c32.57,341.49 -127.78,-268.65 158.05,56.72 11.49,13.08 10.57,16.99 9.24,32.5"/>
  <g id="_105553302998048">
   <path class="fil0" d="M5596.97 1595c110.4,-53.97 57.49,-27.66 158.81,-78.79 8.13,-1.41 15.87,4.04 17.29,12.18 1.41,8.13 -4.04,15.87 -12.18,17.29 -93.52,49.32 -42.49,23.28 -153.48,77.35 -7.74,2.88 -16.34,-1.05 -19.23,-8.79 -2.88,-7.74 1.05,-16.34 8.79,-19.23z"/>
  </g>
  <path class="fil1" d="M5602.19 1609.02c27.58,-10.27 153.96,-77.7 156.14,-78.07"/>
  <g id="_105553303002688">
   <path class="fil0" d="M5763.6 1405.42c15.59,9.75 73.34,50.15 104.26,65.96 -0.8,-12.62 -1.31,-22.19 -1.47,-27.46 -1.65,-53.59 24.35,-54.5 35.15,-29.19 27.11,63.55 19.8,86.54 -2.22,88.94 5.61,78.15 17.69,180.43 27.08,230.15 1.9,2.51 3.03,5.63 3.03,9.03 -0.2,9.01 -0.82,9.98 -7.6,16.39l-16.33 -0.54c-14.92,-16.23 -29.38,-172.02 -35.76,-259.84 -42.5,-14.24 -99.64,-54.54 -116.67,-65.46 -7.73,-2.91 -11.63,-11.53 -8.73,-19.26 2.91,-7.73 11.53,-11.63 19.26,-8.73z"/>
  </g>
  <path class="fil1" d="M5758.33 1419.41c40.77,15.34 177.26,151.81 131.92,8.28 -30.15,-95.45 24.22,363.59 24.22,315.15"/>
  <g id="_105553303001312">
   <path class="fil0" d="M5997.28 1366c-116.62,-49.11 -37.49,157.72 -3.87,86.1 42.96,-91.52 62.58,0.71 114.19,98.31 1.57,8.11 -3.72,15.95 -11.83,17.52 -8.11,1.57 -15.95,-3.72 -17.52,-11.83 -39.46,-71.55 -24.29,-47.96 -57.93,-95.91 -77.13,157.25 -201.68,-201.71 -10.19,-121.2 7.46,3.55 10.63,12.47 7.08,19.92 -3.55,7.46 -12.47,10.63 -19.92,7.08z"/>
  </g>
  <path class="fil1" d="M6003.7 1352.5c-163.1,-77.54 -34.39,261.71 13.06,77.11 11.6,10.59 72.35,104.05 76.16,123.64"/>
  <g id="_105553303004960">
   <path class="fil0" d="M6073.57 1325.26c0.02,0.05 4.87,13.46 11.51,33.42 6,-32.37 24.48,-64.55 1.73,-78.37 -8.12,11.2 -12.72,25.7 -14.64,42.01 0.56,0.91 1.03,1.89 1.4,2.94zm29.52 91.1c19.5,67.5 34.57,142.29 -7.11,107.91 -42.47,-35.04 -56.14,-121.06 -50.43,-188.55l-0.21 -0.61c-1.61,-4.61 -0.83,-9.48 1.7,-13.26 8.39,-64.62 35.57,-105.78 72.1,-53.7 45.23,64.47 -97.44,139.34 107.62,147.45 8.26,0 14.95,6.69 14.95,14.95 0,8.26 -6.69,14.95 -14.95,14.95 -66.96,-2.67 -104.06,-13.78 -123.67,-29.16z"/>
  </g>
  <path class="fil1" d="M6059.46 1330.19c144.28,413.18 -74.9,12.63 23.26,-67.87 97.35,25.03 -99.14,168.25 144.03,168.25"/>
  <g id="_105553303006720">
   <path class="fil0" d="M6197.1 1307.88c0.47,14.08 0.66,115 19.69,131.38 45.82,-20.91 27.75,-130.14 -20.79,-137 0.7,1.73 1.09,3.63 1.09,5.62zm-29.83 1.6c-2.59,1.59 -5.23,3.42 -7.92,5.57 -9.08,7.25 -7.12,26.77 -6.89,36.42 0.57,8.24 -5.66,15.37 -13.89,15.94 -8.24,0.57 -15.37,-5.66 -15.94,-13.89 -0.59,-27.01 -0.21,-56.31 29.06,-68.22 242.04,-98.54 30.47,446.88 15.59,24.19z"/>
  </g>
  <path class="fil1" d="M6182.15 1307.88c0,359.64 180.13,-61.97 -20.39,-10.2 -25.3,6.53 -25.64,34 -24.22,54.81"/>
  <g id="_105553302979072">
   <path class="fil0" d="M6271.19 1230.81c9.48,9.87 64.07,69.31 94.38,91.42 -8.74,-24.85 -31.27,-64.16 -50.39,-92.76 -1.3,1.25 -2.86,2.28 -4.63,3.01 -7.63,3.16 -16.37,-0.46 -19.53,-8.09 -3.97,-10.12 -9.93,-23.69 -11.3,-34.75 -18.38,-148.21 294.39,399.67 -30.47,61.5 -5.61,-6.06 -5.25,-15.52 0.81,-21.13 6.06,-5.61 15.52,-5.25 21.13,0.81z"/>
  </g>
  <path class="fil1" d="M6260.22 1240.96c287.56,310.41 -24.78,-189.8 44.61,-22.3"/>
  <g id="_105553302979040">
   <path class="fil0" d="M6440.76 1330.93c-14.62,-12.73 -201.62,-178.1 -53.58,-169.64 18.31,1.04 35.4,5.02 51.5,11.11 -26.64,-28.82 -51.33,-59.68 -70.34,-84.17 -3.43,-0.8 -6.6,-2.82 -8.8,-5.92 -4.65,-6.78 -13.31,-17.58 -7.22,-26.46 23.51,-34.33 114.5,88.73 166.9,167.08 14.11,12 27.55,24.72 40.6,37.22 -6.47,-0.96 -13.21,-3 -20.15,-5.93 9.21,14.46 15.32,24.66 16.9,27.87 -8.94,3.83 -12.29,3.82 -19.83,-2.94 -108.12,-96.9 -287.95,-154.61 -77.86,27.99 6.57,5 7.84,14.39 2.83,20.95 -5,6.57 -14.39,7.84 -20.95,2.83z"/>
  </g>
  <path class="fil1" d="M6449.82 1319.04c-237.2,-180.73 -10.94,-182.22 98.46,-49.39 0.97,-0.64 -223.18,-261.92 -176.54,-195.97"/>
  <g id="_105553302982944">
   <path class="fil0" d="M6540.02 1087.24c1.91,2.74 41.8,63.51 54.13,98.93 24.96,-31.37 39.18,-69.98 -3.46,-98.42 -63.89,-42.61 -81.01,-29.33 -74.57,-0.99 0.85,-1.08 1.86,-2.06 3.03,-2.9 6.7,-4.83 16.04,-3.31 20.87,3.39zm35.85 119.14c-2.19,-1.13 -4.56,-2.46 -7.13,-4.02 -128.06,-77.79 -111.41,-239.66 38.53,-139.5 78.97,52.75 28.55,130.95 -25.85,178.97 -6.63,4.92 -15.99,3.54 -20.91,-3.09 -4.92,-6.63 -3.54,-15.99 3.09,-20.91 3.99,-3.52 8.13,-7.35 12.27,-11.44z"/>
  </g>
  <path class="fil1" d="M6527.89 1095.98c190.35,264.2 -184.89,-111.87 44.61,-33.46 81.1,27.7 77.78,109.52 0,167.29"/>
  <g id="_105553303017824">
   <path class="fil0" d="M4195.09 355.85c-2.22,7.76 -158.87,465.29 -235.12,540.36 14.91,3.5 32.47,2.48 53.04,-4.94 81.14,-29.26 95.21,-26.26 179.6,-26.24 8.26,0 14.95,6.69 14.95,14.95 0,8.26 -6.69,14.95 -14.95,14.95 -78.51,-0.02 -92.28,-3.43 -167.38,23.63 -133.33,48.04 -187.75,-107.78 -167.66,-189.62 21.79,-88.74 75.8,80.11 92.23,135.38 70.44,-84.66 192.24,-430.24 215.4,-507.56 -0.25,-8.25 6.24,-15.15 14.49,-15.4 8.25,-0.25 15.15,6.24 15.4,14.49zm-275.55 514.4c-43.55,-132.34 -7.5,-59.91 -35.48,-115.93 -0.81,29.81 8.03,83.25 35.48,115.93z"/>
  </g>
  <path class="fil1" d="M4180.15 356.3c2,65.88 -226.68,587.59 -240.11,527.95 -92.72,-412.08 -119.67,109.63 79.08,20.66 62.05,-27.77 108.29,-24.94 173.49,-24.94"/>
  <g id="_105553303023296">
   <path class="fil0" d="M4370.74 240.18c-1.76,105.9 7.59,62.9 -15.89,137.56 -42.31,11.41 -50.31,-325.29 82.09,-81.1 -2.07,-41.33 -8.72,-100.96 -10.49,-119.45 0,-8.26 6.69,-14.95 14.95,-14.95 8.26,0 14.95,6.69 14.95,14.95l3.85 38.71c27.54,297.12 -63.23,52.5 -89.45,24.29z"/>
  </g>
  <path class="fil1" d="M4356.02 228.41c0,397.8 -60.26,-239.37 79.04,96.12 34.95,84.16 6.34,-134.65 6.34,-147.35"/>
  <g id="_105553303013184">
   <path class="fil0" d="M4540.91 233.74c-128.67,58.86 195.51,127.52 50.82,-2.3 -4.11,-3.68 -32.38,-22.92 -48.26,-24.11 2.49,1.62 4.53,3.99 5.73,6.95 3.08,7.66 -0.62,16.37 -8.28,19.45zm-35.42 -14.61c-1.79,-2.93 -2.59,-6.48 -2.01,-10.14 13.33,-60.88 95.39,-19.02 118.61,11.4 156.42,204.89 -262.7,93.35 -116.6,-1.26z"/>
  </g>
  <path class="fil1" d="M4535.33 219.88c-167.24,67.28 206.87,192.29 74.65,9.27 -16.23,-22.47 -85.28,-58.67 -91.73,-17.81"/>
  <g id="_105553303020448">
   <path class="fil0" d="M4743.87 188.68c30.5,-202.65 85.37,-94.41 113.79,108.05 0,8.26 -6.69,14.95 -14.95,14.95 -8.26,0 -14.95,-6.69 -14.95,-14.95 -5,-32.69 -24,-145.95 -43.05,-178.65 -15.5,35.33 -13.27,124.27 -21.98,158.43l-24.01 3.92c-10.16,-18.63 -4.88,-56.84 -4.89,-77.63 0,-6.53 4.19,-12.09 10.03,-14.12z"/>
  </g>
  <path class="fil1" d="M4748.79 202.8c0,267.53 0.05,-380.4 86.12,41.96 0.41,2.01 7.81,50.77 7.81,51.96"/>
  <g id="_105553303022272">
   <path class="fil0" d="M4740.26 213.46c21.43,0 72.5,0 93.92,0 8.26,0 14.95,6.69 14.95,14.95 0,8.26 -6.69,14.95 -14.95,14.95 -21.43,0 -72.5,0 -93.92,0 -8.26,0 -14.95,-6.69 -14.95,-14.95 0,-8.26 6.69,-14.95 14.95,-14.95z"/>
  </g>
  <path class="fil1" d="M4740.26 228.41c31.31,0 62.61,0 93.92,0"/>
  <g id="_105553303016128">
   <path class="fil0" d="M4936.17 123.82c-15.97,1.62 -172.43,126.17 75.59,106.82 8.2,-0.95 15.63,4.92 16.58,13.13 0.95,8.2 -4.92,15.63 -13.13,16.58 -289.19,22.5 -140.82,-161.52 -78.11,-166.41 8.25,0.26 14.73,7.16 14.48,15.41 -0.26,8.25 -7.16,14.73 -15.41,14.48z"/>
  </g>
  <path class="fil1" d="M4936.64 108.87c-44.16,-1.38 -185.07,167.06 76.85,136.62"/>
  <g id="_105553303016384">
   <path class="fil0" d="M5124.49 106.75c-131.86,9.51 -179.87,132.72 48.39,98.45 8.11,-1.57 15.95,3.74 17.52,11.84 1.57,8.11 -3.74,15.95 -11.84,17.52 -274.73,41.21 -228.81,-145.06 -54.06,-157.71 8.26,0 14.95,6.69 14.95,14.95 0,8.26 -6.69,14.95 -14.95,14.95z"/>
  </g>
  <path class="fil1" d="M5124.49 91.8c-152.17,0 -198.05,176.26 51.23,128.08"/>
  <g id="_105553303014816">
   <path class="fil0" d="M5207.75 91.8c-0.05,4.24 -2.45,65.86 1.91,73.36 13.74,4.01 108.44,-25.91 115.71,-27.99 7.95,-2.24 16.21,2.39 18.44,10.34 2.24,7.95 -2.39,16.21 -10.34,18.44 -143.06,40.93 -157.31,60.72 -155.62,-74.16 0,-8.26 6.69,-14.95 14.95,-14.95 8.26,0 14.95,6.69 14.95,14.95z"/>
  </g>
  <path class="fil1" d="M5192.8 91.8c0,108.84 -17.4,103.09 136.62,59.77"/>
  <g id="_105553303024224">
   <path class="fil0" d="M5192.8 51.23c12.51,0.57 72.72,7.81 79.79,-7 2.69,-7.8 11.21,-11.95 19.01,-9.26 7.8,2.69 11.95,11.21 9.26,19.01 -19.18,39.68 -69.33,28.94 -108.06,27.15 -8.26,0 -14.95,-6.69 -14.95,-14.95 0,-8.26 6.69,-14.95 14.95,-14.95z"/>
  </g>
  <path class="fil1" d="M5192.8 66.18c31.09,0 84.39,10.48 93.93,-17.08"/>
  <g id="_105553303015008">
   <path class="fil0" d="M5218.42 111c8.28,0.38 50.74,6.98 53.54,-4.45 1.28,-8.16 8.93,-13.73 17.09,-12.45 8.16,1.28 13.73,8.93 12.45,17.09 -10.2,40.08 -49.28,31.32 -83.08,29.7 -8.26,0 -14.95,-6.69 -14.95,-14.95 0,-8.26 6.69,-14.95 14.95,-14.95z"/>
  </g>
  <path class="fil1" d="M5218.42 125.95c28.1,0 64.15,9.24 68.31,-17.08"/>
  <g id="_105553303023584">
   <path class="fil0" d="M5466.04 64.05c-21.67,1.33 -82.84,2.99 -106.69,20.3 35.56,8.61 221.39,-10.49 132.47,94.49 -35.33,41.71 -87.66,43.14 -136.79,47.45 -8.26,0 -14.95,-6.69 -14.95,-14.95 0,-8.26 6.69,-14.95 14.95,-14.95 143.82,-12.48 129.04,-72.38 120.13,-72.57 -232.12,-5.11 -169.68,-79.75 -9.12,-89.66 8.26,0 14.95,6.69 14.95,14.95 0,8.26 -6.69,14.95 -14.95,14.95z"/>
  </g>
  <path class="fil1" d="M5466.04 49.1c-135.91,0 -199.51,67.97 8.54,59.77 38.38,-1.51 35.45,102.46 -119.54,102.46"/>
  <g id="_105553303027840">
   <path class="fil0" d="M5619.73 29.9c-34.64,2.56 -141.42,51.9 31.71,37.87 53.69,-4.35 59.56,116.35 -74.4,124.36 -8.26,0 -14.95,-6.69 -14.95,-14.95 0,-8.26 6.69,-14.95 14.95,-14.95 38.92,-2.31 98.67,-32.95 77.83,-64.82 -206.4,19.92 -129.04,-90.49 -35.14,-97.41 8.26,0 14.95,6.69 14.95,14.95 0,8.26 -6.69,14.95 -14.95,14.95z"/>
  </g>
  <path class="fil1" d="M5619.73 14.95c-79.52,0 -140.72,96.73 34.15,67.57 31.03,-5.17 29.95,94.66 -76.85,94.66"/>
  <g id="_105553303043360">
   <path class="fil0" d="M4612.18 392.78c140,-5.41 92.73,-2.32 209.74,-42.23 8,-2.06 16.15,2.76 18.2,10.76 2.06,8 -2.76,16.15 -10.76,18.2 -118.5,40.34 -73.62,37.55 -217.19,43.17 -8.26,0 -14.95,-6.69 -14.95,-14.95 0,-8.26 6.69,-14.95 14.95,-14.95z"/>
  </g>
  <path class="fil1" d="M4612.18 407.73c162.75,0 125.37,-20.04 213.46,-42.7"/>
  <g id="_105553303040544">
   <path class="fil0" d="M4738.13 399.18c5.37,95.54 2.46,50.01 8.54,136.62 0,8.26 -6.69,14.95 -14.95,14.95 -8.26,0 -14.95,-6.69 -14.95,-14.95 -6.05,-84.88 -3.12,-39.35 -8.54,-136.62 0,-8.26 6.69,-14.95 14.95,-14.95 8.26,0 14.95,6.69 14.95,14.95z"/>
  </g>
  <path class="fil1" d="M4723.18 399.18c0,49.22 8.54,108.64 8.54,136.62"/>
  <g id="_105553303042688">
   <path class="fil0" d="M4832.05 390.65c5.46,93.08 2.6,47.55 8.54,136.61 0,8.26 -6.69,14.95 -14.95,14.95 -8.26,0 -14.95,-6.69 -14.95,-14.95 -5.85,-86.95 -2.97,-41.41 -8.54,-136.61 0,-8.26 6.69,-14.95 14.95,-14.95 8.26,0 14.95,6.69 14.95,14.95z"/>
  </g>
  <path class="fil1" d="M4817.1 390.65c0,62.85 8.54,85.99 8.54,136.61"/>
  <g id="_105553303038528">
   <path class="fil0" d="M4834.18 486.7c37.98,0.74 30.04,3.93 63.42,-7.72 7.8,-2.7 16.32,1.43 19.02,9.23 2.7,7.8 -1.43,16.32 -9.23,19.02 -38,13.26 -32.5,10.16 -73.2,9.37 -8.26,0 -14.95,-6.69 -14.95,-14.95 0,-8.26 6.69,-14.95 14.95,-14.95z"/>
  </g>
  <path class="fil1" d="M4834.18 501.65c49.55,0 30.4,4.59 68.31,-8.54"/>
  <g id="_105553303028352">
   <path class="fil0" d="M4917.44 365.03c10.62,134.68 4.73,71.66 17.02,189.15 -0.71,8.22 -7.97,14.31 -16.19,13.6 -8.22,-0.71 -14.31,-7.97 -13.6,-16.19 -12.62,-112.85 -6.53,-50.7 -17.13,-186.56 0,-8.26 6.69,-14.95 14.95,-14.95 8.26,0 14.95,6.69 14.95,14.95z"/>
  </g>
  <path class="fil1" d="M4902.49 365.03c0,39.94 17.08,187.76 17.08,187.85"/>
  <g id="_105553306985600">
   <path class="fil0" d="M4968.67 347.95c0.32,80.6 -2.79,57.93 24.8,131.73 2.7,7.8 -1.44,16.32 -9.24,19.02 -7.8,2.7 -16.32,-1.44 -19.02,-9.24 -28.61,-76.54 -26.09,-57.17 -26.44,-141.51 0,-8.26 6.69,-14.95 14.95,-14.95 8.26,0 14.95,6.69 14.95,14.95z"/>
  </g>
  <path class="fil1" d="M4953.72 347.95c0,93.08 -1.42,58.47 25.62,136.62"/>
  <g id="_105553306982848">
   <path class="fil0" d="M5107.42 337.29c-25.02,2.82 -88.18,13.42 -109.97,33.04 36.27,6.47 252.53,2.22 170.07,102.57 -27.14,33.03 -74.17,32 -111.33,35.16 -8.26,0 -14.95,-6.69 -14.95,-14.95 0,-8.26 6.69,-14.95 14.95,-14.95 138.48,-11.59 88.05,-63.36 76.84,-64.02 -289.1,-17.19 -153.91,-92.7 -25.61,-106.75 8.26,0 14.95,6.69 14.95,14.95 0,8.26 -6.69,14.95 -14.95,14.95z"/>
  </g>
  <path class="fil1" d="M5107.42 322.34c-65.73,0 -266.41,76.85 25.61,76.85 36.58,0 72.99,93.92 -76.84,93.92"/>
  <g id="_105553306984736">
   <path class="fil0" d="M5346.5 320.21c-94.07,4.74 -145.94,67.94 11.27,30.55 84.49,-20.09 51.69,159.42 -78.13,104.28 -7.27,-3.92 -9.99,-12.98 -6.07,-20.25 3.92,-7.27 12.98,-9.99 20.25,-6.07 74.24,31.67 97.75,-55.34 70.98,-48.89 -198.55,47.84 -166.64,-82.01 -18.3,-89.52 8.26,0 14.95,6.69 14.95,14.95 0,8.26 -6.69,14.95 -14.95,14.95z"/>
  </g>
  <path class="fil1" d="M5346.5 305.26c-144.44,0 -133.63,114.74 8.53,61.97 70.19,-26.06 27.11,126.07 -68.3,74.65"/>
  <g id="_105553306978656">
   <path class="fil0" d="M5438.29 296.72c4.87,31.75 10.68,61.06 20.95,91.62 5.99,5.68 6.24,15.14 0.56,21.13 -5.68,5.99 -15.14,6.24 -21.13,0.56 -20.08,-41.74 -24.06,-67.91 -30.28,-113.31 0,-8.26 6.69,-14.95 14.95,-14.95 8.26,0 14.95,6.69 14.95,14.95z"/>
  </g>
  <path class="fil1" d="M5423.34 296.72c0,8.4 15.83,93.19 25.62,102.46"/>
  <g id="_105553306980256">
   <path class="fil0" d="M5468.17 296.79c-15.11,-59.61 -27.5,-117.51 66.53,-82.36 72.19,26.99 47.7,154.64 -26.54,172.04 -0.35,0.91 -0.71,1.79 -1.11,2.63 -12.18,25.46 -20.87,15.22 -26.89,-5.99 -2.42,-2.92 -3.74,-6.75 -3.39,-10.83 0.06,-0.68 0.16,-1.34 0.31,-1.99 -6.41,-30.9 -8.81,-72.02 -8.9,-73.52zm43.37 55.97c40.59,-25.25 70.3,-122.23 -25.69,-110.44 9.78,29.27 23.54,75.27 25.69,110.44z"/>
  </g>
  <path class="fil1" d="M5483.11 296.72c0,170.14 37.77,61.83 -17.08,-66.11 146.58,-42.9 103.18,149.61 25.62,142.96"/>
  <g id="_105553306981664">
   <path class="fil0" d="M5634.68 262.57c-1.49,120.39 -2.42,134.7 103.59,56.8 6.36,-5.27 15.78,-4.39 21.05,1.97 5.27,6.36 4.39,15.78 -1.97,21.05 -131.81,96.69 -154.36,64.35 -152.57,-79.82 0,-8.26 6.69,-14.95 14.95,-14.95 8.26,0 14.95,6.69 14.95,14.95z"/>
  </g>
  <path class="fil1" d="M5619.73 262.57c0,75.27 -15.02,186.9 128.08,68.31"/>
  <g id="_105553306991776">
   <path class="fil0" d="M5620.05 230.54c55.24,-2.91 72.8,-16.6 103.53,-17.02 8.22,0.77 14.27,8.06 13.5,16.28 -0.77,8.22 -8.06,14.27 -16.28,13.5 -18.02,0.17 -50.14,14.36 -101.4,17.14 -8.26,-0.18 -14.8,-7.01 -14.62,-15.27 0.18,-8.26 7.01,-14.8 15.27,-14.62z"/>
  </g>
  <path class="fil1" d="M5619.73 245.49c74.21,1.59 76.7,-19.49 102.46,-17.08"/>
  <g id="_105553306991296">
   <path class="fil0" d="M5645.34 307.39c2.07,0.1 35.93,2.42 44.94,1.6 0.02,-0.93 -0.05,-1.9 -0.07,-2.54 -0.66,-8.23 5.49,-15.43 13.72,-16.09 8.23,-0.66 15.43,5.49 16.09,13.72 0.81,45.44 -41.2,34.85 -74.67,33.21 -8.26,0 -14.95,-6.69 -14.95,-14.95 0,-8.26 6.69,-14.95 14.95,-14.95z"/>
  </g>
  <path class="fil1" d="M5645.34 322.34c36.92,0 61.96,10.58 59.77,-17.08"/>
 </g>
</svg>
