<?xml version="1.0" encoding="UTF-8"?>
<!DOCTYPE svg PUBLIC "-//W3C//DTD SVG 1.1//EN" "http://www.w3.org/Graphics/SVG/1.1/DTD/svg11.dtd">
<svg xmlns="http://www.w3.org/2000/svg" xml:space="preserve" width="2.48577in" height="2.53577in" version="1.1" style="shape-rendering:geometricPrecision; text-rendering:geometricPrecision; image-rendering:optimizeQuality; fill-rule:evenodd; clip-rule:evenodd"
viewBox="0 0 4885.61 4983.88"
 xmlns:xlink="http://www.w3.org/1999/xlink"
 xmlns:xodm="http://www.corel.com/coreldraw/odm/2003">
 <defs>
   <clipPath id="id0">
    <path d="M2428.05 4885.56c-213.97,-1.29 -424.13,-30.26 -626.07,-84.97 -412.44,-111.76 -790.61,-330.89 -1096.91,-640.92 -134.79,-136.43 -250.29,-284.89 -346.49,-441.92 -142.09,-231.96 -242.04,-482.67 -299.69,-740.97 -121.24,-543.29 -55.43,-1120.33 198.74,-1627.75 116.49,-232.57 272.55,-450.54 468.3,-643.94 276.04,-272.72 607.87,-472.36 968.56,-588.22 243.92,-78.35 501.04,-118.39 763.06,-116.81 208.03,1.26 412.6,28.7 609.6,80.61 418.4,110.23 802.68,330.83 1113.36,645.3 248.29,251.3 436.29,549.08 555.46,873.23 99.83,271.55 151.37,561.62 149.58,858.38 -2.15,356.46 -81.23,702.97 -228.66,1018.64 -121.16,259.45 -288.5,498.1 -497.24,704.33 -462.66,457.11 -1082.08,708.95 -1731.6,705.03zm-1421.62 -3896.58c802.92,-793.28 2096.91,-785.47 2890.19,17.46 793.28,802.92 785.47,2096.91 -17.46,2890.19 -802.92,793.27 -2096.91,785.46 -2890.19,-17.46 -793.28,-802.92 -785.47,-2096.92 17.46,-2890.19z"/>
   </clipPath>
    <mask id="id1">
  <linearGradient id="id2" gradientUnits="userSpaceOnUse" x1="2346.26" y1="1012.63" x2="2346.3" y2="2982.1">
   <stop offset="0" style="stop-opacity:1; stop-color:white"/>
   <stop offset="1" style="stop-opacity:0; stop-color:white"/>
  </linearGradient>
     <rect style="fill:url(#id2)" x="1180.7" y="1012.63" width="2331.13" height="1969.47"/>
    </mask>
  <linearGradient id="id3" gradientUnits="userSpaceOnUse" x1="2417.66" y1="328.1" x2="2417.69" y2="4590.38">
   <stop offset="0" style="stop-opacity:1; stop-color:black"/>
   <stop offset="1" style="stop-opacity:1; stop-color:white"/>
  </linearGradient>
  <linearGradient id="id4" gradientUnits="userSpaceOnUse" x1="2346.26" y1="1012.63" x2="2346.3" y2="2982.1">
   <stop offset="0" style="stop-opacity:1; stop-color:white"/>
   <stop offset="1" style="stop-opacity:1; stop-color:white"/>
  </linearGradient>
  <linearGradient id="id5" gradientUnits="userSpaceOnUse" x1="4330.4" y1="3993.58" x2="870.6" y2="573.08">
   <stop offset="0" style="stop-opacity:1; stop-color:#999999"/>
   <stop offset="1" style="stop-opacity:1; stop-color:white"/>
  </linearGradient>
  <linearGradient id="id6" gradientUnits="userSpaceOnUse" x1="3616.86" y1="3045.75" x2="2678.97" y2="3858.26">
   <stop offset="0" style="stop-opacity:1; stop-color:#F9A435"/>
   <stop offset="1" style="stop-opacity:1; stop-color:white"/>
  </linearGradient>
  <linearGradient id="id7" gradientUnits="userSpaceOnUse" xlink:href="#id6" x1="1086.79" y1="1582.78" x2="2005.14" y2="2623.03">
  </linearGradient>
  <linearGradient id="id8" gradientUnits="userSpaceOnUse" xlink:href="#id6" x1="2395.73" y1="2462.78" x2="3302.76" y2="3490.2">
  </linearGradient>
 </defs>
 <g id="Layer_x0020_1">
  <path class="fil0" d="M715.49 4268.4c-460.34,-460.34 -715.49,-1078.11 -715.49,-1727.33 0,-1343.99 1088.58,-2442.8 2442.8,-2442.8 650.46,0 1268.07,256.23 1727.33,715.49 459.52,459.52 715.48,1077.12 715.48,1727.32 0,649.22 -255.15,1266.98 -715.48,1727.33 -459.24,459.24 -1076.88,715.48 -1727.33,715.48 -650.39,0 -1268.02,-256.18 -1727.32,-715.48z"/>
  <path class="fil1" d="M910.72 3966.19c-401.61,-401.61 -624.2,-940.57 -624.2,-1506.95 0,-1172.51 949.69,-2131.14 2131.14,-2131.14 567.47,0 1106.28,223.54 1506.94,624.2 400.89,400.89 624.19,939.7 624.19,1506.93 0,566.39 -222.6,1105.34 -624.19,1506.95 -400.65,400.65 -939.49,624.19 -1506.94,624.19 -567.41,0 -1106.24,-223.49 -1506.94,-624.19z"/>
  <circle class="stageColour str0" cx="2442.8" cy="2521.42" r="1898.19"/>
  <path class="fil3" d="M2931.04 4218.5l161.95 -113.4 43.56 62.2 -237.31 166.17 -283.69 -405.14 75.36 -52.77 240.14 342.94zm334.94 -141.84l-75.65 52.97 -283.69 -405.14 75.64 -52.97 283.69 405.14zm74.14 -545.89c0.5,5.49 0.13,9.93 -1.15,13.47 -1.28,3.54 -3.81,6.69 -7.54,9.31 -3.92,2.75 -9.18,4.19 -15.78,4.5 -6.6,0.31 -14.34,0.99 -23.18,1.89 -8.84,0.9 -18.5,2.79 -29.03,5.85 -10.52,3.06 -21.59,8.72 -33.16,16.83 -10.46,7.33 -18.76,14.95 -24.85,22.97 -6.08,8.02 -10.13,16.14 -12.32,24.35 -2.18,8.21 -2.47,16.34 -0.7,24.43 1.77,8.09 5.3,15.92 10.53,23.39 6.67,9.53 14.94,15.57 24.71,18.19 9.77,2.62 20.57,3.13 32.48,1.47 11.92,-1.66 24.72,-4.65 38.42,-8.95 13.69,-4.3 27.8,-8.6 42.37,-12.83 14.59,-4.22 29.34,-7.6 44.27,-10.13 14.93,-2.52 29.64,-2.79 44.11,-0.81 14.47,1.97 28.56,7 42.12,15.04 13.57,8.04 26.19,20.5 37.96,37.3 12.81,18.31 21.7,37.55 26.63,57.91 4.92,20.34 5.52,40.67 1.78,60.97 -3.75,20.3 -11.96,39.97 -24.56,58.95 -12.53,19.08 -30.07,36.37 -52.49,52.07 -12.88,9.02 -26.43,16.71 -40.72,22.94 -14.35,6.14 -28.79,10.96 -43.54,14.35 -14.76,3.37 -29.52,5.35 -44.18,5.88 -14.66,0.53 -28.74,-0.48 -42.2,-3.02l-3.18 -51.64c0.04,-3.92 0.9,-7.87 2.65,-11.74 1.74,-3.86 4.33,-6.93 7.7,-9.28 4.67,-3.27 11.01,-4.94 19.12,-4.9 8.09,0.04 17.54,-0.19 28.29,-0.75 10.73,-0.55 22.46,-2.5 35.13,-5.67 12.67,-3.16 26,-9.57 40.02,-19.38 21.47,-15.03 34.5,-31.82 39.14,-50.24 4.64,-18.42 0.32,-37.1 -13.02,-56.15 -7.46,-10.66 -16.16,-17.5 -26.19,-20.5 -10.04,-3 -21.12,-3.73 -33.11,-2.16 -11.98,1.57 -24.65,4.74 -38.08,9.41 -13.43,4.67 -27.25,9.2 -41.44,13.57 -14.2,4.37 -28.73,7.87 -43.6,10.49 -14.86,2.62 -29.64,2.79 -44.3,0.53 -14.66,-2.25 -29.06,-7.91 -43.21,-16.78 -14.15,-8.88 -27.72,-22.49 -40.67,-40.98 -10.33,-14.76 -17.41,-31.24 -21.33,-49.36 -3.93,-18.13 -4.13,-36.51 -0.51,-55.19 3.62,-18.68 11.37,-37.04 23.22,-55.09 11.87,-18.04 28.44,-34.53 49.73,-49.43 23.91,-16.74 48.57,-28.44 73.97,-35.1 25.41,-6.65 49.92,-8.23 73.53,-4.72l6.14 48.73zm662.73 29.91l-58.28 40.81c-6.53,4.57 -13.03,6.62 -19.44,6.23 -6.4,-0.39 -12.29,-2.25 -17.74,-5.66l-88.13 -61.46 -167.83 117.52 27.62 103.84c1.52,5.33 1.36,11.28 -0.45,17.84 -1.81,6.56 -5.89,12.06 -12.24,16.51l-58.83 41.2 -124.28 -516.78 76.78 -53.76 442.83 293.71zm-369.37 30.66l129.16 -90.45 -143.68 -100.23c-6.61,-4.28 -14.11,-9.61 -22.41,-15.91 -8.3,-6.29 -17.07,-13.24 -26.36,-20.94 4.05,11.36 7.75,22 10.98,31.98 3.23,9.98 5.75,18.94 7.64,26.8l44.66 168.74z"/>
  <path class="fil4 str1" d="M2442.8 876.56c897.57,0 1625.21,727.63 1625.21,1625.21 0,897.57 -727.63,1625.21 -1625.21,1625.21 -897.57,0 -1625.21,-727.63 -1625.21,-1625.21 0,-897.57 727.63,-1625.21 1625.21,-1625.21z"/>
  <path class="fil5" d="M2428.05 4885.56c-213.97,-1.29 -424.13,-30.26 -626.07,-84.97 -412.44,-111.76 -790.61,-330.89 -1096.91,-640.92 -134.79,-136.43 -250.29,-284.89 -346.49,-441.92 -142.09,-231.96 -242.04,-482.67 -299.69,-740.97 -121.24,-543.29 -55.43,-1120.33 198.74,-1627.75 116.49,-232.57 272.55,-450.54 468.3,-643.94 276.04,-272.72 607.87,-472.36 968.56,-588.22 243.92,-78.35 501.04,-118.39 763.06,-116.81 208.03,1.26 412.6,28.7 609.6,80.61 418.4,110.23 802.68,330.83 1113.36,645.3 248.29,251.3 436.29,549.08 555.46,873.23 99.83,271.55 151.37,561.62 149.58,858.38 -2.15,356.46 -81.23,702.97 -228.66,1018.64 -121.16,259.45 -288.5,498.1 -497.24,704.33 -462.66,457.11 -1082.08,708.95 -1731.6,705.03zm-1421.62 -3896.58c802.92,-793.28 2096.91,-785.47 2890.19,17.46 793.28,802.92 785.47,2096.91 -17.46,2890.19 -802.92,793.27 -2096.91,785.46 -2890.19,-17.46 -793.28,-802.92 -785.47,-2096.92 17.46,-2890.19z"/>
  <g style="clip-path:url(#id0)">
   <g id="_105553314108480">
    <g>
     <path id="_1" class="fil6" d="M1006.17 4015.25c50.51,-34.65 97.6,-70.71 140.56,-107.18 -108.42,-101.38 -204.94,-215.33 -287.25,-339.51 -36.86,21.41 -74.14,44.93 -111.39,70.48 -290.35,199.18 -467.94,444.85 -396.68,548.74 71.27,103.89 364.4,26.63 654.75,-172.54z"/>
     <path class="fil6" d="M3907.21 704.79c290.35,-199.18 467.94,-444.85 396.68,-548.74 -71.27,-103.89 -364.4,-26.63 -654.75,172.54 -231.22,158.62 -390.93,346.72 -410.4,469.22 74.45,34.43 146.28,73.53 215.13,116.95 125.19,-24.2 289.71,-97.72 453.34,-209.97z"/>
     <path class="fil6" d="M4115.2 835.52c290.35,-199.18 467.94,-444.85 396.68,-548.74 -71.27,-103.89 -364.4,-26.63 -654.75,172.54 -221.27,151.79 -377.04,330.58 -407.09,453.05 66.48,41.71 130.21,87.4 190.82,136.78 127.45,-19.6 301.38,-94.97 474.35,-213.62z"/>
     <path class="fil6" d="M1000.26 4277.13c116.61,-79.99 215.01,-167.48 286.42,-250.27 -104.59,-80.44 -200.56,-171.5 -286.29,-271.62 -82.17,36.31 -170.3,85.4 -258.2,145.7 -290.35,199.18 -467.94,444.85 -396.68,548.74 71.27,103.89 364.4,26.63 654.75,-172.54z"/>
    </g>
    <polygon class="fil7" points="981.45,5057.96 5513.83,2609.53 5335.77,2279.9 803.38,4728.33 "/>
    <polygon class="fil8" points="1093.84,5170.35 5626.22,2721.92 5448.16,2392.3 915.77,4840.73 "/>
    <path class="fil9" d="M3703.66 3029.1c300.02,0 543.24,310.31 543.24,693.1 0,382.79 -243.22,693.1 -543.24,693.1 -300.02,0 -543.24,-310.31 -543.24,-693.1 0,-382.79 243.22,-693.1 543.24,-693.1z"/>
   </g>
  </g>
  <path class="fil10" d="M2428.05 4885.56c-213.97,-1.29 -424.13,-30.26 -626.07,-84.97 -412.44,-111.76 -790.61,-330.89 -1096.91,-640.92 -134.79,-136.43 -250.29,-284.89 -346.49,-441.92 -142.09,-231.96 -242.04,-482.67 -299.69,-740.97 -121.24,-543.29 -55.43,-1120.33 198.74,-1627.75 116.49,-232.57 272.55,-450.54 468.3,-643.94 276.04,-272.72 607.87,-472.36 968.56,-588.22 243.92,-78.35 501.04,-118.39 763.06,-116.81 208.03,1.26 412.6,28.7 609.6,80.61 418.4,110.23 802.68,330.83 1113.36,645.3 248.29,251.3 436.29,549.08 555.46,873.23 99.83,271.55 151.37,561.62 149.58,858.38 -2.15,356.46 -81.23,702.97 -228.66,1018.64 -121.16,259.45 -288.5,498.1 -497.24,704.33 -462.66,457.11 -1082.08,708.95 -1731.6,705.03zm-1421.62 -3896.58c802.92,-793.28 2096.91,-785.47 2890.19,17.46 793.28,802.92 785.47,2096.91 -17.46,2890.19 -802.92,793.27 -2096.91,785.46 -2890.19,-17.46 -793.28,-802.92 -785.47,-2096.92 17.46,-2890.19z"/>
  <path class="fil11" d="M2442.8 603.58c972.54,0 1760.94,750.54 1760.94,1475.08 0,724.54 -673.89,-310.29 -1646.43,-310.29 -972.53,0 -1875.45,1034.83 -1875.45,310.29 0,-724.55 788.4,-1475.08 1760.94,-1475.08z"/>
  <path class="fil12" d="M3247.31 1311.84c200.93,0 363.82,162.89 363.82,363.82 0,200.93 -162.89,363.82 -363.82,363.82 -200.93,0 -363.82,-162.89 -363.82,-363.82 0,-200.93 162.89,-363.82 363.82,-363.82z"/>
  <path class="fil12" d="M3397.65 1751.55c137.31,0 248.62,111.31 248.62,248.62 0,137.31 -111.31,248.62 -248.62,248.62 -137.31,0 -248.62,-111.31 -248.62,-248.62 0,-137.31 111.31,-248.62 248.62,-248.62z"/>
  <path class="fil13" d="M3302.76 3490.2c-380.81,336.2 -892.58,378.74 -1143.05,95.02 -250.47,-283.71 -144.79,-786.25 236.02,-1122.45 380.82,-336.2 892.58,-378.74 1143.05,-95.02 250.48,283.71 144.8,786.26 -236.02,1122.45z"/>
  <path class="fil14" d="M2678.97 3858.25c-301.16,-347.63 -335.34,-811.33 -76.35,-1035.69 258.99,-224.37 713.08,-124.44 1014.24,223.19 301.15,347.63 335.34,811.33 76.35,1035.69 -258.99,224.37 -713.08,124.44 -1014.24,-223.19z"/>
  <path class="fil15" d="M2005.15 2623.03c-385.58,340.39 -903.73,383.47 -1157.32,96.21 -253.59,-287.25 -146.61,-796.07 238.96,-1136.46 385.58,-340.39 903.73,-383.46 1157.32,-96.21 253.59,287.25 146.61,796.07 -238.96,1136.46z"/>
  <g id="_0">
   <path class="fil16" style="mask:url(#id1)" d="M2346.27 2982.1c643.72,0 1165.56,-440.88 1165.56,-984.73 0,-543.85 -521.84,-984.73 -1165.56,-984.73 -643.73,0 -1165.57,440.88 -1165.57,984.73 0,543.85 521.84,984.73 1165.57,984.73z"/>
  </g>
 </g>
</svg>
