<?xml version="1.0" encoding="UTF-8"?>
<!DOCTYPE svg PUBLIC "-//W3C//DTD SVG 1.1//EN" "http://www.w3.org/Graphics/SVG/1.1/DTD/svg11.dtd">
<!-- Creator: CorelDRAW -->
<svg xmlns="http://www.w3.org/2000/svg" xml:space="preserve" width="2254px" height="1546px" version="1.1" style="shape-rendering:geometricPrecision; text-rendering:geometricPrecision; image-rendering:optimizeQuality; fill-rule:evenodd; clip-rule:evenodd"
viewBox="0 0 1761.126 1207.987"
 xmlns:xlink="http://www.w3.org/1999/xlink"
 xmlns:xodm="http://www.corel.com/coreldraw/odm/2003">
 <defs>
  <style type="text/css">
   <![CDATA[
    .fil0 {fill:#858789;fill-opacity:0.070588}
   ]]>
  </style>
 </defs>
 <g id="Layer_x0020_1">
  <metadata id="CorelCorpID_0Corel-Layer"/>
  <path class="fil0" d="M1025.221 22.575c0,64.735 34.455,215.306 0,269.59 -6.124,-73.623 -64.256,-319.933 -176.381,-274.84 -21.995,8.846 -45.136,16.873 -66.661,26.327 -21.983,9.654 -43.651,18.349 -65.361,28.409 -7.111,3.295 -14.074,7.108 -21.246,10.012 -9.372,3.794 -31.668,15.279 -42.045,20.467 -7.312,3.657 -13.472,7.127 -20.578,10.68l-20.567 10.689c-3.61,2.021 -6.516,3.432 -10.158,5.47 -3.427,1.918 -6.809,3.592 -10.059,5.569l-19.918 11.34c-13.732,7.622 -26.194,14.949 -39.566,22.947 -6.725,4.022 -12.885,8.075 -19.326,11.931 -49.446,29.609 -102.078,66.603 -147.321,101.951 -3.198,2.499 -5.649,4.44 -8.818,6.811l-51.101 41.888c-1.797,1.6 -2.584,1.912 -4.298,3.516l-20.695 18.376c-10.758,10.066 -22.47,19.203 -32.83,29.684l-31.643 30.87c-5.27,5.269 -9.968,9.967 -15.238,15.237 -5.471,5.471 -18.184,18.117 -22.796,24.09l-33.459 36.868c-1.595,1.796 -1.726,2.462 -3.515,4.299 -2.594,2.666 -5.06,5.591 -7.237,8.392l-21.278 25.606c-4.794,5.861 -9.338,11.55 -13.885,17.372 -4.583,5.866 -8.991,11.46 -13.619,17.638l-26.454 36.06c-11.258,15.05 -21.197,30.911 -31.496,46.646l-18.143 28.741c-6.342,10.051 -9.529,14.319 -9.529,27.198 0,6.943 5.369,14.545 9.161,18.189 4.932,4.74 10.738,6.823 19.29,8.059 16.464,2.381 32.823,4.09 48.363,6.338 46.986,6.796 93.556,14.624 140.094,24.003 52.705,10.621 103.876,23.26 155.662,36.567 7.195,1.849 14.101,3.664 21.537,5.813l84.214 25.185c34.388,10.914 68.917,21.925 102.603,34.926l137.467 54.762c12.998,5.782 25.268,11.001 38.012,16.687 37.49,16.728 74.496,35.284 111.232,53.647l35.949 18.751c15.104,7.479 29.276,15.924 44.009,23.974 26.603,14.538 52.608,30.05 78.657,45.589 5.918,3.531 11.344,6.624 17.096,10.254 22.779,14.374 44.997,27.905 67.363,42.816 16.343,10.895 33.453,21.134 49.136,32.913l32.269 22.431c17.798,12.873 34.348,24.674 58.156,24.674 9.039,0 21.036,-2.705 27.338,-5.482 4.298,-1.893 7.076,-3.35 10.961,-5.448 4.906,-2.649 10.176,-7.222 14.167,-10.839 9.26,-8.396 17.766,-25.401 22.441,-36.947 8.151,-20.133 35.108,-67.431 47.038,-87.366 22.743,-38.003 47.804,-73.923 74.299,-109.334 1.432,-1.914 2.459,-3.023 3.808,-4.788 12.686,-16.601 27.261,-35.21 41.593,-50.614 13.433,-14.439 26.239,-29.347 40.252,-43.36l37.883 -37.132c1.937,-1.916 2.782,-2.211 4.698,-3.898 9.042,-7.963 17.161,-16.654 26.71,-24.083l36.396 -30.024c25.32,-19.782 51.076,-38.741 77.829,-56.576 7.013,-4.676 13.304,-8.609 20.316,-13.284 10.497,-6.998 18.614,-14.889 22.712,-27.299 7.761,-23.505 -4.699,-40.447 -15.992,-59.28 -13.22,-22.05 -27.208,-43.45 -41.415,-64.858l-34.983 -49.41c-12.439,-16.497 -24.392,-31.903 -37.308,-47.867 -3.322,-4.105 -6.336,-7.389 -9.581,-11.518 -1.839,-2.339 -2.733,-3.246 -4.572,-5.586 -6.186,-7.87 -13.346,-14.699 -19.533,-22.663 -1.795,-2.309 -3.148,-3.567 -5.023,-5.917l-40.946 -44.229c-14.272,-14.226 -27.868,-28.05 -42.181,-42.212l-44.477 -40.698c-3.73,-2.985 -7.275,-6.943 -11.154,-9.944l-34.298 -28.997c-31.44,-25.33 -62.961,-50.388 -96.188,-73.38 -20.95,-14.497 -41.536,-29.696 -63.305,-42.967 -21.734,-13.249 -43.261,-27.505 -65.349,-40.143l-47.377 -26.858c-2.583,-1.446 -4.864,-2.306 -7.249,-3.692 -4.443,-2.581 -9.006,-4.669 -13.648,-7.449 -4.728,-2.831 -9.295,-4.416 -13.887,-7.212 -8.299,-5.053 -19.156,-9.804 -27.98,-14.216 -15.244,-7.622 -33.501,-20.337 -48.661,-5.684 -4.258,4.115 -8.383,9.12 -8.383,15.842zm396.936 365.461c8.465,0 15.328,6.863 15.328,15.329 0,8.466 -6.863,15.328 -15.328,15.328 -8.466,0 -15.329,-6.862 -15.329,-15.328 0,-8.466 6.863,-15.329 15.329,-15.329zm72.352 199.603l-61.582 -106.723c-1.533,-2.738 -3.721,-4.576 -6.545,-5.517l-0.253 -0.082 11.831 -19.974 13.165 -22.228c7.746,-7.544 12.558,-12.45 12.558,-29.75 0,-17.301 -18.592,-41.527 -41.526,-41.527 -22.935,0 -41.527,24.226 -41.527,41.527 0,17.3 4.812,22.206 12.558,29.75l13.165 22.228 11.83 19.974 -0.252 0.082c-2.824,0.941 -5.014,2.779 -6.546,5.517l-61.583 106.723c-1.357,2.736 -1.795,5.517 -1.269,8.341 0.503,2.825 1.883,5.21 4.094,7.181 2.233,1.97 4.882,2.956 7.946,2.956l123.144 0c3.087,0 5.736,-0.986 7.969,-2.956 2.211,-1.971 3.59,-4.356 4.093,-7.181 0.526,-2.824 0.088,-5.605 -1.27,-8.341zm-72.353 -22.066c3.24,0 6.021,1.159 8.342,3.48 2.296,2.298 3.458,5.079 3.458,8.341 0,3.24 -1.162,6.021 -3.458,8.319 -2.321,2.32 -5.102,3.482 -8.342,3.482 -3.239,0 -6.021,-1.162 -8.341,-3.482 -2.299,-2.298 -3.459,-5.079 -3.459,-8.319 0,-3.262 1.16,-6.043 3.459,-8.341 2.32,-2.321 5.102,-3.48 8.341,-3.48zm-11.297 -42.319c0,-1.029 0.307,-1.838 0.898,-2.429 0.614,-0.613 1.335,-0.897 2.19,-0.897l16.418 0c0.855,0 1.576,0.284 2.19,0.897 0.59,0.591 0.897,1.4 0.897,2.429l-2.058 34.896c0,0.678 -0.306,1.314 -0.896,1.904 -0.593,0.614 -1.337,0.92 -2.191,0.92l-12.302 0c-0.855,0 -1.6,-0.306 -2.19,-0.92 -0.591,-0.59 -0.898,-1.226 -0.898,-1.904l-2.058 -34.896zm11.875 -67.222c3.329,0 6.027,2.698 6.027,6.027 0,3.329 -2.698,6.027 -6.027,6.027 -3.329,0 -6.027,-2.698 -6.027,-6.027 0,-3.329 2.698,-6.027 6.027,-6.027z"/>
 </g>
</svg>
