<?xml version="1.0" encoding="UTF-8"?>
<!DOCTYPE svg PUBLIC "-//W3C//DTD SVG 1.1//EN" "http://www.w3.org/Graphics/SVG/1.1/DTD/svg11.dtd">
<svg xmlns="http://www.w3.org/2000/svg" xml:space="preserve" width="3.08333in" height="3.08333in" version="1.1" style="shape-rendering:geometricPrecision; text-rendering:geometricPrecision; image-rendering:optimizeQuality; fill-rule:evenodd; clip-rule:evenodd"
viewBox="0 0 6571.6 6571.6">
 <defs>
  <style type="text/css">
   <![CDATA[
    .fil3 {fill:white}
    .fil1 {fill:white;fill-rule:nonzero}
    .fil0 {fill:#00162B;fill-rule:nonzero}
    .fil2 {fill:#E0AD12;fill-rule:nonzero}
   ]]>
  </style>
 </defs>
 <g id="Layer_x0020_1">
  <rect class="fil0" x="-0.01" y="-0.01" width="6571.6" height="6571.6"/>
  <g id="Layer_x0020_1_2">
   <path class="fil1" d="M4125.73 5703.29l270.7 0 66.46 -165.97 358.21 0 67.91 165.97 275.93 0 -395.51 -935.46 -248.2 0 -395.51 935.46 0.04 0 -0.02 0zm412.71 -366.34l104.74 -263.97 103.29 263.97 -208.51 0 0.49 0 -0.01 0z"/>
   <path class="fil1" d="M3522.18 5719.07c225.74,0 375.43,-112.87 375.43,-302.73l0 -2.86c0,-173.6 -132.47,-242.96 -346.26,-289.33 -128.64,-29.18 -160.68,-47.82 -160.68,-90.41l0 -2.86c0,-33.01 30.59,-59.77 92.77,-59.77 82.28,0 175.05,32.04 260.16,91.34l128.64 -181.74c-100.92,-80.82 -224.28,-123.38 -382.12,-123.38 -222.88,0 -359.66,124.82 -359.66,297.47l0 2.86c0,191.28 152.56,246.79 350.55,291.75 126.27,29.18 156.38,50.24 156.38,88.95l0 2.86c0,39.69 -37.31,63.6 -106.18,63.6 -107.59,0 -209.47,-38.25 -301.28,-111.42l-143.46 171.23c114.32,102.33 270.7,154 435.21,154l0.44 0.44 0.04 0z"/>
   <polygon class="fil2" points="2530.8,5408.7 2789.5,5408.7 2789.5,4774.07 2530.8,4774.07 "/>
   <polygon class="fil1" points="1510.69,5703.29 2218,5703.29 2218,5477.55 1767.98,5477.55 1767.98,4774.07 1510.69,4774.07 "/>
   <polygon class="fil2" points="2530.8,5474.7 2789.5,5474.7 2789.5,5709.98 2530.8,5709.98 "/>
  </g>
  <g id="_105553250785248">
   <rect class="fil3" x="2792.14" y="1530.98" width="864.56" height="2074.91"/>
   <path class="fil2" d="M3209.65 758.33c103.03,0 195.02,55.2 246.54,143.5l1552.8 2645.66c55.2,88.31 55.2,198.69 3.68,287.01 -51.51,88.31 -147.19,147.19 -250.21,147.19l-3105.62 0c-103.03,0 -198.7,-58.88 -250.21,-147.19 -51.51,-88.32 -47.84,-198.7 3.68,-287.01l1552.8 -2645.66c51.52,-88.31 143.51,-143.5 246.54,-143.5zm0 919.9c-95.67,0 -172.94,77.27 -172.94,172.95l0 805.84c0,95.67 77.27,172.94 172.94,172.94 95.67,0 172.94,-77.26 172.94,-172.94l0 -805.84c0,-95.67 -77.27,-172.95 -172.94,-172.95zm228.14 1611.68c0,-128.79 -99.35,-231.81 -228.14,-231.81 -128.79,0 -231.82,103.03 -231.82,231.81 0,128.79 103.03,228.14 231.82,228.14 128.79,0 228.14,-99.35 228.14,-228.14z"/>
  </g>
 </g>
</svg>
