<?xml version="1.0" encoding="UTF-8"?>
<!DOCTYPE svg PUBLIC "-//W3C//DTD SVG 1.1//EN" "http://www.w3.org/Graphics/SVG/1.1/DTD/svg11.dtd">

<svg xmlns="http://www.w3.org/2000/svg" xml:space="preserve" width="2.22997in" height="0.508358in" version="1.1" style="shape-rendering:geometricPrecision; text-rendering:geometricPrecision; image-rendering:optimizeQuality; fill-rule:evenodd; clip-rule:evenodd"
viewBox="0 0 741.67 169.07">
 <defs>
  <style type="text/css">
   <![CDATA[
    .fil0 {fill:#002D5B}
   ]]>
  </style>
 </defs>
 <g id="Layer_x0020_1">

  <path class="fil0" d="M43.59 17.26c-3.31,8.84 -31.43,74.91 -34.4,102.32 15.27,-12.3 60.66,-73.98 54.55,-25.07 9.24,-8.8 23.18,-20.58 38.01,-32.66 4.59,-5.41 7.88,-9.42 8.26,-9.62 2.74,-1.45 4.61,-1.94 5.8,-1.72 28.73,-22.95 56.4,-43.87 56.41,-43.88 68.83,-52.52 -83.54,227.53 73.93,115.26 72.75,-51.87 27.17,-28.41 48.65,30.72 7.98,21.95 53.01,-25.43 63.27,-33.17 8.94,-6.74 179.34,-124.62 172.46,-82.17 -4.61,28.46 183.59,3.62 206.14,2.46 2.75,0 4.99,2.23 4.99,4.99 0,2.75 -2.23,4.99 -4.99,4.99 -30.22,1.57 -209.85,32.86 -215.71,-9.7l-28.42 10.71c-155.46,65.02 -207.03,195.82 -212.04,56.74 -189.72,145.94 -88.24,-60.6 -98.21,-95.44 -6.8,4 -39.3,29.69 -69.31,54.28 -3.26,6.48 -7.12,12.62 -7.48,13.21 -76.01,124.47 -54.8,27.23 -51.03,8.48 -8.47,6.41 -26.13,26.98 -29.43,30.38 -61.3,63.11 9.2,-104.6 9.28,-104.81 1.02,-2.56 3.92,-3.81 6.48,-2.79 2.56,1.02 3.81,3.92 2.79,6.48zm16.59 95.55c-1.06,4.06 -2.94,11.5 -3.15,16.32 5.99,-4.76 16.53,-19.03 26.49,-33.91 -8.7,8.43 -17.36,15.59 -23.34,17.59z"/>
 </g>
</svg>
