<?xml version="1.0" encoding="UTF-8"?>
<!DOCTYPE svg PUBLIC "-//W3C//DTD SVG 1.1//EN" "http://www.w3.org/Graphics/SVG/1.1/DTD/svg11.dtd">

<svg xmlns="http://www.w3.org/2000/svg" xml:space="preserve" width="3.79078in" height="1.01343in" version="1.1" style="shape-rendering:geometricPrecision; text-rendering:geometricPrecision; image-rendering:optimizeQuality; fill-rule:evenodd; clip-rule:evenodd"
viewBox="0 0 27684.46 7401.16">
 <defs>
  <style type="text/css">
   <![CDATA[
    .fil0 {fill:#002D5B}
   ]]>
  </style>
 </defs>
 <g id="Layer_x0020_1">

  <path class="fil0" d="M2963.28 418.32c-31.4,136.95 -214.61,781.17 -470.56,1626.98 83.96,112.34 167.05,260.15 244.22,429.65 323.61,-275.16 568.15,-482.52 647.25,-554.81 154.63,-144.57 2359.8,-2654.14 2565.84,-1707.17 47.21,217.02 -762.43,6868.55 -38.24,6209.86 1391.27,-1265.42 660.59,-5872.08 1801.48,-4445.58 237.78,297.3 544.48,1043.02 535.48,1580.49l12.62 -6.47c213.31,-563.52 498.71,-1080.69 732.53,-774.39 287.18,376.14 -169.81,725.83 -668.75,970.05 -423.38,1142.94 61.1,2835.3 -5.61,3087.09 -286.23,1080.17 7997.97,-734.37 8998.3,-1010.47 2262.35,-624.42 3515.56,-1176.63 2422.56,-1382.42 -1313.41,-18.03 -2295.19,-41.89 -2418.37,-73.72l-57.27 -157.33c75.13,-65.01 62.02,-56.1 155.84,-57.82 864.96,-15.87 1515.74,5.41 1988.34,55.46 2714,51.84 5474.98,47.61 8165.97,71.05 60.5,0 109.55,49.05 109.55,109.55 0,60.5 -49.05,109.55 -109.55,109.55 -670.74,-5.81 -4469.33,-16.68 -7251.07,-49.34 1309.87,1044.26 -12977.92,4336.18 -12186.54,2262.87 -239.48,-747.19 -283.79,-1312.55 -186.72,-2112.58 8.34,-68.6 64.15,-297.64 149.46,-574.5 -132.58,142.07 -363.6,187.84 -732.64,70.24 -196.58,-62.65 -120.5,-124.53 73.86,-205.41l-2.96 -2.73 8.4 0.52c165.27,-68.34 413.17,-150.15 652.08,-257.33 73.61,-247.73 -92.9,-652.05 -316.65,-1128.91 -942.04,-2007.67 -231,1980.84 -1508.73,3829.02 -1654.27,2392.83 -402.42,-5957.84 -560.13,-6123.57 -210.78,-52.36 -1921.49,1632.88 -2179.69,1874.28 -68.06,62.19 -341.32,300.84 -703.77,616.31 358.08,931.03 510.47,2273.11 -201.87,2327.11 -65.76,4.97 -576.28,71.62 -1130.14,113 -531.52,1528.65 -1026.14,2696.03 -1124.02,2110.31 -5.81,-34.76 213.31,-983.94 510.47,-2079.14 -469.44,9.43 -856.51,-26.14 -883.79,-166.82 -19.18,-98.85 595.75,-670.42 1308.46,-1296.99 328.7,-1047.45 670.33,-1913.44 889.17,-1887.54 44.25,5.23 90.25,27.14 137.01,62.57 197.93,-672.84 349.08,-1223.56 413.23,-1503.15 11.67,-59.34 69.26,-98.02 128.61,-86.34 59.34,11.67 98.02,69.26 86.34,128.61zm5520.55 2999.34c139.56,-98.71 248.54,-213.29 294.94,-347.82 -117.8,100.75 -215.01,218.12 -294.94,347.82zm-6071.56 -1107.83c-58.94,192.87 -120.9,393.79 -185.14,599.66 116.02,-99.25 228.41,-195.11 334.82,-285.68 -48.25,-117.68 -98.74,-224.15 -149.69,-313.98zm-319.87 1028.1c-161.99,510.96 -333.99,1038.34 -504.29,1536.87 539.19,-33.67 1028.68,-69.7 1032.07,-69.95 451.87,-34.04 307.77,-1141.73 28.44,-1950.48l-556.22 483.56zm-1137.76 1573.22c71.42,-257.82 146.44,-520.3 223.18,-777.87 -429.88,374.27 -782.84,682.64 -910.53,797.68 126.8,4.69 385.86,-4.54 687.36,-19.81zm336.81 239.68c-56.07,3.39 -112.13,6.38 -167.68,8.97 -165.15,573.55 -312.45,1110.99 -410.18,1494 168.92,-376.94 369.32,-906.74 577.87,-1502.97zm365.33 -1750.33c98.1,-85.14 196.44,-170.01 293.71,-253.68 112.62,-360.58 219.96,-713.09 317.89,-1042.1 -20.47,-21.79 -40.74,-40.05 -60.64,-54.03 -69.44,-48.82 -292.18,547.01 -550.95,1349.81zm157.02 179.62l-294.91 256.41c-106.36,342.21 -215.15,705.15 -319.18,1061.45 60.5,-3.42 121.74,-6.99 183.01,-10.64 143.96,-419.87 290.17,-864.93 431.08,-1307.23z"/>
 </g>
</svg>
